<svg id="Capa_1" data-name="Capa 1" xmlns="http://www.w3.org/2000/svg" viewBox="0 0 1492.09035 1366.64199"><defs><style>.cls-1{fill:#48a697;}.cls-2{fill:#343d7b;}.cls-3{fill:#cee2d8;}.cls-4{fill:#d6d4e8;}.cls-5{fill:#e9dad2;}.cls-6{fill:#2d4797;}</style></defs><path class="cls-1" d="M1594.79653,1078.38692c43.4082.31663,76.16594,8.88442,105.52743,28.84482,62.26278,42.327,60.70485,128.60464-3.27174,168.629-38.70513,24.21429-81.59222,34.27878-126.83177,34.49333a691.12907,691.12907,0,0,0-94.14705,6.99086c-56.40442,8.01712-105.47149,30.61627-144.8301,72.59967-6.85394,7.31111-13.7872,14.55013-20.5349,21.958-7.28666,7.99978-15.4561,13.42987-26.37053,7.57988-10.93964-5.86351-10.8858-15.35054-7.9123-26.01351,10.37862-37.22005,23.01067-73.32418,42.10531-107.314,32.58924-58.012,70.98733-110.57864,125.26268-150.59049C1491.34472,1100.50991,1544.27332,1081.81388,1594.79653,1078.38692ZM1346.9241,1323.43523c27.45857-11.94984,53.53047-26.82495,82.79255-34.94342,46.01858-12.76759,92.92335-15.936,140.23852-16.55314,34.832-.4543,68.57945-6.19242,99.31988-23.23635,22.29783-12.36279,38.76515-29.87481,38.64091-57.53326-.12634-28.10028-15.52872-47.048-39.08282-59.646-30.33371-16.224-62.984-18.21672-96.10225-11.69052-76.39615,15.05452-133.983,59.02372-179.60514,119.97251-19.14533,25.5772-39.4,50.97963-46.27887,83.54559l-1.1122,1.70126Q1346.32939,1324.24365,1346.9241,1323.43523Z" transform="translate(-253.95483 -316.67901)"/><path class="cls-1" d="M376.30376,1189.37627c60.33306-.11,108.7951,28.04448,151.29859,66.94072,66.44816,60.80909,99.09249,140.26911,119.314,225.95884,2.7683,11.731,2.16072,21.71616-9.94012,27.18944-12.235,5.53382-18.9249-3.24537-24.38277-11.75158-41.19915-64.20847-102.80286-92.59288-175.9582-101.30786-27.7052-3.30065-55.54863-6.14043-82.50652-13.85713-26.5754-7.60706-50.65743-19.68309-69.88267-40.21215-37.53474-40.08005-31.58033-96.95024,13.53315-128.45043C322.79345,1196.41992,345.1509,1189.45768,376.30376,1189.37627ZM585.397,1408.07915c-4.66046-11.17556-8.46788-22.80359-14.11861-33.454-39.24409-73.96585-92.97975-130.6899-179.24556-147.51049-25.03816-4.882-48.88689.7366-70.06076,13.90465-31.65912,19.68861-34.61588,53.3076-7.79483,79.79366,21.99407,21.7193,50.59676,29.04092,79.885,32.58907C460.46506,1361.44651,526.21075,1370.99223,585.397,1408.07915Z" transform="translate(-253.95483 -316.67901)"/><path class="cls-1" d="M1484.085,1376.11849c19.31566-7.09682,49.89653-5.14254,80.08564,7.25728,23.78681,9.77011,43.8819,23.97138,58.56856,45.36335,16.63,24.22229,18.41541,49.63773,3.71247,74.87157-14.66643,25.17081-45.34395,38.21361-74.13392,32.90681-22.113-4.076-41.93116-13.94326-61.518-24.77008-51.45681-28.443-105.14934-41.28777-162.88094-20.23915-8.45731,3.08361-16.70712,5.17668-23.48752-3.19219-5.99979-7.40552-4.86316-15.17277,1.026-21.49872C1350.76738,1418.14732,1404.789,1385.65,1484.085,1376.11849Zm-83.6488,65.38887a474.9019,474.9019,0,0,1,85.23772,27.419c22.319,9.50436,42.7953,23.33417,66.59669,29.2053,14.60563,3.60291,29.09372,2.641,39.14284-10.37068,8.14855-10.55057,8.35382-23.05044,1.91027-34.39774-4.82468-8.49663-10.69025-16.17709-19.21651-22.4802C1530.13324,1398.3739,1457.93692,1406.24842,1400.43618,1441.50736Z" transform="translate(-253.95483 -316.67901)"/><path class="cls-1" d="M404.78064,712.25161c-49.73053.363-90.47188-49.84893-79.48587-100.90254,11.43277-53.13008,39.6734-99.52342,64.79087-146.89706,7.20748-13.5938,21.6913-13.74942,29.1196-.29027,26.59306,48.18324,55.7294,95.58924,64.95733,151.12557C492.46642,665.26249,453.69872,711.89453,404.78064,712.25161Zm.13238-195.596c-18.41259,33.84533-33.615,64.58078-41.8242,97.80413-8.385,33.93458,13.58666,61.07747,45.35708,59.443C435.467,672.51267,452.45262,645.845,445.945,613.2379,439.28837,579.88384,423.152,550.34647,404.913,516.65559Z" transform="translate(-253.95483 -316.67901)"/><path class="cls-1" d="M653.73527,1239.26334c1.09257,24.70562-2.36861,48.01249-7.69574,71.08918-1.87443,8.11979-5.81462,15.48657-14.93841,16.11551-10.42853.71913-15.77851-7.01857-17.36743-15.85133-8.83251-49.099-41.49668-80.02461-79.77926-107.17584-14.06-9.9718-26.58565-21.93582-34.7214-37.5474-11.959-22.94808-11.50041-45.6463,3.80112-66.81985,13.65633-18.89732,38.37267-25.39968,63.86824-18.52725,35.81732,9.65464,55.80478,35.77286,69.88983,67.56473A196.2976,196.2976,0,0,1,653.73527,1239.26334Zm-68.95236-44.50753.01182.05292a114.12137,114.12137,0,0,0,30.84319,28.54722c-.85191-38.36395-9.50667-70.27813-37.22507-94.82074-9.47194-8.38659-20.13849-13.56649-33.07076-12.48266-18.26235,1.53051-24.805,13.76278-15.55853,29.66217C542.73447,1167.984,563.00829,1182.26291,584.78291,1194.75581Z" transform="translate(-253.95483 -316.67901)"/><path class="cls-1" d="M722.90707,540.68511c-1.43264,6.12565-7.27549,7.99141-12.66737,9.21379-39.34935,8.9204-59.16064,34.68585-64.6239,73.40638-.97727,6.92653-1.8934,15.92328-11.2457,15.68838-9.41343-.23654-9.24927-9.35638-10.42708-16.26223-6.30676-36.979-24.24993-63.77472-62.9588-72.80624-6.11457-1.42658-13.964-2.40409-14.474-10.43125-.55433-8.72653,8.0083-9.53426,13.70788-10.7419,40.24526-8.527,58.06051-35.90518,63.62417-74.0259,1.02132-6.99769.95894-16.18594,10.60712-15.76256,8.97428.39387,9.57825,9.55429,10.6196,16.4689,5.79217,38.46141,25.07913,64.43992,64.74006,73.32845C721.87511,531.46511,723.64434,534.655,722.90707,540.68511Z" transform="translate(-253.95483 -316.67901)"/><path class="cls-1" d="M1381.17253,794.374c5.8334.10918,7.98335,4.88775,8.68332,9.89636,4.65881,33.33866,21.6408,55.38557,55.78,62.31209,4.247.86167,8.67176,2.74124,8.97972,7.87853.37284,6.21829-4.32957,8.80847-9.43332,9.89229-32.12383,6.82188-49.09806,26.82876-53.08751,59.099-.72452,5.86135-2.18015,14.02834-10.77679,13.77815-8.64393-.25151-9.09871-8.514-9.929-14.4256-4.37922-31.17712-21.24931-50.67244-52.01075-58.1786-4.71227-1.14994-10.40659-2.93918-9.6772-9.48762.53857-4.83549,5.19147-6.9071,9.27271-7.795,32.36454-7.0403,47.8104-28.363,52.76615-59.84554C1373.44382,796.67343,1376.31186,794.73772,1381.17253,794.374Z" transform="translate(-253.95483 -316.67901)"/><path class="cls-1" d="M1347.60162,478.31829c.87923-16.11159-3.833-35.83171,20.02022-38.43065,15.21657-1.65794,21.95376,12.50262,19.21008,40.56988-1.404,14.36267,3.64773,36.38613-20.65848,34.82611C1343.42779,513.82376,1349.21391,492.97941,1347.60162,478.31829Z" transform="translate(-253.95483 -316.67901)"/><path class="cls-1" d="M1428.156,435.84321c-4.25879,0-8.52113.11029-12.77585-.02029-13.86022-.42545-24.39472-6.3704-23.908-21.18126.44652-13.58937,10.88738-19.00509,23.70277-19.264,9.93-.20073,19.89179-.32865,29.79933.22623,12.93568.72442,22.16138,6.62854,21.687,20.86493-.43771,13.137-9.5963,18.11508-21.47927,18.92259-5.65059.384-11.349.066-17.02558.066Z" transform="translate(-253.95483 -316.67901)"/><path class="cls-1" d="M1338.546,428.64889q-2.25,1.96641-4.50109,3.93411-30.001-.14442-59.99962-.29136l.091.29018q-2.22933-2.26386-4.45657-4.52575l.31033.07589q.04748-12.4956.10046-24.99225l-.3555.00538q2.24-2.26179,4.47863-4.5201l-.0801.334c21.20991-1.83831,42.41747-2.4032,63.617.15615,0,0-.16416-.17246-.16-.175q2.72181,10.57016,5.43535,21.14526a5.53758,5.53758,0,0,0-.67095,3.09867Q1340.4503,425.9228,1338.546,428.64889Z" transform="translate(-253.95483 -316.67901)"/><path class="cls-1" d="M310.22,987.46024c-.39877-13.40971-1.31209-26.83026-1.02934-40.2256.216-10.23236,6.95821-15.42827,16.81284-14.8988,8.77045.47111,14.69795,5.65376,14.71226,14.93852.02056,13.41017-.73483,26.82153-1.16079,40.23217l.23993-.038q-2.63671,2.18606-5.27158,4.36983a5.28162,5.28162,0,0,0-2.89083.97242q-8.61556-.59048-17.225-1.17961l.07506.27993q-2.26392-2.22684-4.52618-4.45176Z" transform="translate(-253.95483 -316.67901)"/><path class="cls-1" d="M391.06514,931.29409c-11.4197.43822-22.838.91708-34.25952,1.30271-10.18038.34374-16.22009-4.10034-17.2076-14.71354-1.09894-11.81145,5.44309-18.11916,15.9248-18.54365,12.03708-.48766,24.1737,1.48449,36.26974,2.38928q2.05884,2.08464,4.11316,4.16822.34473,8.818.68788,17.63322a5.14873,5.14873,0,0,0-1.04568,2.87733q-2.18345,2.647-4.3655,5.28257Z" transform="translate(-253.95483 -316.67901)"/><path class="cls-2" d="M708.45181,982.892c-11.73049-18.01379-15.46673-37.9841-15.21262-59.17144.70089-58.44435-.07761-117.02165,19.16451-173.39808,2.43584,5.733-.30915,11.02634-.94267,16.61044-8.19071,72.20308-28.5101,144.65588,3.1395,216.28339q-1.24577,1.09279-2.45647,2.22425Q710.29788,984.16623,708.45181,982.892Z" transform="translate(-253.95483 -316.67901)"/><path class="cls-2" d="M1277.47934,641.08273q-16.4408,4.11963-32.8737,8.23632c2.0219-1.84813,3.726-4.425,6.09645-5.4274,31.19928-13.19405,31.52576-14.705,24.07861-48.06073-3.8128-17.07771-10.79833-33.79766-8.51719-51.92857,10.75644,30.72121,20.944,61.5276,14.19747,94.86928A3.07251,3.07251,0,0,0,1277.47934,641.08273Z" transform="translate(-253.95483 -316.67901)"/><path class="cls-2" d="M812.38967,638.22654q2.89318-3.75508,5.78888-7.51194a8.30694,8.30694,0,0,0,3.34134-.78472c2.57808.56177,4.6533.0862,5.6221-2.69489l.35392.38058q9.12321-3.87966,18.248-7.75918C837.98485,632.0869,827.34318,639.07008,812.38967,638.22654Z" transform="translate(-253.95483 -316.67901)"/><path class="cls-3" d="M528.61856,707.597q11.36672-17.9992,22.96825-.15034l-1.05613,1.00649q-10.51129-.01536-21.024-.02875Z" transform="translate(-253.95483 -316.67901)"/><path class="cls-2" d="M730.56657,1001.62416q-7.761-5.16979-15.52741-10.345-1.4534-2.92583-2.89549-5.83975,1.21129-1.12971,2.45279-2.21912C724.21745,985.62564,730.80191,990.66563,730.56657,1001.62416Z" transform="translate(-253.95483 -316.67901)"/><path class="cls-2" d="M757.941,676.03036q3.89333-2.43157,7.78347-4.85965c-.5408,5.39555-3.38941,9.07711-8.311,11.22454q-.90871-.93671-1.83175-1.85943Q756.76146,678.28309,757.941,676.03036Z" transform="translate(-253.95483 -316.67901)"/><path class="cls-2" d="M1245.47384,502.17042q1.728,3.62579,3.45586,7.24717c-4.83059-.58636-7.79647-3.478-9.62966-7.77309q.79938-.7659,1.61138-1.51821Q1243.19256,501.14833,1245.47384,502.17042Z" transform="translate(-253.95483 -316.67901)"/><path class="cls-4" d="M827.142,627.235c-.9688,2.78109-3.044,3.25666-5.6221,2.69489Q824.326,628.58273,827.142,627.235Z" transform="translate(-253.95483 -316.67901)"/><path class="cls-2" d="M1236.5125,496.14337q2.19861,1.99262,4.398,3.98407-.81062.75059-1.61046,1.51706-2.15783-2.14584-4.31553-4.29171Z" transform="translate(-253.95483 -316.67901)"/><path class="cls-2" d="M1231.27427,492.20605q2.48642.61173,4.98057,1.23a18.35849,18.35849,0,0,1,.257,2.70683l-1.52733,1.20988Q1233.12927,494.77947,1231.27427,492.20605Z" transform="translate(-253.95483 -316.67901)"/><path class="cls-3" d="M1269.67971,428.056q2.22777,2.26243,4.45657,4.52576Q1271.90892,430.3199,1269.67971,428.056Z" transform="translate(-253.95483 -316.67901)"/><path class="cls-3" d="M1338.546,428.649q1.90431-2.72931,3.809-5.46492Q1340.45088,425.9102,1338.546,428.649Z" transform="translate(-253.95483 -316.67901)"/><path class="cls-3" d="M1274.21363,398.625q-2.239,2.25913-4.47863,4.5201Q1271.9736,400.88675,1274.21363,398.625Z" transform="translate(-253.95483 -316.67901)"/><path class="cls-3" d="M1610.18461,1005.67552q-2.305,2.04859-4.60432,4.10283c-.50311-.56381-.9944-1.1479-1.46547-1.74243q2.59731-1.55672,5.189-3.12228Z" transform="translate(-253.95483 -316.67901)"/><path class="cls-3" d="M1614.34976,1001.44828q-2.08809,2.10915-4.17054,4.22271c.00539.00453-.87542-.75735-.8749-.75682q1.98606-2.27667,3.97093-4.55444Z" transform="translate(-253.95483 -316.67901)"/><path class="cls-3" d="M334.52336,991.83835q2.63533-2.18439,5.27158-4.36983Q337.16,989.65231,334.52336,991.83835Z" transform="translate(-253.95483 -316.67901)"/><path class="cls-3" d="M309.9564,987.45933q2.26263,2.22544,4.52618,4.45176Q312.22024,989.68613,309.9564,987.45933Z" transform="translate(-253.95483 -316.67901)"/><path class="cls-3" d="M391.18242,931.69023q2.18235-2.63837,4.3655-5.28257Q393.36586,929.04327,391.18242,931.69023Z" transform="translate(-253.95483 -316.67901)"/><path class="cls-3" d="M551.58681,707.44664q2.09913,2.11054,4.2039,4.215c.00551-.006-1.24754,1.24086-1.24616,1.23975q-2.00585-2.22477-4.01466-4.4473Z" transform="translate(-253.95483 -316.67901)"/><path class="cls-3" d="M524.42359,711.84333q2.10347-2.11832,4.20088-4.24149c-.00591-.00486.88225.82254.8816.82168q-1.85841,2.36244-3.71537,4.72665Z" transform="translate(-253.95483 -316.67901)"/><path class="cls-2" d="M739.04384,698.498q.73261-2.39454,1.47165-4.79636a14.54285,14.54285,0,0,1,2.40879.07944q.80747.76437,1.59562,1.54718Q741.78135,696.91256,739.04384,698.498Z" transform="translate(-253.95483 -316.67901)"/><path class="cls-2" d="M742.92428,693.78109q2.02368-2.31547,4.04749-4.63086.91463.94478,1.84987,1.86762-2.15133,2.15475-4.30108,4.31108Q743.73182,694.54545,742.92428,693.78109Z" transform="translate(-253.95483 -316.67901)"/><path class="cls-2" d="M746.97177,689.15016q2.15212-2.15346,4.30437-4.30694.90969.94311,1.84185,1.864-2.14777,2.15563-4.29556,4.31141Q747.88633,690.095,746.97177,689.15016Z" transform="translate(-253.95483 -316.67901)"/><path class="cls-2" d="M751.27627,684.84322q2.15428-2.15317,4.30712-4.3068.92034.92183,1.82951,1.8583-2.148,2.15574-4.29491,4.31245Q752.18583,685.78634,751.27627,684.84322Z" transform="translate(-253.95483 -316.67901)"/><path class="cls-5" d="M1346.9241,1323.43523q-.5947.80829-1.18942,1.61671.55609-.85064,1.11207-1.7014Z" transform="translate(-253.95483 -316.67901)"/><path class="cls-6" d="M753.118,686.70717q2.14719-2.15642,4.29491-4.31245c4.92212-2.1469,7.77073-5.82846,8.31153-11.224a2.21149,2.21149,0,0,1,2.54945-1.91385q3.14258-2.33338,6.274-4.65987l-.56.25781c4.03777.034,7.37544-1.00367,8.4606-5.5031l-.54146.63274q2.514-2.33791,5.02088-4.67136l-.43089.72662q2.56579-2.27174,5.12949-4.53619l-.47592.33889c4.04276.26522,7.613-.28677,8.76973-5.03777l-.32333.6334q2.5065-2.12136,5.01432-4.23709l-.27053.2091c4.0358.18953,7.50138-.572,8.65955-5.18574l-.60818.001c14.951.84479,25.59269-6.13839,33.35173-18.3689a1.89856,1.89856,0,0,1,.16836-.20305c5.37205.81216,5.78205-2.78831,5.91377-6.636l-.28143.30376c5.99835-.10766,8.82844-3.07119,8.23339-9.12418.60109-11.743-14.58606-5.28329-16.41347-14.2313-.05883-4.39645-.57258-8.5629-5.29732-10.63253l.73109-.00978q.0457-79.89449.09167-159.78938l-.60975.2519c4.51619-1.66529,4.99265-5.26091,4.47259-9.33377,0,0-.45859.42482-.45334.42374,7.00983-1.64267,9.71529-6.3318,9.35874-13.19136l-.22129.58074q2.43775-2.30444,4.87669-4.60322l-.3861.24173c3.9876.08216,7.462-.70936,8.79179-5.15656l-.34906.57162q97.503-.26781,195.00319-.537s-.40751-.34388-.40015-.34736c2.08048,4.67127,6.20125,5.40465,10.643,5.52019,3.32873.8423,5.59609,2.74216,6.2409,6.25975q2.42358,3.35935,4.84412,6.71927l-.14932-.69675c-.322,4.07165.30494,7.6392,4.8281,9.15106l-.70483-.11373c2.40616,18.09224-6.70029,37.47419,6.09395,54.40422q3.69336,1.4114,7.38108,2.82284c44.86068,3.78285,90.422,2.95572,133.27782,20.07922l-.15116-.3725q1.8511,2.57056,3.70761,5.14484,2.15763,2.14584,4.31553,4.29171c1.83319,4.29508,4.79907,7.18673,9.62966,7.77305.00039.00437-.67659-.14505-.67239-.14371q2.30735,2.587,4.60615,5.17127l-.35366-.50564c.02469,3.98078.86137,7.48153,5.2352,8.9029,0,0-.50048-.66645-.50114-.66113-.35051,4.15338.24834,7.7852,4.98529,9.1656,0,0-.60948-.47311-.6129-.46763-.78848,5.35141-1.45956,10.658,4.69519,13.60766l-.04767-.58246c-2.2814,18.12885,4.70413,34.8488,8.51693,51.92651,7.44715,33.35573,7.12067,34.86668-24.07861,48.06073-2.37045,1.00242-4.07455,3.57927-6.09645,5.4274-.00788.003-.06173-.50216-.06672-.50584-17.73895-.7322-34.96625,6.1489-52.82721,3.51145l.16416.16663c-4.92423-18.99783-5.43417-39.49669-18.91078-55.58594,0,0,.65729.52324.6611.516.54763-4.07825-.21525-7.51315-4.492-9.2371,0,0,.801.588.79873.58324q-2.02014-2.49711-4.03554-4.98459c-21.28044-12.61353-44.74392-8.11631-67.20144-6.907-13.157.7085-15.90892,20.91364-31.18261,22.89176-1.80718.234,2.20012,8.171,5.21722,12.37874,11.60928,16.19048,32.07089,18.69669,46.11642,30.91229,2.00115,3.68109,5.23336,4.82459,9.19549,4.46561l-.44861-.36955q2.64282,2.19435,5.2792,4.38559s-.6896-.5833-.68474-.58258c1.38681,4.41572,4.69454,5.49784,8.85142,5.11031l-.19528-.46015c.18373,11.75907,7.32553,14.465,17.39041,13.369l-.51913-.24487q2.41412,2.37532,4.82258,4.74844l-.34855-.59887q2.33236,2.424,4.66,4.84344l-.38636-.38064q2.35264,2.33654,4.69887,4.67609l-.39556-.37113q2.34261,2.3389,4.67878,4.68069l-.413-.31085q2.44938,2.27931,4.8914,4.56481s-.22089-.518-.22168-.51273c-.45006,4.37292.30678,7.82036,5.82368,7.63542,0,0-.97339.391-.97641.39719.14813,2.92263,1.80311,4.43062,4.575,4.89274,0,0-1.10064.05981-1.093.053q3.03858,2.34354,6.062,4.70065c5.00355,6.0342,9.5397,12.325,11.119,20.244.08444,4.03.12358,8.07522,4.42243,10.29014l-.27421-.42181c-.09456,11.11911.7307,21.96143,9.17369,30.51458l-.42655-.51818c1.67284,46.27057,12.01245,91.95614,8.53308,138.63047-1.37919,18.5017-.07708,37.20325.00421,55.8138l.58965-.1374c-8.80545,2.86787-10.04964,9.63251-9.05734,17.55055l.35616-.12526c-9.02608.011-13.48331,4.4-12.98755,13.53807,0,0,.21524-.44452.21052-.44465-4.30686-.33778-7.77126.47045-7.93411,5.79451,0,0,.23285-.83179.22812-.83133-5.06764.4864-5.35314,4.23426-5.51441,8.067l.21827-.15074c-.60529.19971-1.73772.42857-1.72945.60241a17.03872,17.03872,0,0,0,.59478,2.95152c-.31544,15.92709,17.29468,19.65013,21.93471,32.20422q2.31207,3.35942,4.62178,6.71862l-.17177-.36141c-.18636,3.96785.603,7.38871,4.94405,8.81976l-.43771-.35511c-.47,5.26991-1.18338,10.63677,5.28866,13.10431l-1.04523-.03348c-3.23536,178.05665,4.58475,356.20705-4.408,534.21866l.30678-.43106c-4.32814,2.56982-4.49269,6.87663-4.66853,11.17884.20368,6.33961-3.27989,10.83681-7.48576,14.97384q-2.58411,2.51626-5.167,5.03146s.9495-.47557.94661-.47111c-4.37239,1.15283-5.392,4.52451-5.60017,8.43466l.28577-.37986q-2.33532,2.3646-4.66971,4.72527l.40159-.40362q-2.35737,2.341-4.71515,4.678l.38518-.37342q-2.39323,2.2362-4.78712,4.469l.301-.21993c-3.84879.2559-7.32081,1.09321-8.49487,5.48681,0,0,.61054-.48266.60568-.4828-4.1993-.33074-7.64374.60294-8.8786,5.2615,0,0,.44874-.46283.4427-.46572-4.33956-.86042-7.67828.19419-9.18433,4.77082l.41079-.78439c-31.466,7.64776-63.47072,8.89276-95.62671,7.75911-101.93079-3.59411-204.30336,8.78864-305.85553-8.44293l.39122.22965c-1.72077-4.05931-5.3102-4.4259-9.01558-4.56376l.39109.24855q-2.62529-2.12255-5.24689-4.24457s.679.57588.67383.57812c-1.76056-4.413-5.52846-5.14517-9.63517-5.257-5.474-2.20809-9.24645-6.27212-12.2214-11.20077q-2.12847-3.01434-4.2622-6.03342l.18228.65178c.26265-4.2166-1.04208-7.42232-5.522-8.586,0,0,.85862.508.85415.50617q-2.19544-2.68013-4.38237-5.3563l.34644.57352c.33186-4.06679-.24322-7.65407-4.80393-9.14827l.49642.3876c-3.108-33.16509-13.27319-65.04-13.00187-99.09715,1.173-147.23595.45124-294.48712.4188-441.73265.77719-20.294,13.21908-33.90162,27.13472-46.41041,8.83316-7.94031,13.97657-16.16514,6.47637-27.66285.22917-10.96463-6.35529-16.00462-15.97628-18.41-31.64553-71.63152-11.32614-144.08432-3.13543-216.2874.63352-5.5841,3.37851-10.87744.94267-16.61044.00381-.00742.433.29.44034.28913,11.069-5.52614,10.76156-15.42079,9.8319-25.55455l-.1681.20122c2.75261-.58022,3.967-2.37064,4.00441-5.08752,0,0-.68211.02908-.67383.03276,7.55864-1.49572,10.75592-5.56238,7.82444-13.24363,0,0,.45781.149.46411.15113,5.1811-.691,5.896-4.183,5.33055-8.47857l-.41105-.13708q2.73383-1.581,5.47343-3.16705,2.15113-2.15494,4.30174-4.31048Q750.9706,688.86324,753.118,686.70717Zm116.50293-37.884.365-.53466q-2.49862,2.14845-4.99712,4.29683l.26437-.18776c-3.9926-.23982-7.449.45752-8.71458,4.98393l.41447-.3362c-11.76254-1.40026-19.76191,4.3659-25.93387,13.61245l.44139-.60208-5.25136,4.06528.34552-.25827c-3.8488.05849-7.399.64744-8.84368,4.97644l.56839-.40053c-6.93537-.516-11.46955,2.40235-13.24982,9.25981l.55538-.7647q-2.60972,2.19276-5.21957,4.38546l.39476-.25971c-3.95319.02324-7.20116,1.16575-8.521,5.36772l.653-.57851q-2.47912,2.38753-4.95824,4.775l.525-.65218q-2.47971,2.38913-4.95955,4.77825l.53962-.57983q-2.44031,2.38863-4.88036,4.77739l.58939-.45023-4.85344,4.6975.4997-.36811q-2.31956,2.39612-4.639,4.79236l.51585-.32247c-2.73383.52455-4.27784,2.08526-4.31789,4.95589l.65913-.18664c-5.11623.75577-5.91614,4.14544-5.17388,8.47594l.288-.4973c-4.79736,1.11639-5.45019,4.61464-5.02141,8.73441l.33081-.41419c-4.504,1.46093-4.89415,5.06462-4.68061,8.98277l.5194-.28105c-11.53732,3.30938-11.22883,14.26232-12.87251,22.542-10.6439,53.61661-16.16133,107.76269-13.89936,162.52281.34368,8.317-1.42818,17.72184,9.92055,20.8367l-.55223-.48359c-.2528,4.14334.02509,7.91615,5.58677,8.00117l-.74607.02159c.08523,3.0196,1.62951,4.51676,4.65947,4.46365l-.05463-.57858c.0021,5.32682,3.45389,6.12159,7.70678,5.86411l-.46319-.18691q2.38555,2.31576,4.771,4.63152l-.35314-.44479q2.30379,2.4166,4.6076,4.83313l-.26292-.35779c-.26384,4.14786.826,7.46263,5.33856,8.67086l-.60489-.45509c-.3555,4.07966.35787,7.61815,4.71607,9.31128,8.46388,23.70668,1.37486,43.54595-16.65577,59.33451-10.06067,8.80972-17.065,18.791-20.97024,31.2926-8.16918,4.26473-6.37985,12.069-6.38629,18.94144-.137,148.58434-.36141,297.1694.07341,445.75236.04426,15.133.19135,31.62677,14.40812,42.62113,10.58769,24.34034,29.92515,38.40269,54.468,46.35008,2.589,5.68061,7.83351,5.18942,12.74158,5.48025,3.91117,3.90647,8.91209,4.16644,13.98511,4.168q135.46592.04057,270.93183.04556c6.316-.00144,13.35093,1.16294,16.108-7.10811,31.29279-.43435,53.77933-16.36643,71.53129-40.63048,4.57384-1.39441,5.56956-4.86129,5.26291-9.08262l-.59884.7085c14.88167-13.59689,13.75568-32.36612,13.82856-49.50853.61645-144.989.41263-289.98152.413-434.97294,0-11.38892-.04413-22.86274-9.66092-31.3335l.56851.64443c.20408-4.00147-.29167-7.63923-4.78318-9.20053l.44034.68408c.31571-4.205-.29194-7.79364-5.53489-8.2878l.74541.27626q-.27461-4.4445-4.72409-4.64267l.27881.64928c-.26449-4.98058-3.47871-6.11161-7.71466-5.90914l.12739.16222c.504-4.31685-.57731-7.51495-5.59964-7.932l.06606-.129c-4.0291-17.40856-8.77486-34.71608-7.46316-52.87817l-.68041.25308c4.85068-2.09215,5.0482-6.42909,5.20513-10.78553,6.45826-12.53368,20.66544-17.3865,28.40715-28.64807,5.65361-2.48086,5.37783-7.596,6.02711-12.61941,4.68232-36.22657.69629-72.54176-.90655-108.61-.80188-18.04832,1.41439-39.03444-13.16222-54.70687l-.19279-1.08475,1.05574-.31591c-.1484-5.6294.87332-11.632-4.93158-15.45742l.42786.81223c.1329-3.7841-.30139-7.3245-4.05721-9.43747l-.16849-1.54771c-.034-4.45754-.73674-8.61092-5.05975-11.1172l.58716,1.0126q-2.06563-2.7328-4.13154-5.46561-1.96262-3.06732-3.92522-6.13471-2.4935-3.3792-4.987-6.75853l.513.82017q-2.34872-2.55378-4.69742-5.10748l.32647.56453c-.14445-3.953-.40987-7.80428-6.02408-7.15184l.56956-.27245c-.44323-5.5113-4.4152-5.9207-8.63578-5.97066q-1.493-1.298-2.98584-2.59608-2.23211-3.027-4.46393-6.054l-.08.78754c-.433-2.92716-2.19184-4.31134-5.08877-4.37141l.60856.34815c-.58532-2.754-2.14233-4.29309-5.10178-4.07854l-.10427.55625c-.269-5.47729-3.89029-5.9415-8.15145-5.449l.66636.39974c-1.08857-4.58464-4.629-5.316-8.555-5.44157l.42117.22695-6.85447-4.53343q-3.09609-1.38428-6.192-2.76855c-1.5402-4.32086-4.992-5.54334-9.14021-5.63689l.54015.38379c-1.77515-3.94192-5.20632-4.73189-9.04329-4.74916l.50232.303c-1.77264-3.8722-5.25871-4.51662-8.96042-4.755l.38138.25019q-2.57722-2.13515-5.15431-4.27037l.44217.83672c-1.22186-4.42715-4.56478-5.43974-8.599-5.33936l.33778.22767q-2.32764-2.28444-4.6554-4.56895l.18819.4654q-2.33729-2.33181-4.67444-4.66368l.33764.33744q-2.33079-2.32422-4.66184-4.64852l.42419.20575q-2.25515-2.34924-4.51016-4.69841l.222.31072c.11412-3.95912-.53792-7.47484-5.06475-8.748l.45873.34132c-.69669-7.72333,5.1501-17.78008-7.56862-21.21636q-2.71473-2.645-5.42957-5.28989c-38.2996-6.399-76.59722-6.95157-114.89247.037q-2.15586.7079-4.31185,1.41578c-7.49035,8.42546-8.77906,18.73831-8.94808,29.39182l.4473-.3144c-5.17322,1.15762-8.287,4.08872-8.32769,9.66632l.04347-.548a4.89811,4.89811,0,0,0-4.63714,4.74483l.29246-.45562q-2.4153,2.31045-4.83046,4.621l.38807-.46021Q872.07686,646.52484,869.62092,648.82319Zm339.56355-125.23756q-2.72241-2.11752-5.44468-4.23508l.52688.97507c-1.63134-7.79695-7.82431-9.15959-14.33325-10.68479-30.45808-7.137-61.178-3.16229-91.81194-2.27062-1.28555.03742-2.48391,3.06447-3.723,4.69874-5.20356,7.84091-4.312,15.88865-.81554,24.02479,26.83228,6.73368,54.34522,6.6479,81.69965,8.15035l-.42694-.483c2.02808,4.74453,6.27741,4.86267,10.49891,5.03864,13.82607,7.06446,20.8728,19.89508,23.54294,33.73966,4.07454,21.125,13.74491,23.66617,30.29,13.02474,9.22518-21.88326-2.19841-38.399-14.2387-54.75446l.74738.84413q-2.11587-2.75964-4.23174-5.51931l.34736.538c.108-5.693-2.8469-8.63735-8.34726-9.29694l.10375.09083q-2.40288-2.15318-4.80564-4.30631Z" transform="translate(-253.95483 -316.67901)"/><path class="cls-2" d="M761.29886,1667.7481c101.55217,17.23157,203.92474,4.84882,305.85553,8.44293,32.156,1.13365,64.1607-.11135,95.62671-7.75911-18.42461,13.08-39.942,14.46965-61.18892,14.57482q-136.22078.67416-272.44667.02258C805.59141,1682.93649,782.00606,1681.28039,761.29886,1667.7481Z" transform="translate(-253.95483 -316.67901)"/><path class="cls-2" d="M1222.34629,1603.43367c8.99273-178.01161,1.17262-356.162,4.408-534.21866,6.992,5.8622,4.23266,14.04285,5.07958,21.349a3.77157,3.77157,0,0,0,.15628,3.37089c2.22047,42.55417,1.55084,85.10754-.032,127.65107.00578,1.92159.01129,3.8529.01681,5.78421a199.90066,199.90066,0,0,1-.0633,46.15287q.0002,9.02215-.00092,18.06755-.00848,6.08266-.01589,12.15232-.12233,60.50176-.24676,121.02916-.02877,6.27409-.0566,12.53545-.02739,13.14849-.05648,26.32206.04177,8.20521.08458,16.402-.14972,39.89847-.3014,79.81427C1231.63673,1575.05609,1230.76564,1590.02139,1222.34629,1603.43367Z" transform="translate(-253.95483 -316.67901)"/><path class="cls-2" d="M696.96165,1075.70352c.03244,147.24553.75421,294.4967-.4188,441.73265-.27132,34.05714,9.89389,65.93206,13.00187,99.09715-14.11644-19.562-15.69066-42.75506-15.80189-65.17932-.75486-152.38518-.54251-304.77535-.56326-457.16381C693.17865,1087.84953,692.46765,1081.19886,696.96165,1075.70352Z" transform="translate(-253.95483 -316.67901)"/><path class="cls-2" d="M1226.64514,962.30341c-.08129-18.61055-1.3834-37.3121-.00421-55.8138,3.47937-46.67433-6.86024-92.3599-8.53308-138.63047,9.21309,15.95768,8.15092,34.07323,10.1358,51.38095a773.47411,773.47411,0,0,1,3.75975,123.33645C1231.69636,949.3348,1233.10037,957.019,1226.64514,962.30341Z" transform="translate(-253.95483 -316.67901)"/><path class="cls-6" d="M1231.648,1424.77212q.1239-60.52109.24676-121.02916A1095.44777,1095.44777,0,0,1,1231.648,1424.77212Z" transform="translate(-253.95483 -316.67901)"/><path class="cls-2" d="M1172.96509,596.90535c13.47661,16.08925,13.98655,36.58811,18.91078,55.58594l-7.525-5.42839Q1178.658,621.98416,1172.96509,596.90535Z" transform="translate(-253.95483 -316.67901)"/><path class="cls-6" d="M1231.31813,1559.8459q.15109-39.91146.3014-79.81427C1233.73153,1506.65044,1234.74366,1533.25651,1231.31813,1559.8459Z" transform="translate(-253.95483 -316.67901)"/><path class="cls-2" d="M1158.23483,668.977c-10.06488,1.096-17.20668-1.60994-17.39041-13.369C1147.80224,658.5526,1153.83355,662.7052,1158.23483,668.977Z" transform="translate(-253.95483 -316.67901)"/><path class="cls-2" d="M1218.5344,768.37732c-8.443-8.55315-9.26825-19.39547-9.17369-30.51458A53.99118,53.99118,0,0,1,1218.5344,768.37732Z" transform="translate(-253.95483 -316.67901)"/><path class="cls-2" d="M1205.54606,993.12937c-.49576-9.138,3.96147-13.5271,12.98755-13.53807C1216.3226,986.13364,1211.583,990.25368,1205.54606,993.12937Z" transform="translate(-253.95483 -316.67901)"/><path class="cls-6" d="M1231.535,1463.62963q.02858-13.1674.05648-26.32206A60.584,60.584,0,0,1,1231.535,1463.62963Z" transform="translate(-253.95483 -316.67901)"/><path class="cls-2" d="M1218.17745,979.71656c-.9923-7.918.25189-14.68268,9.05734-17.55055C1226.90109,969.39984,1224.18985,975.41,1218.17745,979.71656Z" transform="translate(-253.95483 -316.67901)"/><path class="cls-6" d="M1231.91068,1291.59064q.00079-9.03967.00092-18.06755A29.32846,29.32846,0,0,1,1231.91068,1291.59064Z" transform="translate(-253.95483 -316.67901)"/><path class="cls-2" d="M1227.7995,1069.24849c-6.472-2.46754-5.75868-7.8344-5.28866-13.10431C1227.59712,1059.17107,1227.63823,1064.234,1227.7995,1069.24849Z" transform="translate(-253.95483 -316.67901)"/><path class="cls-2" d="M1169.13416,588.18427c4.27678,1.724,5.03966,5.15885,4.492,9.2371Q1171.37637,592.81008,1169.13416,588.18427Z" transform="translate(-253.95483 -316.67901)"/><path class="cls-2" d="M1128.04243,647.52436c-3.96213.359-7.19434-.78452-9.19549-4.46561C1122.08887,644.18117,1126.36276,643.18335,1128.04243,647.52436Z" transform="translate(-253.95483 -316.67901)"/><path class="cls-2" d="M1141.0397,656.06813c-4.15688.38753-7.46461-.69459-8.85142-5.11031C1136.19086,650.83289,1139.2136,652.41408,1141.0397,656.06813Z" transform="translate(-253.95483 -316.67901)"/><path class="cls-2" d="M1185.52583,697.70679c-5.5169.18494-6.27374-3.2625-5.82368-7.63542C1183.23471,691.40112,1185.40908,693.77025,1185.52583,697.70679Z" transform="translate(-253.95483 -316.67901)"/><path class="cls-2" d="M1209.63492,738.28455c-4.29885-2.21492-4.338-6.26011-4.42243-10.29014Q1207.42252,733.13554,1209.63492,738.28455Z" transform="translate(-253.95483 -316.67901)"/><path class="cls-2" d="M1197.82247,998.47923c.16285-5.32406,3.62725-6.13229,7.93411-5.79451A8.98756,8.98756,0,0,1,1197.82247,998.47923Z" transform="translate(-253.95483 -316.67901)"/><path class="cls-2" d="M1192.53618,1005.71491c.16127-3.83275.44677-7.58061,5.51441-8.067Q1195.29824,1001.681,1192.53618,1005.71491Z" transform="translate(-253.95483 -316.67901)"/><path class="cls-2" d="M1222.94855,1056.49929c-4.341-1.431-5.13041-4.85191-4.94405-8.81976C1221.84515,1049.39032,1222.779,1052.73062,1222.94855,1056.49929Z" transform="translate(-253.95483 -316.67901)"/><path class="cls-6" d="M1231.9749,1227.37022c-.00552-1.93131-.011-3.86262-.01681-5.78421C1231.96347,1223.5206,1231.96912,1225.44535,1231.9749,1227.37022Z" transform="translate(-253.95483 -316.67901)"/><path class="cls-2" d="M1217.98454,1614.18145c.17584-4.30221.34039-8.609,4.66853-11.17884C1222.64742,1607.37428,1221.83543,1611.41179,1217.98454,1614.18145Z" transform="translate(-253.95483 -316.67901)"/><path class="cls-2" d="M709.0483,1616.14572c4.56071,1.4942,5.13579,5.08148,4.80393,9.14827C709.96916,1623.44409,709.36086,1619.87257,709.0483,1616.14572Z" transform="translate(-253.95483 -316.67901)"/><path class="cls-2" d="M717.034,1629.5706c4.48,1.16372,5.78468,4.36944,5.522,8.586A9.05817,9.05817,0,0,1,717.034,1629.5706Z" transform="translate(-253.95483 -316.67901)"/><path class="cls-2" d="M1200.67817,1642.1503c.20816-3.91015,1.22778-7.28183,5.60017-8.43466C1206.13677,1637.66781,1204.09595,1640.36605,1200.67817,1642.1503Z" transform="translate(-253.95483 -316.67901)"/><path class="cls-2" d="M738.85736,1654.739c4.10671.11187,7.87461.844,9.63517,5.257C744.19132,1660.24648,741.19287,1658.10076,738.85736,1654.739Z" transform="translate(-253.95483 -316.67901)"/><path class="cls-2" d="M1179.38486,1660.13251c1.17406-4.3936,4.64608-5.23091,8.49487-5.48681A10.38261,10.38261,0,0,1,1179.38486,1660.13251Z" transform="translate(-253.95483 -316.67901)"/><path class="cls-2" d="M1171.11194,1664.91121c1.23486-4.65856,4.6793-5.59224,8.8786-5.2615C1178.27686,1663.501,1175.01405,1664.74551,1171.11194,1664.91121Z" transform="translate(-253.95483 -316.67901)"/><path class="cls-2" d="M752.6745,1663.414c3.70538.13786,7.29481.50445,9.01558,4.56376C757.98548,1667.83975,754.81,1666.654,752.6745,1663.414Z" transform="translate(-253.95483 -316.67901)"/><path class="cls-2" d="M1162.37031,1669.21631c1.506-4.57663,4.84477-5.63124,9.18433-4.77082C1169.6986,1668.35235,1166.13925,1668.98641,1162.37031,1669.21631Z" transform="translate(-253.95483 -316.67901)"/><path class="cls-2" d="M1165.89735,583.78292q2.01659,2.48986,4.03554,4.98459Q1167.91728,586.28,1165.89735,583.78292Z" transform="translate(-253.95483 -316.67901)"/><path class="cls-2" d="M747.8187,1659.418q2.62252,2.12216,5.24689,4.24457C750.4145,1663.36435,748.11773,1662.62592,747.8187,1659.418Z" transform="translate(-253.95483 -316.67901)"/><path class="cls-2" d="M1187.57873,1654.86563q2.39382-2.23364,4.78712-4.469Q1189.972,1652.62931,1187.57873,1654.86563Z" transform="translate(-253.95483 -316.67901)"/><path class="cls-2" d="M1191.98067,1650.77008q2.35777-2.338,4.71515-4.678Q1194.33785,1648.42891,1191.98067,1650.77008Z" transform="translate(-253.95483 -316.67901)"/><path class="cls-2" d="M1196.29423,1646.49571q2.33472-2.36166,4.66971-4.72527Q1198.62941,1644.13111,1196.29423,1646.49571Z" transform="translate(-253.95483 -316.67901)"/><path class="cls-2" d="M722.37376,1637.50486q2.13242,3.01789,4.2622,6.03342Q724.50217,1640.51922,722.37376,1637.50486Z" transform="translate(-253.95483 -316.67901)"/><path class="cls-2" d="M1205.33173,1634.18675q2.58314-2.51547,5.167-5.03146C1209.61456,1631.692,1208.66559,1634.16351,1205.33173,1634.18675Z" transform="translate(-253.95483 -316.67901)"/><path class="cls-2" d="M713.50579,1624.72047q2.18895,2.67716,4.38237,5.3563C714.60762,1629.78423,713.86405,1627.41,713.50579,1624.72047Z" transform="translate(-253.95483 -316.67901)"/><path class="cls-6" d="M1231.99013,1093.93494a3.77157,3.77157,0,0,1-.15628-3.37089A2.12362,2.12362,0,0,1,1231.99013,1093.93494Z" transform="translate(-253.95483 -316.67901)"/><path class="cls-2" d="M1218.17627,1048.04094q-2.3103-3.35931-4.62178-6.71862Q1215.8644,1044.68154,1218.17627,1048.04094Z" transform="translate(-253.95483 -316.67901)"/><path class="cls-2" d="M1191.61978,1009.1181a17.03872,17.03872,0,0,1-.59478-2.95152c-.00827-.17384,1.12416-.4027,1.72945-.60241A6.44054,6.44054,0,0,1,1191.61978,1009.1181Z" transform="translate(-253.95483 -316.67901)"/><path class="cls-2" d="M1194.09345,707.75041q-3.02735-2.35368-6.062-4.70065C1191.80522,702.34848,1192.74538,705.3132,1194.09345,707.75041Z" transform="translate(-253.95483 -316.67901)"/><path class="cls-2" d="M1189.12444,702.99672c-2.77191-.46212-4.42689-1.97011-4.575-4.89274C1188.20319,697.74671,1189.081,699.9825,1189.12444,702.99672Z" transform="translate(-253.95483 -316.67901)"/><path class="cls-2" d="M1179.92383,690.5841q-2.44386-2.28395-4.8914-4.56481C1178.09182,686.00754,1179.48874,687.78,1179.92383,690.5841Z" transform="translate(-253.95483 -316.67901)"/><path class="cls-2" d="M1175.44546,686.33014q-2.33788-2.34106-4.67878-4.68069Q1175.27756,681.81618,1175.44546,686.33014Z" transform="translate(-253.95483 -316.67901)"/><path class="cls-2" d="M1171.16224,682.02058q-2.34794-2.3388-4.69887-4.67609Q1170.96006,677.52194,1171.16224,682.02058Z" transform="translate(-253.95483 -316.67901)"/><path class="cls-2" d="M1166.84973,677.72513q-2.32881-2.42064-4.66-4.84344C1164.961,673.32162,1166.74848,674.71242,1166.84973,677.72513Z" transform="translate(-253.95483 -316.67901)"/><path class="cls-2" d="M1162.53828,673.48056q-2.40978-2.37366-4.82258-4.74844C1160.43679,669.1813,1162.23924,670.56758,1162.53828,673.48056Z" transform="translate(-253.95483 -316.67901)"/><path class="cls-2" d="M1132.873,651.5404q-2.6379-2.192-5.2792-4.38559C1130.30007,647.47381,1132.51529,648.38924,1132.873,651.5404Z" transform="translate(-253.95483 -316.67901)"/><path class="cls-1" d="M1578.783,750.57348c-3.24679,2.72883-6.619,5.32288-9.72041,8.20776-23.67347,22.02077-51.0606,28.84495-81.121,16.70754-30.30337-12.23562-47.33868-36.108-51.1851-68.51272a109.834,109.834,0,0,1,6.36737-52.73617c15.10021-39.46255,33.93324-77.17968,54.20956-114.14672,11.75321-21.42778,25.96092-21.32488,37.272.43136,15.48118,29.77758,30.47843,59.87357,44.08217,90.543,17.49626,39.44469,22.31818,79.58193.10059,119.38146C1578.78768,750.442,1578.783,750.57354,1578.783,750.57348Zm-62.76956-166.82226c-6.83976,13.00032-12.60434,23.43961-17.89116,34.1155-10.47436,21.15209-19.80722,42.91925-24.90729,65.94769-8.08828,36.52088,17.2755,64.97436,51.00243,58.52537,24.91162-4.76341,40.23666-34.29506,31.504-65.45544C1546.888,645.36525,1533.45541,615.45945,1516.01339,583.75122Z" transform="translate(-253.95483 -316.67901)"/><path class="cls-2" d="M1059.37341,388.78174q-97.50081.26889-195.00319.537c8.07068-7.04788,17.977-7.69313,27.9324-7.71876q70.72138-.182,141.443-.086C1042.83124,381.53769,1052.44133,380.71663,1059.37341,388.78174Z" transform="translate(-253.95483 -316.67901)"/><path class="cls-2" d="M1231.42806,492.58045c-42.85584-17.1235-88.41714-16.29637-133.27782-20.07922,42.784.3231,86.43358-7.65827,127.04439,13.32358Q1228.31141,489.20263,1231.42806,492.58045Z" transform="translate(-253.95483 -316.67901)"/><path class="cls-2" d="M838.89,419.534q-.0459,79.89477-.09167,159.78938c-4.15189-1.63831-4.22662-5.365-4.23568-8.8601q-.1759-68.60166-.13842-137.20362C834.43193,428.37647,834.38216,423.11865,838.89,419.534Z" transform="translate(-253.95483 -316.67901)"/><path class="cls-2" d="M1090.76916,469.67839c-12.79424-16.93-3.68779-36.312-6.09395-54.40422C1095.97968,432.371,1089.913,451.4123,1090.76916,469.67839Z" transform="translate(-253.95483 -316.67901)"/><path class="cls-2" d="M851.65819,397.68448c.35655,6.85956-2.34891,11.54869-9.35874,13.19136A17.264,17.264,0,0,1,851.65819,397.68448Z" transform="translate(-253.95483 -316.67901)"/><path class="cls-2" d="M859.778,604.197c.59505,6.053-2.235,9.01652-8.23339,9.12418Q855.66031,608.76,859.778,604.197Z" transform="translate(-253.95483 -316.67901)"/><path class="cls-2" d="M864.71928,388.74717c-1.32981,4.4472-4.80419,5.23872-8.79179,5.15656C857.60072,390.043,861.01548,389.14886,864.71928,388.74717Z" transform="translate(-253.95483 -316.67901)"/><path class="cls-2" d="M1069.61624,393.95457c-4.44173-.11554-8.5625-.84892-10.643-5.52019C1063.78546,387.82692,1067.0643,390.18935,1069.61624,393.95457Z" transform="translate(-253.95483 -316.67901)"/><path class="cls-2" d="M1085.38,415.3879c-4.52316-1.51186-5.15011-5.07941-4.8281-9.15106C1084.42161,408.09334,1085.25252,411.55523,1085.38,415.3879Z" transform="translate(-253.95483 -316.67901)"/><path class="cls-2" d="M842.75279,410.4521c.52006,4.07286.0436,7.66848-4.47259,9.33377C838.52552,416.08049,838.64581,412.31116,842.75279,410.4521Z" transform="translate(-253.95483 -316.67901)"/><path class="cls-2" d="M838.06719,579.33313c4.72474,2.06963,5.23849,6.23608,5.29732,10.63253C839.6783,587.38035,837.02091,584.27921,838.06719,579.33313Z" transform="translate(-253.95483 -316.67901)"/><path class="cls-2" d="M851.826,613.01738c-.13172,3.84765-.54172,7.44812-5.91377,6.636Q848.862,616.32278,851.826,613.01738Z" transform="translate(-253.95483 -316.67901)"/><path class="cls-2" d="M1080.70126,406.93359q-2.42121-3.3598-4.84412-6.71927Q1078.27777,403.57422,1080.70126,406.93359Z" transform="translate(-253.95483 -316.67901)"/><path class="cls-2" d="M856.31359,393.662q-2.43874,2.30021-4.87669,4.60322Q853.87584,395.96646,856.31359,393.662Z" transform="translate(-253.95483 -316.67901)"/><path class="cls-1" d="M1584.494,859.53324q2.20629-1.9372,4.41521-3.87082c9.9891-2.18163,20.48118-1.32469,23.19492,9.48487,3.778,15.04848,6.89622,31.74348-2.14772,45.73959-5.60174,8.669-16.29817,7.25006-25.45282,2.87189C1579.30182,895.6832,1577.71553,877.60914,1584.494,859.53324Z" transform="translate(-253.95483 -316.67901)"/><path class="cls-1" d="M1524.8413,924.44241q3.81747-4.54633,7.63638-9.09077c16.1088-1.02749,32.30965-3.94172,48.03773,2.39848,4.36911,9.81443,6.21438,20.7633-3.627,26.99046-12.59081,7.96682-27.70573,5.52725-41.40638,2.19345C1524.52415,944.2675,1523.09781,934.486,1524.8413,924.44241Z" transform="translate(-253.95483 -316.67901)"/><path class="cls-1" d="M1669.01634,944.1532c-12.21365,5.59323-25.17086,4.93968-38.01343,4.04782-10.47278-.72722-17.61669-5.55233-17.5417-17.42438.07512-11.8903,6.7691-16.50147,17.75051-16.66422,5.01418-.07431,10.03034-.29083,15.042-.21205,24.73971.389,28.56184,5.50638,22.74066,30.26045Z" transform="translate(-253.95483 -316.67901)"/><path class="cls-1" d="M1613.27525,1000.35973q-1.98527,2.27745-3.97093,4.55444-2.59376,1.5625-5.1895,3.12175c-12.47656.62591-21.63568-4.63342-23.069-17.23669-1.58629-13.9489-4.4353-29.14018,7.82444-40.39518,9.02267-8.283,23.54649-2.05322,24.90769,11.45044C1615.05722,974.54376,1613.55419,987.51342,1613.27525,1000.35973Z" transform="translate(-253.95483 -316.67901)"/><path class="cls-1" d="M309.92593,845.92382q2.22294-2.03332,4.44679-4.06535,10.468.02157,20.93334.04163,2.08712,2.14421,4.17488,4.287c.36817,13.55054,1.18181,27.10777.956,40.64768-.16048,9.62122-6.909,14.01823-15.73287,13.93472-8.80014-.08311-15.439-4.56823-15.59367-14.17048C308.8922,873.04853,309.60891,859.483,309.92593,845.92382Z" transform="translate(-253.95483 -316.67901)"/><path class="cls-1" d="M258.69034,931.25779q-2.08347-2.12147-4.16582-4.24385-.284-10.44248-.56969-20.88278c13.38324-9.25214,28.01815-8.11881,43.02669-5.63486,10.79433,1.78655,13.92792,8.38745,13.17515,18.15278-.73188,9.49359-6.226,14.002-15.40573,13.85686C282.72713,932.31588,270.71021,931.694,258.69034,931.25779Z" transform="translate(-253.95483 -316.67901)"/><path class="cls-2" d="M722.67594,725.057c.92966,10.13376,1.2371,20.02841-9.8319,25.55455C713.2086,740.97484,715.79153,732.18817,722.67594,725.057Z" transform="translate(-253.95483 -316.67901)"/><path class="cls-2" d="M733.66286,706.95984c2.93148,7.68125-.2658,11.74791-7.82444,13.24363C725.60531,714.10945,728.32378,709.75984,733.66286,706.95984Z" transform="translate(-253.95483 -316.67901)"/><path class="cls-2" d="M739.45752,698.6324c.56549,4.29558-.14945,7.7876-5.33055,8.47857C733.4094,702.71613,735.95359,700.37227,739.45752,698.6324Z" transform="translate(-253.95483 -316.67901)"/><path class="cls-2" d="M726.51225,720.17071c-.03742,2.71688-1.2518,4.5073-4.00441,5.08752C722.57968,722.56984,722.77391,719.97671,726.51225,720.17071Z" transform="translate(-253.95483 -316.67901)"/><path class="cls-1" d="M525.7907,713.15017q1.85733-2.36372,3.71537-4.72665,10.51335.01516,21.02461.02961,2.00694,2.22458,4.01387,4.44829c13.79107,29.85367,27.50959,59.74062,41.39588,89.54945,14.89777,31.9799,15.67469,63.45645-2.865,94.38377-32.05074,28.68516-60.40319,33.318-88.616,14.47779-28.81794-19.24441-40.83781-56.8004-26.362-93.19635C492.28408,782.44715,509.759,748.08552,525.7907,713.15017Zm13.44851,55.09723c-12.83692,25.00189-23.85661,46.61333-29.75843,70.21346-4.11223,16.44435-.14321,31.73922,14.50359,41.83687,10.17375,7.014,22.21253,7.403,32.3212.23956,14.41705-10.21674,17.597-25.14922,13.81288-42.0031C564.72073,814.49316,553.11269,793.26308,539.23921,768.2474Z" transform="translate(-253.95483 -316.67901)"/><path class="cls-2" d="M1266.31144,544.48687c-6.15475-2.94968-5.48367-8.25625-4.69519-13.60766C1266.86394,534.14352,1265.74648,539.605,1266.31144,544.48687Z" transform="translate(-253.95483 -316.67901)"/><path class="cls-2" d="M1257.745,522.84237c-4.37383-1.42137-5.21051-4.92212-5.2352-8.9029C1256.05365,515.84812,1257.34367,519.08407,1257.745,522.84237Z" transform="translate(-253.95483 -316.67901)"/><path class="cls-2" d="M1262.22915,531.34684c-4.73695-1.3804-5.3358-5.01222-4.98529-9.1656C1261.16213,524.00714,1261.67824,527.68643,1262.22915,531.34684Z" transform="translate(-253.95483 -316.67901)"/><path class="cls-2" d="M1252.86346,514.44507q-2.301-2.58489-4.60615-5.17126Q1250.55618,511.85812,1252.86346,514.44507Z" transform="translate(-253.95483 -316.67901)"/><path class="cls-2" d="M1191.71171,652.32466c17.861,2.63745,35.08826-4.24365,52.82721-3.51145C1227.2063,654.099,1210.4716,668.4573,1191.71171,652.32466Z" transform="translate(-253.95483 -316.67901)"/><path class="cls-1" d="M1376.19091,317.62313q2.34241,1.87083,4.6839,3.74271,1.69746,2.47194,3.39282,4.9446c.395,12.01885,1.14938,24.03562,1.11838,36.05036-.06172,23.93281-4.46694,27.76851-29.143,26.51646q-2.25336-1.93461-4.50857-3.866c-6.31183-21.10567-2.34208-42.145.40461-63.19076C1359.63968,317.45758,1367.52532,315.30782,1376.19091,317.62313Z" transform="translate(-253.95483 -316.67901)"/><path class="cls-2" d="M813.00034,638.2243c-1.15817,4.61379-4.62375,5.37527-8.65955,5.18574C806.01494,639.65837,809.41118,638.78043,813.00034,638.2243Z" transform="translate(-253.95483 -316.67901)"/><path class="cls-2" d="M799.92033,646.80463c-1.15673,4.751-4.727,5.303-8.76973,5.03777C792.93362,648.18146,795.9146,646.60125,799.92033,646.80463Z" transform="translate(-253.95483 -316.67901)"/><path class="cls-2" d="M782.4485,659.3517c-1.08516,4.49943-4.42283,5.5371-8.4606,5.5031C775.77959,661.44215,778.25865,659.08227,782.4485,659.3517Z" transform="translate(-253.95483 -316.67901)"/><path class="cls-2" d="M804.61132,643.20094q-2.50749,2.11715-5.01432,4.23709C799.59149,644.045,801.89863,643.38339,804.61132,643.20094Z" transform="translate(-253.95483 -316.67901)"/><path class="cls-2" d="M774.54788,664.59692q-3.13411,2.32827-6.274,4.65988Q771.40524,666.93021,774.54788,664.59692Z" transform="translate(-253.95483 -316.67901)"/><path class="cls-2" d="M786.92792,655.31308q-2.50868,2.33457-5.02088,4.67136C781.92017,656.6469,784.12987,655.66385,786.92792,655.31308Z" transform="translate(-253.95483 -316.67901)"/><path class="cls-2" d="M791.62652,651.50351q-2.56422,2.26632-5.12949,4.53619C786.80447,652.9467,788.94063,651.91461,791.62652,651.50351Z" transform="translate(-253.95483 -316.67901)"/><path class="cls-1" d="M1598.85413,1132.96492c22.44465,4.63992,46.182,5.9012,64.68864,22.42629,4.22833,3.77544,9.15846,8.25569,5.18623,14.6045-3.127,4.99784-9.15952,4.38138-13.68687,2.82546-46.308-15.91605-91.48651-10.57551-136.16937,6.48063-4.72618,1.80408-10.647,4.08806-13.70591-.95193-4.04315-6.66169,2.79871-10.11636,6.87483-13.63575C1536.85848,1143.287,1567.4425,1137.657,1598.85413,1132.96492Z" transform="translate(-253.95483 -316.67901)"/><path class="cls-1" d="M331.59123,1271.54963c-2.4786-7.8027-.18038-13.345,6.71841-18.1638,29.4787-20.59051,97.10124-8.95605,117.11819,20.60639,1.07156,1.58258.71173,4.13389,1.021,6.23195l-.48742.46979c-40.886-11.28467-82.25181-16.12469-124.48733-9.21129Z" transform="translate(-253.95483 -316.67901)"/><path class="cls-2" d="M1186.27164,1594.13151c5.62839-21.61334,6.36343-43.65814,6.37394-65.85315q.09907-211.11879.41065-422.23778c.00316-9.23848-1.43014-18.47742-2.19959-27.7201,9.61246,8.46682,9.65659,19.94064,9.65659,31.32956-.0004,144.99142.20342,289.984-.413,434.97294C1200.02732,1561.76539,1201.15331,1580.53462,1186.27164,1594.13151Z" transform="translate(-253.95483 -316.67901)"/><path class="cls-2" d="M813.17172,1642.7317q148.45287.20207,296.90509.40441c-2.7576,8.27105-9.79251,7.10667-16.10853,7.10811q-135.46591.0319-270.93183-.04556c-5.073-.00158-10.07394-.26155-13.9855-4.16776l-.132.149Q811.04528,1644.45582,813.17172,1642.7317Z" transform="translate(-253.95483 -316.67901)"/><path class="cls-2" d="M733.74652,1086.88538c-.39792,16.41205-1.14255,32.8241-1.13874,49.23608q.04393,193.017.34434,386.0338c.02981,24.36542,1.37,48.59,8.88819,72.04361-14.21532-10.99292-14.36241-27.48671-14.40667-42.61969-.43482-148.583-.21038-297.168-.07341-445.75236C727.36667,1098.95439,725.57734,1091.15011,733.74652,1086.88538Z" transform="translate(-253.95483 -316.67901)"/><path class="cls-2" d="M753.8747,747.06616c-20.68238,67.40047-25.03179,136.13811-16.85775,205.901-11.3423-3.11433-9.57044-12.51917-9.91412-20.83617-2.262-54.76012,3.25546-108.9062,13.89936-162.52281C742.64587,761.32848,742.33738,750.37554,753.8747,747.06616Z" transform="translate(-253.95483 -316.67901)"/><path class="cls-2" d="M1190.19108,952.573c6.23776-49.07923,2.24595-97.88957-3.91367-146.63524-1.23644-9.78528-2.74184-19.53655-4.12576-29.3022,14.57438,15.67361,12.35811,36.65973,13.16,54.708,1.60284,36.06822,5.58887,72.38341.90655,108.61C1195.56891,944.97705,1195.84469,950.09215,1190.19108,952.573Z" transform="translate(-253.95483 -316.67901)"/><path class="cls-2" d="M1204.26667,520.32562c-35.869-12.94826-73.32428-4.74207-109.88511-8.24745,1.256-1.64349,2.45437-4.67054,3.73992-4.708,30.63392-.89167,61.35386-4.86638,91.81194,2.27062C1196.44236,511.166,1202.63533,512.52867,1204.26667,520.32562Z" transform="translate(-253.95483 -316.67901)"/><path class="cls-2" d="M1019.30932,596.128q-57.45452.01885-114.90075.03739C942.7121,589.17645,981.00972,589.729,1019.30932,596.128Z" transform="translate(-253.95483 -316.67901)"/><path class="cls-2" d="M1093.583,536.09374c27.32462,1.79564,55.7013-6.94931,81.69873,8.15091C1147.92818,542.74164,1120.41524,542.82742,1093.583,536.09374Z" transform="translate(-253.95483 -316.67901)"/><path class="cls-2" d="M1239.18749,595.56411q-7.11509-27.37209-14.2345-54.74931C1236.98908,557.16507,1248.41267,573.68085,1239.18749,595.56411Z" transform="translate(-253.95483 -316.67901)"/><path class="cls-2" d="M1164.72237,1044.6317c-17.48129-15.51145-16.00623-33.6981-7.46448-52.88C1155.94751,1009.91562,1160.69327,1027.22314,1164.72237,1044.6317Z" transform="translate(-253.95483 -316.67901)"/><path class="cls-2" d="M856.953,657.04533a49.29816,49.29816,0,0,1-25.93033,13.611C837.19111,661.41123,845.19048,655.64507,856.953,657.04533Z" transform="translate(-253.95483 -316.67901)"/><path class="cls-2" d="M900.105,597.58083c.36075,10.81383-.56064,21.23743-8.94874,29.38985C891.32594,616.31914,892.61465,606.00629,900.105,597.58083Z" transform="translate(-253.95483 -316.67901)"/><path class="cls-2" d="M1032.30751,622.63427c-6.08989-5.80706-9.3108-12.63649-7.569-21.22522C1037.45761,604.85419,1031.61082,614.91094,1032.30751,622.63427Z" transform="translate(-253.95483 -316.67901)"/><path class="cls-2" d="M818.27941,678.43862c-3.18625,4.84317-7.95131,7.42639-13.24824,9.25508C806.80986,680.841,811.344,677.9226,818.27941,678.43862Z" transform="translate(-253.95483 -316.67901)"/><path class="cls-2" d="M891.60422,626.65825c-1.16986,4.60591-2.58215,9.00273-8.32979,9.66291C883.31724,630.747,886.431,627.81587,891.60422,626.65825Z" transform="translate(-253.95483 -316.67901)"/><path class="cls-2" d="M1183.01237,775.23609c-5.09981-4.04571-4.32144-9.96713-4.93106-15.45158C1183.88569,763.60413,1182.864,769.60669,1183.01237,775.23609Z" transform="translate(-253.95483 -316.67901)"/><path class="cls-2" d="M1221.81179,536.67255q-4.173-4.64783-8.3466-9.29632C1218.96489,528.03516,1221.91974,530.97949,1221.81179,536.67255Z" transform="translate(-253.95483 -316.67901)"/><path class="cls-2" d="M796.30976,1640.55039q6.31079.94891,12.62168,1.8977.04965,1.86612-.01247,3.73184l.132-.149C804.14327,1645.73981,798.89874,1646.231,796.30976,1640.55039Z" transform="translate(-253.95483 -316.67901)"/><path class="cls-2" d="M1174.85567,543.76107a13.00084,13.00084,0,0,1,10.49116,5.03536C1181.13308,548.62374,1176.88375,548.5056,1174.85567,543.76107Z" transform="translate(-253.95483 -316.67901)"/><path class="cls-2" d="M1036.91353,631.04095c-3.61241-1.79994-4.77425-5.0176-5.06212-8.74518C1036.37561,623.56611,1037.02765,627.08183,1036.91353,631.04095Z" transform="translate(-253.95483 -316.67901)"/><path class="cls-2" d="M1062.50463,653.41289c-3.88359-.141-6.95545-1.58947-8.599-5.33857C1057.93985,647.97315,1061.28277,648.98574,1062.50463,653.41289Z" transform="translate(-253.95483 -316.67901)"/><path class="cls-2" d="M865.25313,652.3976c-1.71316,3.74025-5.01222,4.70846-8.712,4.98242C857.80414,652.85512,861.26053,652.15778,865.25313,652.3976Z" transform="translate(-253.95483 -316.67901)"/><path class="cls-2" d="M1075.79581,661.35135q-4.47954-2.37671-8.95976-4.75421C1070.5371,656.83473,1074.02317,657.47915,1075.79581,661.35135Z" transform="translate(-253.95483 -316.67901)"/><path class="cls-2" d="M1084.33678,665.79747q-4.52015-2.37386-9.04185-4.7485C1079.13046,661.06558,1082.56163,661.85555,1084.33678,665.79747Z" transform="translate(-253.95483 -316.67901)"/><path class="cls-2" d="M1092.93684,671.05057q-4.56762-2.81779-9.13771-5.63623C1087.94485,665.50723,1091.39664,666.72971,1092.93684,671.05057Z" transform="translate(-253.95483 -316.67901)"/><path class="cls-2" d="M826.5547,673.86277l-8.84065,4.97448C819.15575,674.51015,822.7059,673.9212,826.5547,673.86277Z" transform="translate(-253.95483 -316.67901)"/><path class="cls-2" d="M1114.11721,683.56717q-4.27686-2.7201-8.55449-5.44092C1109.4882,678.25119,1113.02864,678.98253,1114.11721,683.56717Z" transform="translate(-253.95483 -316.67901)"/><path class="cls-2" d="M1121.6023,688.61642c-3.98629.08233-6.3834-2.20638-8.14488-5.451C1117.712,682.67492,1121.33334,683.13913,1121.6023,688.61642Z" transform="translate(-253.95483 -316.67901)"/><path class="cls-2" d="M800.76016,691.05948c-1.86457,3.329-4.34363,5.68514-8.51483,5.36949C793.559,692.22523,796.807,691.08272,800.76016,691.05948Z" transform="translate(-253.95483 -316.67901)"/><path class="cls-2" d="M1147.45409,709.9952c-4.42479.25052-6.38077-3.06752-8.63145-5.96829C1143.03889,704.0745,1147.01086,704.4839,1147.45409,709.9952Z" transform="translate(-253.95483 -316.67901)"/><path class="cls-2" d="M1152.90861,717.41949c-3.10968-1.469-5.62616-3.43438-6.0183-7.16707C1152.49874,709.61521,1152.76416,713.46647,1152.90861,717.41949Z" transform="translate(-253.95483 -316.67901)"/><path class="cls-2" d="M767.61239,722.06558c.73792,4.32834-1.56069,6.79969-5.17611,8.4703C761.69625,726.211,762.49616,722.82135,767.61239,722.06558Z" transform="translate(-253.95483 -316.67901)"/><path class="cls-2" d="M762.72651,730.04422c-.27907,3.71215-1.2237,7.04168-5.02128,8.7329C757.27632,734.65886,757.92915,731.16061,762.72651,730.04422Z" transform="translate(-253.95483 -316.67901)"/><path class="cls-2" d="M758.03591,738.36444c-.26357,3.66889-.9512,7.11685-4.67982,8.98212C753.14176,743.42906,753.53193,739.82537,758.03591,738.36444Z" transform="translate(-253.95483 -316.67901)"/><path class="cls-2" d="M1174.283,749.60572c-3.58784-2.83341-4.86421-6.72183-5.06395-11.10846C1173.54621,740.9948,1174.24894,745.14818,1174.283,749.60572Z" transform="translate(-253.95483 -316.67901)"/><path class="cls-2" d="M1178.50865,760.5909c-3.67806-2.14769-3.65653-5.885-4.05747-9.439C1178.20726,753.2664,1178.64155,756.8068,1178.50865,760.5909Z" transform="translate(-253.95483 -316.67901)"/><path class="cls-2" d="M736.47115,952.48412c3.21567,1.72648,5.40475,4.16645,5.57928,8.00661C736.49624,960.40027,736.21835,956.62746,736.47115,952.48412Z" transform="translate(-253.95483 -316.67901)"/><path class="cls-2" d="M745.91669,964.392c3.97027.11233,6.25693,2.43551,7.70468,5.86365C749.37058,970.51354,745.91879,969.71877,745.91669,964.392Z" transform="translate(-253.95483 -316.67901)"/><path class="cls-2" d="M761.92279,978.73122c3.8354,1.62189,5.03651,4.86359,5.334,8.66731C762.74883,986.19385,761.659,982.87908,761.92279,978.73122Z" transform="translate(-253.95483 -316.67901)"/><path class="cls-2" d="M1156.5788,992.00661a13.045,13.045,0,0,1,5.20251-10.78133C1161.627,985.57752,1161.42948,989.91446,1156.5788,992.00661Z" transform="translate(-253.95483 -316.67901)"/><path class="cls-2" d="M766.65646,986.947c4.18643,1.77913,4.21047,5.66571,4.71555,9.31017C767.01433,994.56514,766.301,991.02665,766.65646,986.947Z" transform="translate(-253.95483 -316.67901)"/><path class="cls-2" d="M1170.256,1052.69267c-3.63381-1.40006-6.83884-3.102-5.5953-7.93531C1169.67864,1045.17772,1170.76,1048.37582,1170.256,1052.69267Z" transform="translate(-253.95483 -316.67901)"/><path class="cls-2" d="M1177.84322,1058.43959c-3.9859-.123-6.33389-2.3839-7.71452-5.90842C1174.36451,1052.328,1177.57873,1053.459,1177.84322,1058.43959Z" transform="translate(-253.95483 -316.67901)"/><path class="cls-2" d="M1187.078,1070.44452c-3.25506-1.82082-5.41657-4.3699-5.52859-8.288C1186.786,1062.65088,1187.39369,1066.23953,1187.078,1070.44452Z" transform="translate(-253.95483 -316.67901)"/><path class="cls-2" d="M1191.42082,1078.961q-2.38811-4.59636-4.77963-9.19672C1191.12915,1071.32174,1191.6249,1074.9595,1191.42082,1078.961Z" transform="translate(-253.95483 -316.67901)"/><path class="cls-2" d="M1181.60757,1602.50563q2.63238-4.53521,5.26383-9.07658C1187.17713,1597.64434,1186.18141,1601.11122,1181.60757,1602.50563Z" transform="translate(-253.95483 -316.67901)"/><path class="cls-2" d="M1049.77619,644.19765c-2.89917-.2068-4.57674-1.64133-4.678-4.66Q1047.44062,641.864,1049.77619,644.19765Z" transform="translate(-253.95483 -316.67901)"/><path class="cls-2" d="M878.97532,640.0658c.40212,3.63586-1.536,4.83064-4.82586,4.62055Q876.55786,642.3765,878.97532,640.0658Z" transform="translate(-253.95483 -316.67901)"/><path class="cls-2" d="M1045.43939,639.87141c-3.01421-.0818-4.43963-1.76-4.66394-4.64556Q1043.10958,637.54564,1045.43939,639.87141Z" transform="translate(-253.95483 -316.67901)"/><path class="cls-2" d="M883.32,635.77659c.42012,3.49924-1.19336,5.01124-4.63491,4.742A4.89392,4.89392,0,0,1,883.32,635.77659Z" transform="translate(-253.95483 -316.67901)"/><path class="cls-2" d="M1041.20174,635.42864c-3.02039-.10878-4.16306-2.02046-4.51029-4.6971Q1038.94679,633.07882,1041.20174,635.42864Z" transform="translate(-253.95483 -316.67901)"/><path class="cls-2" d="M1225.69617,541.65378q-2.11429-2.75639-4.2303-5.516Q1223.57958,538.89247,1225.69617,541.65378Z" transform="translate(-253.95483 -316.67901)"/><path class="cls-2" d="M1213.56828,527.4664q-2.40348-2.15042-4.80616-4.30359Q1211.16579,525.31184,1213.56828,527.4664Z" transform="translate(-253.95483 -316.67901)"/><path class="cls-2" d="M1209.18447,523.58563q-2.71866-2.113-5.44113-4.23058Q1206.46043,521.46588,1209.18447,523.58563Z" transform="translate(-253.95483 -316.67901)"/><path class="cls-2" d="M1182.2885,1062.433c-3.20372.10734-4.74116-1.47352-4.71647-4.64392Q1182.01041,1057.98866,1182.2885,1062.433Z" transform="translate(-253.95483 -316.67901)"/><path class="cls-2" d="M757.57811,974.25588c2.82864.37651,4.3108,2.0376,4.608,4.8309Q759.88171,976.67363,757.57811,974.25588Z" transform="translate(-253.95483 -316.67901)"/><path class="cls-2" d="M753.16028,970.06915c2.7375.35911,4.45644,1.76987,4.77359,4.62817Q755.54438,972.38659,753.16028,970.06915Z" transform="translate(-253.95483 -316.67901)"/><path class="cls-2" d="M741.31185,960.50688c3.24469-.26864,4.69756,1.3207,4.65054,4.4691C742.94136,965.02364,741.39708,963.52648,741.31185,960.50688Z" transform="translate(-253.95483 -316.67901)"/><path class="cls-2" d="M1169.81036,739.50112l-4.13128-5.46515Q1167.74452,736.76809,1169.81036,739.50112Z" transform="translate(-253.95483 -316.67901)"/><path class="cls-2" d="M1161.7536,727.9008q-2.49547-3.3737-4.989-6.753Q1159.26108,724.51877,1161.7536,727.9008Z" transform="translate(-253.95483 -316.67901)"/><path class="cls-2" d="M1157.27956,721.96244q-2.34733-2.55022-4.696-5.104Q1154.93012,719.4069,1157.27956,721.96244Z" transform="translate(-253.95483 -316.67901)"/><path class="cls-2" d="M771.27115,717.29633c.31334,3.17919-.6263,5.26524-4.31868,4.95241C766.99331,719.38159,768.53732,717.82088,771.27115,717.29633Z" transform="translate(-253.95483 -316.67901)"/><path class="cls-2" d="M775.39428,712.82644c.02994,3.11617-1.13453,5.08018-4.634,4.79453Q773.07236,715.22151,775.39428,712.82644Z" transform="translate(-253.95483 -316.67901)"/><path class="cls-2" d="M779.748,708.497c-.22115,3.00174-1.58563,4.82709-4.848,4.7013Q777.31861,710.84391,779.748,708.497Z" transform="translate(-253.95483 -316.67901)"/><path class="cls-2" d="M784.039,704.16989c-.203,3.04015-1.79786,4.66356-4.87537,4.78009Q781.59625,706.55721,784.039,704.16989Z" transform="translate(-253.95483 -316.67901)"/><path class="cls-2" d="M788.45892,699.97147c-.1962,3.09812-1.95992,4.57368-4.95469,4.7791Q785.97665,702.36017,788.45892,699.97147Z" transform="translate(-253.95483 -316.67901)"/><path class="cls-2" d="M1135.83247,701.42846c-2.31621-1.4067-4.896-2.61907-4.46406-6.053Q1133.6005,698.401,1135.83247,701.42846Z" transform="translate(-253.95483 -316.67901)"/><path class="cls-2" d="M792.89212,695.84869c-.03507,3.26447-1.99761,4.53074-4.95351,4.77351Q790.41064,698.23692,792.89212,695.84869Z" transform="translate(-253.95483 -316.67901)"/><path class="cls-2" d="M1131.28856,696.162c-2.88052-.078-4.81877-1.24986-5.08286-4.37161C1129.09672,691.85063,1130.85558,693.23481,1131.28856,696.162Z" transform="translate(-253.95483 -316.67901)"/><path class="cls-2" d="M1126.80835,692.13871c-2.92714.16852-5.02968-.6894-5.09665-4.08334C1124.666,687.84562,1126.223,689.38467,1126.80835,692.13871Z" transform="translate(-253.95483 -316.67901)"/><path class="cls-2" d="M805.585,686.9338q-2.60775,2.19286-5.2176,4.38559Q802.97413,689.12644,805.585,686.9338Z" transform="translate(-253.95483 -316.67901)"/><path class="cls-2" d="M1105.98336,678.35255q-3.42487-2.26287-6.85211-4.52963Q1102.55494,676.08393,1105.98336,678.35255Z" transform="translate(-253.95483 -316.67901)"/><path class="cls-2" d="M831.46054,670.0557c-.22129,3.32671-2.65451,3.79933-5.24966,4.06534Q828.834,672.0883,831.46054,670.0557Z" transform="translate(-253.95483 -316.67901)"/><path class="cls-2" d="M1067.21677,656.84654c-2.56534-.39633-4.90624-1.06432-5.15655-4.26531Q1064.64079,654.7088,1067.21677,656.84654Z" transform="translate(-253.95483 -316.67901)"/><path class="cls-2" d="M869.98588,648.28853c-.1685,3.17086-2.27734,4.08754-4.9958,4.29716Q867.48673,650.43675,869.98588,648.28853Z" transform="translate(-253.95483 -316.67901)"/><path class="cls-2" d="M1054.2434,648.3012c-2.65346-.39849-4.55284-1.56721-4.65921-4.56625Q1051.91753,646.01545,1054.2434,648.3012Z" transform="translate(-253.95483 -316.67901)"/><path class="cls-2" d="M874.53293,644.2266c.20067,3.4894-2.01481,4.40214-4.90794,4.59653Q872.07476,646.52489,874.53293,644.2266Z" transform="translate(-253.95483 -316.67901)"/><path class="cls-1" d="M382.97877,595.61355q2.58126,2.49892,5.164,4.99922c-1.60974,15.83853,4.70071,29.15,13.0412,41.94605,3.07672,4.7204,6.93858,10.81665.98,15.21438-5.42143,4.00127-10.81219-.75557-15.14775-4.23236C371.96762,641.47315,370.2429,615.04336,382.97877,595.61355Z" transform="translate(-253.95483 -316.67901)"/><path class="cls-6" d="M1149.04288,951.48085q-8.25151,9.78151-16.50067,19.5598c-3.92023,1.76672-4.62021,5.15685-4.50464,8.957l.38636-.602c-5.69537,3.1763-4.71909,8.45435-4.28335,13.56183,0,0,.76564-.35012.75579-.34847-9.29045,14.03759-10.13356,28.0123.29417,41.90534,0,0-.68855-.4677-.69327-.46186-.79085,3.97711-.77693,7.64239,3.66953,9.61315l-.42117-.47813c-.1199,5.16151-.73727,10.54223,5.6896,12.78991,0,0-.68631-.77383-.68526-.76733q2.23623,2.64831,4.4701,5.28362s-.86308-.4948-.85862-.493q2.31267,2.559,4.616,5.11444l-.334-.47091c.16626,3.97829.99677,7.47031,5.85,8.03353,0,0-.74988-.37-.74948-.36312a5.08053,5.08053,0,0,0,4.61849,4.96266l-.57114-.20312q1.96341,2.6871,3.9201,5.37185l-.43771-.41714q2.57507,2.23323,5.146,4.46942l-.34959-.442q-.08392,240.45966-.16429,480.912c-3.78576,16.90423-13.57774,28.98367-29.22387,36.363-5.3513-.019-10.99375-.78793-13.89252,5.44309l.1392-.9736q-153.43416.11325-306.875.21941c-10.85047-1.02284-18.76015-6.812-24.95207-15.38994-13.19006-28.43535-17.28811-58.27747-17.18186-89.5786.46686-137.42027-.06895-274.84395-.24125-412.26632,0,0-.76616.06926-.76511.065,4.29793-1.56819,5.18846-5.00946,4.9891-9.05143l-.32858.553q2.34951-2.55475,4.69625-5.103s-.60161.65926-.59964.65512q2.45253-2.499,4.90137-4.98957s-.62052.68664-.61828.68237q2.4543-2.512,4.90439-5.01557s-.64534.7129-.64284.70837q2.42848-2.57553,4.85186-5.14182s-.82381.63032-.81777.6292c7.13734-1.62026,9.59657-6.47459,9.21585-13.29555,0,0-.4167.59289-.41276.59118,4.29425-1.67264,4.91464-5.22046,4.7057-9.19245,0,0-.44375.67593-.43968.673,13.47819-18.55679,13.5403-41.10539.17085-60.55542l.46188-1.06052c.03756-4.54728-.71823-8.6874-5.491-10.78165,0,0,.62406.899.6217.89258q-2.16552-2.73684-4.326-5.46088s.38189.62874.38294.6244c.32084-4.24365-.35471-7.81051-5.59911-8.29087,0,0,.85835.23155.85862.22492-.18386-2.91522-1.78185-4.50744-4.60891-4.95531,0,0-.2272.77829-.22.76929,1.61007-9.922-2.83994-14.17612-12.58858-13.47654l.48263-.2068q-1.82137-34.96975-3.64839-69.93209l-.1769.289q2.2916-2.35091,4.5837-4.69953l-.36049.24c4.07454.08679,7.29992-1.10687,8.3743-5.54714l-.50232.72064q2.59554-2.26779,5.1874-4.52883l-.48919.35832c7.96733,1.07489,14.671-.35,17.7555-8.94962l-.22746.58088c19.88983,2.05466,38.97658-5.536,59.04475-4.261,17.01994,1.08126,32.385,11.08444,49.86908,7.91135,0,0-.37232-.70016-.37021-.69064,2.09387,6.77356,7.55,5.98542,12.782,5.70037l-.38308-.36522c1.6907,4.41967,5.40554,4.63552,9.29859,4.482l-.57718-.47209c1.54361,4.46975,5.2,4.927,9.14966,4.82893l-.58283-.43264c1.60114,4.27333,5.21328,4.78737,9.06312,4.85788l-.514-.39148c1.65248,4.17269,5.25385,4.63907,9.03764,4.75941l-.48486-.30941c1.76713,3.94054,5.27631,4.51373,9.00494,4.66329l-.36627-.30653c3.13227,8.48632,10.15969,9.15707,17.691,8.8174l-.46805-.3297c1.82413,4.17006,5.49576,4.43476,9.30581,4.40732l-.55-.41767c1.89728,4.33642,5.50758,4.693,9.52421,4.10749,0,0-.53516-.56551-.53319-.55665,24.25854,21.19207,81.5959,23.80654,106.85449,4.88106l-.355.6353c14.61023.35339,28.25612-1.24822,34.842-17.17l-.24847.20792c12.28928-.18192,18.27069,5.3628,17.82024,18.1489-.45045,12.7905.05739,25.61461.14512,38.424l.21708-.27987q-2.2843,2.5203-4.57529,5.03284l.00381-.85379Q1151.32606,948.16071,1149.04288,951.48085ZM824.3337,1498.09578l-.06672.47964c9.54352-3.05012,8.9968-11.50854,10.54357-19.08895,4.59643-22.52549,2.5912-45.55111,5.058-68.10693,9.52617-87.10451.37651-173.61907-6.69005-260.19219-.51769-6.342.96972-16.60927-9.31316-19.6305q-5.5238-.3163-11.04747-.63248c-5.04163.55061-7.52318,3.38579-7.87251,8.425-2.95879,42.66708-7.60171,85.294-8.57261,128.0048-1.479,65.06587-1.69726,130.24006,4.495,195.15362,1.21622,12.74868-1.40874,27.74353,12.90758,36.187q4.423.42837,8.846.85661C825.5859,1501.88079,824.36115,1499.28432,824.3337,1498.09578Z" transform="translate(-253.95483 -316.67901)"/><path class="cls-2" d="M1157.90586,1566.9682q.08136-240.45416.16429-480.912c4.10868,2.04843,4.22937,5.82484,4.18669,9.66021q.33686,3.55469.67712,7.1311c.62328,20.67776,1.75282,41.3546,1.78657,62.03334q.29786,182.26577.08326,364.53219c-.00617,7.7574-1.27255,15.51349-1.95059,23.26249a4.14431,4.14431,0,0,0-.59662,2.72528C1162.11028,1559.7469,1162.08454,1564.13814,1157.90586,1566.9682Z" transform="translate(-253.95483 -316.67901)"/><path class="cls-2" d="M765.67847,1090.78529c.1723,137.42237.70811,274.846.24125,412.26632-.10625,31.30113,3.9918,61.14325,17.18186,89.5786-16.178-13.16425-21.4836-31.76252-21.55058-50.94-.50941-145.85754-.27513-291.71772-.13145-437.5769C761.42414,1099.46154,759.97561,1093.83791,765.67847,1090.78529Z" transform="translate(-253.95483 -316.67901)"/><path class="cls-2" d="M808.05365,1608.02015q153.43929-.10793,306.875-.21941c-4.59564,6.49836-11.66115,4.57125-17.7207,4.58556q-133.21411.31277-266.42889.07406C823.07756,1612.44618,814.89183,1613.21206,808.05365,1608.02015Z" transform="translate(-253.95483 -316.67901)"/><path class="cls-2" d="M1105.75511,900.69142c-25.25859,18.92548-82.596,16.311-106.85449-4.88106C1034.06571,907.30111,1069.65918,909.482,1105.75511,900.69142Z" transform="translate(-253.95483 -316.67901)"/><path class="cls-2" d="M1157.56349,872.848q3.56709,1.945,7.1359,3.89255c-2.2864,21.39657,6.46652,43.94977-6.73995,64.19738-.08812-12.8098-.596-25.63391-.14551-38.42441.45045-12.7861-5.531-18.33082-17.82024-18.14884Q1148.77865,878.606,1157.56349,872.848Z" transform="translate(-253.95483 -316.67901)"/><path class="cls-2" d="M908.87329,853.45827c-17.48405,3.17309-32.84914-6.83009-49.86908-7.91135-20.06817-1.27493-39.15492,6.31571-59.04475,4.261C836.8251,834.29776,873.10055,836.37974,908.87329,853.45827Z" transform="translate(-253.95483 -316.67901)"/><path class="cls-2" d="M765.81492,871.34424q1.82569,34.96424,3.64839,69.93209C755.02118,918.65715,759.73213,895.03641,765.81492,871.34424Z" transform="translate(-253.95483 -316.67901)"/><path class="cls-2" d="M799.48918,982.99771c13.36945,19.45,13.30734,41.99863-.17085,60.55542C805.07937,1023.38646,805.40072,1003.20108,799.48918,982.99771Z" transform="translate(-253.95483 -316.67901)"/><path class="cls-2" d="M1140.24216,884.15673c-6.58591,15.92177-20.2318,17.52338-34.842,17.17C1116.01724,893.58205,1127.36964,887.32772,1140.24216,884.15673Z" transform="translate(-253.95483 -316.67901)"/><path class="cls-2" d="M1125.19054,1034.5143c-10.42773-13.893-9.58462-27.86775-.29417-41.90534Q1125.05338,1013.56,1125.19054,1034.5143Z" transform="translate(-253.95483 -316.67901)"/><path class="cls-2" d="M768.98068,941.48313c9.74864-.69958,14.19865,3.55458,12.58858,13.47654C775.85865,951.88139,771.4009,947.63235,768.98068,941.48313Z" transform="translate(-253.95483 -316.67901)"/><path class="cls-2" d="M800.18692,849.22709c-3.08447,8.59963-9.78817,10.02451-17.7555,8.94962C787.0247,852.568,793.11774,849.92936,800.18692,849.22709Z" transform="translate(-253.95483 -316.67901)"/><path class="cls-2" d="M981.62184,888.59957c-7.53133.33967-14.55875-.33108-17.691-8.8174A35.99953,35.99953,0,0,1,981.62184,888.59957Z" transform="translate(-253.95483 -316.67901)"/><path class="cls-2" d="M795.46494,1051.48135c.38085,6.821-2.07838,11.67536-9.21572,13.29555Q790.85091,1058.13028,795.46494,1051.48135Z" transform="translate(-253.95483 -316.67901)"/><path class="cls-2" d="M1114.78947,1608.77434c2.89877-6.231,8.54122-5.46212,13.89252-5.44309C1124.94942,1607.4331,1120.19789,1608.94162,1114.78947,1608.77434Z" transform="translate(-253.95483 -316.67901)"/><path class="cls-2" d="M1133.43523,1055.97737c-6.42687-2.24768-5.8095-7.6284-5.6896-12.78991C1131.66009,1046.55224,1133.164,1050.99081,1133.43523,1055.97737Z" transform="translate(-253.95483 -316.67901)"/><path class="cls-2" d="M921.2851,858.468c-5.23205.28505-10.68815,1.07319-12.782-5.70037C913.28271,853.49681,918.22585,853.8743,921.2851,858.468Z" transform="translate(-253.95483 -316.67901)"/><path class="cls-2" d="M1124.14058,992.95743c-.43574-5.10748-1.412-10.38553,4.28335-13.56183C1127.61575,984.1097,1128.04532,989.21824,1124.14058,992.95743Z" transform="translate(-253.95483 -316.67901)"/><path class="cls-2" d="M930.20061,862.58481c-3.89305.15349-7.60789-.06236-9.29859-4.482C924.62408,858.30131,928.1443,858.925,930.20061,862.58481Z" transform="translate(-253.95483 -316.67901)"/><path class="cls-2" d="M778.23553,861.62658c-1.07438,4.44027-4.29976,5.63393-8.3743,5.54714A8.34259,8.34259,0,0,1,778.23553,861.62658Z" transform="translate(-253.95483 -316.67901)"/><path class="cls-2" d="M938.77309,866.94165c-3.94965.09808-7.606-.35918-9.14966-4.82893C933.26039,862.6049,936.75565,863.3742,938.77309,866.94165Z" transform="translate(-253.95483 -316.67901)"/><path class="cls-2" d="M947.25338,871.36689c-3.84984-.07051-7.462-.58455-9.06312-4.85788C941.81435,866.9983,945.242,867.86227,947.25338,871.36689Z" transform="translate(-253.95483 -316.67901)"/><path class="cls-2" d="M955.777,875.73482c-3.78379-.12034-7.38516-.58672-9.03764-4.75941Q951.25556,873.35341,955.777,875.73482Z" transform="translate(-253.95483 -316.67901)"/><path class="cls-2" d="M964.29709,880.0887c-3.72863-.14956-7.23781-.72275-9.00494-4.66329Q959.7922,877.75643,964.29709,880.0887Z" transform="translate(-253.95483 -316.67901)"/><path class="cls-2" d="M990.4596,892.67719c-3.81005.02744-7.48168-.23726-9.30581-4.40732Q985.80453,890.47208,990.4596,892.67719Z" transform="translate(-253.95483 -316.67901)"/><path class="cls-2" d="M999.43381,896.367c-4.01663.58548-7.62693.22893-9.52421-4.10749Q994.67006,894.31028,999.43381,896.367Z" transform="translate(-253.95483 -316.67901)"/><path class="cls-2" d="M785.53953,958.92077c5.2444.48036,5.91995,4.04722,5.59911,8.29087A9.9091,9.9091,0,0,1,785.53953,958.92077Z" transform="translate(-253.95483 -316.67901)"/><path class="cls-2" d="M794.46,971.15554c4.7728,2.09425,5.52859,6.23437,5.491,10.78165C795.94336,979.45357,794.814,975.50186,794.46,971.15554Z" transform="translate(-253.95483 -316.67901)"/><path class="cls-2" d="M1128.03757,979.99761c-.11557-3.80011.58441-7.19024,4.50464-8.957Q1130.28746,975.52218,1128.03757,979.99761Z" transform="translate(-253.95483 -316.67901)"/><path class="cls-2" d="M1128.1668,1043.66559c-4.44646-1.97076-4.46038-5.636-3.66953-9.61315C1127.97348,1036.396,1127.79422,1040.136,1128.1668,1043.66559Z" transform="translate(-253.95483 -316.67901)"/><path class="cls-2" d="M799.758,1042.88015c.20894,3.972-.41145,7.51981-4.7057,9.19245Q797.40122,1047.478,799.758,1042.88015Z" transform="translate(-253.95483 -316.67901)"/><path class="cls-2" d="M1146.49344,1072.67769c-4.85318-.56322-5.68369-4.05524-5.85-8.03353C1143.72927,1066.49353,1146.19007,1068.80056,1146.49344,1072.67769Z" transform="translate(-253.95483 -316.67901)"/><path class="cls-2" d="M769.90246,1081.79885c.19936,4.042-.69117,7.48324-4.9891,9.05143C764.69168,1086.7982,766.22623,1083.70869,769.90246,1081.79885Z" transform="translate(-253.95483 -316.67901)"/><path class="cls-6" d="M1162.93409,1102.84753q-.3396-3.57093-.67712-7.1311Q1162.59717,1099.29288,1162.93409,1102.84753Z" transform="translate(-253.95483 -316.67901)"/><path class="cls-6" d="M808.919,1646.17993q.062-1.86573.01247-3.73184,2.1212.14179,4.24133.28374Q811.04489,1644.45575,808.919,1646.17993Z" transform="translate(-253.95483 -316.67901)"/><path class="cls-6" d="M1162.25658,1555.40083a4.14431,4.14431,0,0,1,.59662-2.72528Q1164.09817,1554.32777,1162.25658,1555.40083Z" transform="translate(-253.95483 -316.67901)"/><path class="cls-2" d="M1158.41974,1086.49824q-2.5721-2.23539-5.146-4.46942Q1155.84463,1084.265,1158.41974,1086.49824Z" transform="translate(-253.95483 -316.67901)"/><path class="cls-2" d="M1153.71141,1082.446q-1.95847-2.68533-3.9201-5.37185C1153.31008,1077.24775,1153.117,1080.13428,1153.71141,1082.446Z" transform="translate(-253.95483 -316.67901)"/><path class="cls-2" d="M774.27013,1077.24887q-2.34753,2.54984-4.69625,5.103Q771.92063,1079.80366,774.27013,1077.24887Z" transform="translate(-253.95483 -316.67901)"/><path class="cls-2" d="M1150.36245,1077.27723a5.08053,5.08053,0,0,1-4.61849-4.96266C1148.88227,1072.47857,1150.47067,1074.08976,1150.36245,1077.27723Z" transform="translate(-253.95483 -316.67901)"/><path class="cls-2" d="M778.57186,1072.91442q-2.44977,2.49262-4.90137,4.98957Q776.11927,1075.41335,778.57186,1072.91442Z" transform="translate(-253.95483 -316.67901)"/><path class="cls-2" d="M782.858,1068.58122q-2.45115,2.50562-4.90439,5.01557Q780.40355,1071.09325,782.858,1068.58122Z" transform="translate(-253.95483 -316.67901)"/><path class="cls-2" d="M787.06686,1064.14771q-2.42456,2.56865-4.85173,5.14182Q784.6385,1066.72315,787.06686,1064.14771Z" transform="translate(-253.95483 -316.67901)"/><path class="cls-2" d="M1140.97745,1065.115q-2.30577-2.55623-4.616-5.11444Q1138.66506,1062.556,1140.97745,1065.115Z" transform="translate(-253.95483 -316.67901)"/><path class="cls-2" d="M1137.22007,1060.49366q-2.23446-2.63856-4.4701-5.28362Q1134.98383,1057.84536,1137.22007,1060.49366Z" transform="translate(-253.95483 -316.67901)"/><path class="cls-2" d="M790.7557,966.58724q2.16177,2.72729,4.326,5.46088Q792.92115,969.32408,790.7557,966.58724Z" transform="translate(-253.95483 -316.67901)"/><path class="cls-2" d="M781.78924,954.19038c2.82706.44787,4.42505,2.04009,4.60891,4.95531C783.2161,959.0262,781.88221,957.18431,781.78924,954.19038Z" transform="translate(-253.95483 -316.67901)"/><path class="cls-2" d="M1149.04288,951.48085q2.28194-3.32109,4.56177-6.6441C1153.96527,948.34144,1151.53756,949.93412,1149.04288,951.48085Z" transform="translate(-253.95483 -316.67901)"/><path class="cls-2" d="M1153.60084,945.69054q2.28942-2.51448,4.57529-5.03284C1158.29577,943.82731,1156.60572,945.35546,1153.60084,945.69054Z" transform="translate(-253.95483 -316.67901)"/><path class="cls-2" d="M770.22172,866.9337q-2.292,2.34924-4.5837,4.69953Q767.9302,869.28479,770.22172,866.9337Z" transform="translate(-253.95483 -316.67901)"/><path class="cls-2" d="M782.92061,857.81839q-2.59278,2.26267-5.1874,4.52883C777.88082,859.03122,780.19493,858.18931,782.92061,857.81839Z" transform="translate(-253.95483 -316.67901)"/><path class="cls-1" d="M1493.24252,668.34747a6.66625,6.66625,0,0,0,2.51176,2.04154c1.57106,15.6998,4.32222,30.97051,14.83715,43.66411,3.263,3.939,6.256,8.62695,1.6672,13.16484-4.413,4.36419-9.276,1.37978-13.609-1.06235C1479.80321,715.53315,1476.88394,684.03053,1493.24252,668.34747Z" transform="translate(-253.95483 -316.67901)"/><path class="cls-1" d="M541.59337,868.28643a21.47886,21.47886,0,0,0-.60174,2.99715c-11.592,3.02413-19.44035-1.87524-22.284-12.73805-2.02526-7.73619-7.82918-18.10622,6.36974-21.71261q1.51278,2.52453,3.02931,5.052A71.39472,71.39472,0,0,0,541.59337,868.28643Z" transform="translate(-253.95483 -316.67901)"/><path class="cls-2" d="M824.267,1498.57542c17.82878-97.84966,13.58614-196.30015,7.86345-294.77007-1.408-24.22913-3.07055-48.47414-8.27463-72.2684,10.29247,3.04113,8.80506,13.30836,9.32275,19.6504,7.06656,86.57312,16.21622,173.08768,6.69005,260.19219-2.46685,22.55582-.46162,45.58144-5.058,68.10693C833.26378,1487.06688,833.8105,1495.5253,824.267,1498.57542Z" transform="translate(-253.95483 -316.67901)"/><path class="cls-2" d="M822.62146,1499.55138a1.75363,1.75363,0,0,1,1.72432-1.45613C824.36115,1499.28432,825.5859,1501.88079,822.62146,1499.55138Z" transform="translate(-253.95483 -316.67901)"/></svg>