<svg id="Capa_2" data-name="Capa 2" xmlns="http://www.w3.org/2000/svg" viewBox="0 0 1495.3078 1465.8228"><defs><style>.cls-1{fill:#48a697;}.cls-2{fill:#cee2d8;}.cls-3{fill:#d6d4e8;}.cls-4{fill:#343d7b;}.cls-5{fill:#2d4797;}</style></defs><path class="cls-1" d="M1686.60418,345.37328c14.287.7788,29.45513,9.85485,35.25869,29.755,5.754,19.72845-3.855,38.39076-22.90225,47.10257-32.75733,14.98244-66.10261-1.1924-99.20235.87234-5.89114.36747-8.02953-7.56921-6.04714-14.71488C1601.26224,381.17128,1650.79612,344.94264,1686.60418,345.37328Z" transform="translate(-252.3461 -267.0886)"/><path class="cls-1" d="M1145.12894,367.9862a5.72217,5.72217,0,0,0-1.50679,2.62175q-47.85531-17.74408-95.70923-35.50759l-.11235.30969q-2.381-2.37857-4.76-4.75463l.31059-.10477c-9.24374-18.08576-9.51688-36.18127-.04984-54.28515l-.07518.05292c34.5029-16.77673,55.96876-11.28057,77.12374,21.41108C1134.10527,318.98545,1144.24306,341.97245,1145.12894,367.9862Z" transform="translate(-252.3461 -267.0886)"/><path class="cls-1" d="M1603.29194,480.00693c22.05354-.822,39.51773,7.01152,51.68719,25.17558,9.18208,13.70561,7.68458,27.83746-1.92213,40.74048-9.56,12.84024-23.1906,15.60125-37.06537,9.59682-24.99446-10.81671-45.23935-28.75287-63.7457-48.25816-9.73371-10.25984-2.14037-17.26738,8.121-19.76625C1574.44815,484.06634,1588.963,482.4182,1603.29194,480.00693Z" transform="translate(-252.3461 -267.0886)"/><path class="cls-1" d="M1503.00744,375.24786c2.42984-21.41745,5.95647-40.10932,15.93347-57.02963,9.42284-15.97992,22.72541-24.45123,41.66908-22.31649,11.78424,1.32793,20.00244,7.90624,23.47894,19.06322,5.67854,18.22332-.70791,33.97864-14.58071,45.21135-14.746,11.93993-31.11256,22.04974-47.48306,31.75938C1508.86056,399.744,1501.91853,392.40308,1503.00744,375.24786Z" transform="translate(-252.3461 -267.0886)"/><path class="cls-2" d="M1043.04058,330.65535q2.37928,2.37682,4.76,4.75466Q1045.42171,333.03387,1043.04058,330.65535Z" transform="translate(-252.3461 -267.0886)"/><path class="cls-1" d="M466.085,750.86591c-1.62478-8.96154,1.48989-16.44438,6.6548-23.631,19.16472-26.66648,25.7373-57.06746,25.52245-89.2692-.21035-31.54147-.64513-63.04613,9.41072-93.56289,10.90231-33.08611,20.63349-37.54625,51.7697-23.35359,26.7834,12.20855,38.72308,8.3076,66.30564-23.61613,15.21091-17.605,5.53577-34.95758-3.494-51.01122-13.37213-23.77329-25.82374-27.27861-54.18939-20.89435-39.32654,8.85138-69.3195,27.42585-90.3182,64.208C446.18509,545.0199,405.327,594.68074,376.87292,652.12616c-22.65107,45.72942-27.02472,95.76611-35.49663,144.77583-2.38957,13.82385,2.41041,27.61012,17.66694,34.08845,86.42663,36.69834,172.35963,75.66909,270.26892,62.71469,21.28508-2.81619,42.73066-5.33037,63.57027-10.241,11.20333-2.64,15.84505-.56743,21.434,9.36547,35.84271,63.70527,104.85555,68.86271,147.0833,9.8269,32.60639-45.58415,62.3279-93.24841,92.7683-140.35207,8.69831-13.46039,19.07292-19.01092,37.05411-13.03795-15.09152,29.09409-29.80092,57.5845-44.63056,86.01233-27.65013,53.00527-56.21628,104.94746-71.4469,164.15162-8.49331,33.014-32.81,61.97124-50.07312,92.71343C814.1614,1111.573,802.13133,1130.449,792.439,1150.4615c-7.36019,15.197-15.95459,16.90547-31.14917,11.43707-55.6255-20.01782-111.70521-38.77691-167.66271-57.86694-41.95348-14.31239-82.72682-16.88773-120.27511,12.44271-48.17408,37.63037-50.57547,112.58127.70426,144.53,101.24246,63.07633,208.81112,113.94643,324.51294,145.59517,49.13824,13.44159,90.10785-.96285,125.98237-36.52718,38.83065-38.49467,75.78394-78.55806,109.22947-121.72073,9.30429-12.0076,16.15734-15.9253,29.35179-5.59705,19.94133,15.60942,40.85668,30.02512,61.84356,44.23137,12.62085,8.543,15.59922,17.83129,11.10674,33.05219-22.17068,75.1163-45.99119,149.80622-63.65052,226.17367-7.97969,34.508-15.09659,69.24616,10.39572,100.85787,47.25525,58.59908,126.36421,52.25681,162.27872-13.7624,33.87157-62.26312,59.68941-128.04753,84.2674-194.4043,14.95213-40.3697,29.06709-80.9756,41.04591-122.30506,3.80006-13.11,7.78314-21.44042,22.73527-10.01391,10.20678,7.80021,22.94139,8.24081,35.44566,6.20109,97.55759-15.91488,168.06482-67.543,207.64141-158.8739,4.6589-10.75181,9.66922-14.76566,21.28733-16.2126,37.66346-4.69037,55.77137-37.76086,37.43481-70.99063-22.97011-41.62626-48.82708-81.66051-73.458-122.36974-10.96707-18.12662-27.94552-24.775-39.22685-24.07249,22.091-24.91794,47.53543-54.39365,73.88265-83.03933,15.21739-16.54488,29.57227-33.24511,37.07269-54.92287,11.35651-32.82562,6.45122-62.61306-18.17633-87.30669-24.13308-24.19742-53.86642-23.76963-83.87346-13.81294-26.59811,8.82534-48.31994,26.58125-71.19853,42.09093q-34.331,23.273-68.90809,46.18234c-5.89818,3.92523-12.75461,8.30788-17.832-.25655-28.07393-47.3519-64.68734-88.6261-95.0413-134.334-1.1731-1.76685-1.13875-4.33557-1.66476-6.52063,41.1028-12.41224,41.399-12.64394,66.2482,19.1129,12.76671,16.31558,25.89977,32.72357,35.84974,50.75433,9.5273,17.265,18.3191,16.31649,32.08855,5.95164,20.7892-15.64946,42.17594-30.56264,63.87411-44.935,34.49727-22.85028,72.09428-34.84493,113.72477-26.58153,90.86336,18.0359,127.40187,134.34067,65.06411,206.96786-15.44745,17.99676-31.30939,35.83755-48.68122,51.9134-11.60375,10.73739-10.74152,18.20418-2.81139,30.78126,24.58249,38.985,48.05722,78.69961,70.95215,118.70873,31.26095,54.63028,11.66907,112.6418-46.09764,137.00709-10.53849,4.44529-18.08538,10.08162-23.39278,20.33582-50.03933,96.66934-132.97706,145.39443-237.92384,159.78255-17.25159,2.36532-23.11964,9.69451-28.02127,24.08347-30.73861,90.23036-63.92817,179.4662-108.0696,264.27758-16.10975,30.95264-37.23123,56.08188-69.2415,71.37724-51.69423,24.70088-101.1256,18.47727-145.44275-15.17149-43.23922-32.83048-60.4818-79.58384-51.90373-132.76619,12.87006-79.78879,39.54758-156.25858,61.8568-233.71429,4.28411-14.87321,3.36246-23.59375-10.29351-32.591-12.90356-8.50193-19.82532-7.7926-30.2906,4.21008-28.26484,32.41577-58.02211,63.56042-87.81571,94.6071-47.4028,49.39683-104.65758,63.76665-170.75372,47.48084-57.00557-14.046-111.12626-35.78744-164.30532-60.00731-53.86979-24.5345-106.90129-50.851-158.02868-80.77276-52.764-30.87931-80.16154-88.33254-69.18123-143.91582,11.84338-59.952,58.00972-105.41367,118.34988-113.67932,18.22561-2.49665,26.90618-8.46744,24.02355-27.25975a44.96421,44.96421,0,0,1-.05548-6.91147c.13122-35.70009.20838-36.10318-35.11395-42.809-62.56612-11.87795-120.65666-36.3201-176.95995-64.68558-60.19824-30.32763-80.14211-78.19882-68.81855-145.6293,15.46434-92.08842,51.47656-174.83748,105.62541-250.403,19.68819-27.47463,38.97764-55.3509,56.55222-84.19911,35.90184-58.93153,92.84771-80.87812,156.53485-88.78911,59.00768-7.32972,111.6213,27.43223,131.5218,85.88265,7.08255,20.80261,16.07624,22.99545,33.15071,13.8658a202.11014,202.11014,0,0,1,25.23437-11.31308c42.3356-15.631,79.53275,6.89749,85.86739,51.75933,5.02413,35.58072,4.67383,33.78192,39.968,26.90586,86.45422-16.84325,174.04071-17.28811,261.70718-14.31756,7.73893.26221,12.88611,3.53414,15.41056,11.27339,3.77273,11.56573,8.12667,22.94206,13.01451,36.57792-49.58625-4.58958-97.70739-4.14067-145.77334-2.81971-43.71764,1.20159-87.49385,3.31549-130.43233,12.91893-37.24671,8.3304-65.29276,28.3799-81.937,63.59181-5.89,12.46144-14.378,23.69665-20.25024,36.16463-13.19107,28.00793-26.88421,48.89633-65.72585,45.68669-25.15187-2.07836-51.93808,10.77807-58.29384,44.5505-2.63766,14.014-15.21993,12.29779-25.4605,4.28158-62.11811-48.62494-90.272-48.54681-154.20835.86156-8.2472,6.37318-16.43414,11.347-27.31364,8.80085l.02422.0069q-2.28-2.37345-4.56063-4.74668ZM756.981,585.27276c5.04862,1.67739,10.891,2.2824,14.95466,5.29018,5.72388,4.23661,10.9896,9.72478,18.16056,5.33677,6.26059-3.83091,3.56662-11.186,3.2059-16.994-1.37951-22.20831-4.0042-44.3644-4.66453-66.58446-.52094-17.52262-7.89634-19.16524-21.76913-12.73724-21.59371,10.00536-43.14827,20.1901-65.23842,28.99728-15.9,6.33911-13.12658,13.34616-1.30714,19.23425,15.58881,7.76607,15.85407,17.28046,9.07508,31.53682a121.36723,121.36723,0,0,0-11.55729,58.17383c.36241,7.42287-7.21151,21.73265,7.42214,21.7038,11.43874-.02253,26.77693-.34594,28.99839-19.23643,2.37324-20.18155,12.843-37.577,23.08556-54.778Z" transform="translate(-252.3461 -267.0886)"/><path class="cls-1" d="M1532.092,954.02854c-12.92187,26.59976-33.55788,47.40152-52.36047,69.5757-6.42334,7.57554-13.49124,14.65184-19.4356,22.57789-19.70227,26.27143-15.15938,54.20278,13.21219,70.05516,13.44985,7.51487,15.798,14.47877,8.4719,27.04719-20.72162,35.55-48.08706,63.553-87.17171,78.74754-5.69656,2.21441-11.807,6.85889-14.41654-2.98962-13.90772-52.49273-55.57229-85.3919-88.15-124.60069-17.65539-21.24884-36.63059-41.44242-55.67844-61.47686-10.74575-11.302-11.65049-21.54579-2.99781-34.7188,13.87871-21.12856,26.91885-42.8672,39.18687-64.97289,8.16328-14.71026,15.0473-13.67393,25.65479-2.38854,17.87249,19.01472,36.22,37.70307,57.52088,53.05488,35.04665,25.25811,71.4286,28.728,110.32711,8.26382,22.42271-11.79638,40.75645-30.10163,64.68312-39.24975Z" transform="translate(-252.3461 -267.0886)"/><path class="cls-1" d="M1637.07087,1097.8518c-17.11192-4.9567-22.84846,4.61477-28.69624,21.23124-29.76712,84.58418-87.31053,138.44531-177.58621,153.89777-8.34632,1.42865-18.08284,4.54946-21.57624-6.3251-3.23012-10.05628,6.68381-12.3957,13.18712-15.75483,58.03732-29.97656,93.13269-77.66025,110.8413-139.90788,5.49128-19.30182.26272-25.56928-18.62632-24.04216a56.87154,56.87154,0,0,1-16.02273-1.23c-9.57827-2.0091-13.716-7.06011-6.62383-16.07929,27.04471-34.39356,54.021-68.84343,81.37547-102.98945,8.70816-10.8702,16.15536-5.378,21.612,3.78333q31.82413,53.42388,63.093,107.17665c2.9091,5.00224,8.63156,10.568,4.16555,16.69994C1655.99736,1102.84721,1646.65027,1097.57406,1637.07087,1097.8518Z" transform="translate(-252.3461 -267.0886)"/><path class="cls-1" d="M1014.05233,396.97985c32.00182,1.75688,58.772,15.04458,84.16208,31.04065,11.28443,7.10925,8.13006,15.83138-3.173,20.327-22.74315,9.04529-45.733,17.49809-68.79855,25.69614-18.38893,6.53576-34.85573,2.53114-48.2777-11.62855-11.26866-11.88805-12.80529-26.56781-6.26087-40.60411C979.98111,404.06,996.25389,397.588,1014.05233,396.97985Z" transform="translate(-252.3461 -267.0886)"/><path class="cls-1" d="M481.52826,811.88013a7.84935,7.84935,0,0,0,2.95387-2.38671c21.47347,5.35275,42.87119,11.03251,64.4342,15.99519,38.62818,8.89024,76.02048,3.3775,112.60292-10.52426,8.80587-3.3464,18.755-6.88782,23.75321,4.71845,5.12212,11.89365-5.20321,16.99928-13.26625,20.33969-59.171,24.51282-117.65605,24.67329-174.52167-7.25578C489.52146,828.29551,481.8473,822.645,481.52826,811.88013Z" transform="translate(-252.3461 -267.0886)"/><path class="cls-1" d="M400.33638,773.50673a7.8042,7.8042,0,0,0-3.57393,1.42393q-4.55754-.45154-9.11872-.89859l-.15319-.161q-2.10981-2.51776-4.22159-5.0375c0-.00007.412-.15294.41591-.1547-2.84265-68.00178,26.27175-124.82895,62.75169-179.03566,4.48376-6.66309,10.52526-11.19594,19.30269-9.98485-.00394-.00542.65892.89008.65526.88444-2.69988,13.88657-10.65817,25.39254-17.22343,37.4889-24.85789,45.80051-40.69449,94.23111-43.4124,146.567l.09743-.10923Q403.09625,768.99834,400.33638,773.50673Z" transform="translate(-252.3461 -267.0886)"/><path class="cls-3" d="M486.76977,1225.72125c-24.56391-7.71194-22.22616-28.54383-20.43159-46.71268,1.86892-18.92378,7.00962-38.19653,31.37022-41.37436q1.23885,1.42043,2.49488,2.85237c-2.38788,3.73288-8.45106,4.67531-8.01488,10.55235l.55755-.17272c-6.51627.09333-8.33224,4.70318-9.52646,9.91031l.87152-.238c-3.47341.24536-4.27763,2.64882-4.48038,5.53878l.19148-.39345c-8.55272,17.998-7.53928,35.173,4.42462,51.40572l-.72875-.08136Q485.13387,1221.36463,486.76977,1225.72125Z" transform="translate(-252.3461 -267.0886)"/><path class="cls-4" d="M1351.04082,709.79491q10.26943,17.63016,20.53493,35.25667c-17.7945-10.73323-26.2405-4.164-28.73933,14.97674-.41928,3.21287-3.98815,6.01478-6.10176,9.00651q2.85742-32.46459,5.71458-64.929Q1346.74446,706.9506,1351.04082,709.79491Z" transform="translate(-252.3461 -267.0886)"/><path class="cls-4" d="M880.10125,1068.58548q3.16746-8.702,6.33324-17.40075,4.07008-1.81453,8.15117-3.62617,3.12059,12.6718,6.22426,25.32448Q890.45347,1070.73353,880.10125,1068.58548Z" transform="translate(-252.3461 -267.0886)"/><path class="cls-4" d="M1117.365,1631.05227q-3.08256-6.4458-6.164-12.88908c8.86585,3.50877,14.41682,10.50322,19.23539,18.26823l-1.62252,1.30308q-2.69862-.67526-5.40371-1.35432-3.344-2.61512-6.6748-5.22233Z" transform="translate(-252.3461 -267.0886)"/><path class="cls-4" d="M486.76977,1225.72125q-1.6359-4.35667-3.27067-8.70984c9.8455.04758,12.62113,6.60579,13.6326,14.78973q-3.88931-1.746-7.78342-3.50061A2.71233,2.71233,0,0,0,486.76977,1225.72125Z" transform="translate(-252.3461 -267.0886)"/><path class="cls-4" d="M1138.97508,1643.94023q-4.91022-1.65943-9.8303-3.326a18.22664,18.22664,0,0,1-.33-2.87926l1.62139-1.30336C1135.21727,1636.73505,1138.76276,1638.44313,1138.97508,1643.94023Z" transform="translate(-252.3461 -267.0886)"/><path class="cls-3" d="M1116.73541,1631.15771q3.33389,2.6094,6.6748,5.22247Q1120.07971,1633.77288,1116.73541,1631.15771Z" transform="translate(-252.3461 -267.0886)"/><path class="cls-1" d="M1530.93832,952.95357q1.4437-.80417,2.88742-1.60841-.86758,1.34261-1.73431,2.68422Z" transform="translate(-252.3461 -267.0886)"/><path class="cls-5" d="M1231.25624,376.22493q4.3607-4.44,8.71689-8.87669,2.85151-2.26053,5.71092-4.52807l-.56487.29734c4.29424.101,7.84142-1.00913,9.2122-5.66019l-.54515.49434c3.06989-.21481,4.81011-1.88445,5.34935-4.8722l-.3579.48424c8.1295.08569,15.17572-1.76178,18.47482-10.316l-.11968.60217c29.05386-4.27887,57.99621-12.97858,87.29308-.48174,4.59357,1.95934,10.51287.81149,15.81915,1.10034l-.54291-.5107c1.6366,4.74161,5.57154,5.2086,9.73765,5.24643l-.55079-.43718q2.8549,2.35607,5.703,4.70726s-.60739-.86386-.604-.85837c1.16325,5.05943,4.9281,5.92849,9.31442,5.79923,0,0-.71523-.25334-.711-.25465q3.5607,2.59684,7.11352,5.19647c54.93195,48.62345,58.12292,129.35244,7.18983,181.60484-4.26637,4.37681-8.45642,8.82781-12.67633,13.23861-7.73555-1.22263-13.12883,1.29732-15.00168,9.42023,0,0,.46377-.53562.4587-.53738-8.17877-.42878-14.98929,1.92154-19.26073,9.44528l.40042-.59369c-20.57885,1.19983-40.835,6.37782-61.72727,4.07452-16.10242-1.77536-28.928-14.87328-46.00922-12.6885,0,0,.557.44729.55586.44018-1.88637-8.66226-8.18637-10.63054-15.88081-10.487-9.17138-4.75294-15.54994-12.26943-20.74809-20.96392-.13488-4.62555-.88532-8.895-6.03109-10.68446,0,0,.62316.63535.61894.63289q-2.36029-2.84589-4.71269-5.68693s.40127.669.40268.66315c.59781-4.54151-.38578-8.23144-5.2632-9.837,0,0,.54122.6148.54319.60924.58909-4.3495.05885-8.18625-4.60258-10.14848l.5398.4014c-.25512-6.74318,2.44223-14.38633-5.71092-18.72084l.98022.299c-2.64751-27.12873,5.31359-53.003,9.4-79.33616l-.45082.30694q2.1757-2.87165,4.348-5.73736s-.72565.46942-.722.46548c5.19983-1.35858,6.06572-5.04771,5.21279-9.66336l-.27371.72076c4.79576-1.24445,5.8658-4.85338,5.83482-9.163l-.26948.45032Q1229.05238,379.051,1231.25624,376.22493Z" transform="translate(-252.3461 -267.0886)"/><path class="cls-4" d="M1380.24505,344.46843c-5.30628-.28885-11.22558.859-15.81915-1.10034-29.29687-12.49684-58.23922-3.79713-87.29308.48174C1311.62333,323.92561,1345.97305,327.73615,1380.24505,344.46843Z" transform="translate(-252.3461 -267.0886)"/><path class="cls-4" d="M1263.07868,567.32083c17.08123-2.18478,29.9068,10.91314,46.00922,12.6885,20.89227,2.3033,41.14842-2.87469,61.72727-4.07452C1333.40542,591.79205,1297.358,590.60869,1263.07868,567.32083Z" transform="translate(-252.3461 -267.0886)"/><path class="cls-4" d="M1213.17,404.50179c-4.08643,26.33318-12.04753,52.20743-9.4,79.33616C1193.95884,455.85831,1199.02154,429.64211,1213.17,404.50179Z" transform="translate(-252.3461 -267.0886)"/><path class="cls-4" d="M1277.2525,343.24766c-3.2991,8.55426-10.34532,10.40173-18.47482,10.316C1263.17865,346.98169,1269.58143,343.97934,1277.2525,343.24766Z" transform="translate(-252.3461 -267.0886)"/><path class="cls-4" d="M1370.41475,576.5285c4.27144-7.52374,11.082-9.87406,19.26073-9.44528C1384.82,573.41712,1377.96,575.67116,1370.41475,576.5285Z" transform="translate(-252.3461 -267.0886)"/><path class="cls-4" d="M1389.21678,567.6206c1.87285-8.12291,7.26613-10.64286,15.002-9.42023A24.77869,24.77869,0,0,1,1389.21678,567.6206Z" transform="translate(-252.3461 -267.0886)"/><path class="cls-4" d="M1247.75373,557.274c7.69444-.14351,13.99444,1.82477,15.88081,10.487C1256.90061,566.45026,1251.82439,562.62272,1247.75373,557.274Z" transform="translate(-252.3461 -267.0886)"/><path class="cls-4" d="M1202.78977,483.539c8.15315,4.33451,5.4558,11.97766,5.71092,18.72084C1202.64194,497.22574,1203.5802,490.11881,1202.78977,483.539Z" transform="translate(-252.3461 -267.0886)"/><path class="cls-4" d="M1389.43979,349.20416c-4.16611-.03783-8.101-.50482-9.73765-5.24643C1383.607,344.4792,1387.30534,345.39141,1389.43979,349.20416Z" transform="translate(-252.3461 -267.0886)"/><path class="cls-4" d="M1403.30245,358.4151c-4.38632.12926-8.15117-.7398-9.31442-5.79923A10.27093,10.27093,0,0,1,1403.30245,358.4151Z" transform="translate(-252.3461 -267.0886)"/><path class="cls-4" d="M1254.33138,357.45732c-1.37078,4.65106-4.918,5.76122-9.2122,5.66019C1247.13451,359.5164,1249.532,356.5328,1254.33138,357.45732Z" transform="translate(-252.3461 -267.0886)"/><path class="cls-4" d="M1227.11912,381.43124c.031,4.30963-1.03906,7.91856-5.83482,9.163C1221.59349,386.50256,1223.2743,383.27808,1227.11912,381.43124Z" transform="translate(-252.3461 -267.0886)"/><path class="cls-4" d="M1221.558,389.87349c.85293,4.61565-.013,8.30478-5.21279,9.66336C1215.74515,395.05872,1217.63856,391.91975,1221.558,389.87349Z" transform="translate(-252.3461 -267.0886)"/><path class="cls-4" d="M1207.96089,501.85843c4.66143,1.96223,5.19167,5.799,4.60258,10.14848C1208.22108,509.89906,1208.13519,505.85869,1207.96089,501.85843Z" transform="translate(-252.3461 -267.0886)"/><path class="cls-4" d="M1212.02028,511.39767c4.87742,1.6056,5.861,5.29553,5.2632,9.837C1213.18663,519.21083,1212.341,515.44452,1212.02028,511.39767Z" transform="translate(-252.3461 -267.0886)"/><path class="cls-4" d="M1220.97455,525.6256c5.14577,1.78943,5.89621,6.05891,6.03109,10.68446C1223.55307,533.56805,1220.50542,530.589,1220.97455,525.6256Z" transform="translate(-252.3461 -267.0886)"/><path class="cls-4" d="M1216.8808,520.57156q2.35437,2.8422,4.71269,5.68693C1217.99336,526.04867,1217.27925,523.44089,1216.8808,520.57156Z" transform="translate(-252.3461 -267.0886)"/><path class="cls-4" d="M1217.06721,399.07137q-2.17315,2.86722-4.348,5.73736C1212.97572,401.99571,1213.38233,399.292,1217.06721,399.07137Z" transform="translate(-252.3461 -267.0886)"/><path class="cls-4" d="M1231.25652,376.225q-2.204,2.827-4.40688,5.6567Q1229.05364,379.05562,1231.25652,376.225Z" transform="translate(-252.3461 -267.0886)"/><path class="cls-4" d="M1245.68405,362.82007q-2.85744,2.26591-5.71121,4.528Q1242.8324,365.08036,1245.68405,362.82007Z" transform="translate(-252.3461 -267.0886)"/><path class="cls-4" d="M1409.705,363.357q-3.55479-2.599-7.11352-5.1965Q1406.14412,360.7601,1409.705,363.357Z" transform="translate(-252.3461 -267.0886)"/><path class="cls-4" d="M1259.13558,353.07946c-.53924,2.98775-2.27946,4.65739-5.34935,4.8722C1253.54913,354.11262,1256.296,353.54529,1259.13558,353.07946Z" transform="translate(-252.3461 -267.0886)"/><path class="cls-4" d="M1394.592,353.47424q-2.84983-2.35249-5.703-4.70726C1391.72377,349.201,1394.177,350.10335,1394.592,353.47424Z" transform="translate(-252.3461 -267.0886)"/><path class="cls-2" d="M470.58653,755.55466q-2.28-2.3728-4.56035-4.74618Q468.30621,753.18108,470.58653,755.55466Z" transform="translate(-252.3461 -267.0886)"/><path class="cls-2" d="M387.64373,774.03207q4.56048.44817,9.11872.89859c-.48349,2.929-1.32488,6.03-4.94781,5.62084C388.388,780.16453,387.925,776.93807,387.64373,774.03207Z" transform="translate(-252.3461 -267.0886)"/><path class="cls-2" d="M400.33638,773.50673q2.75986-4.5085,5.51972-9.01721C406.07405,768.75428,404.80887,772.11165,400.33638,773.50673Z" transform="translate(-252.3461 -267.0886)"/><path class="cls-2" d="M383.269,768.8336q2.11108,2.51925,4.22159,5.0375Q385.37863,771.35134,383.269,768.8336Z" transform="translate(-252.3461 -267.0886)"/><path class="cls-5" d="M1138.97508,1643.94023c-.21232-5.4971-3.75781-7.20518-8.53893-7.50867-4.81828-7.76515-10.36925-14.7596-19.2351-18.26837l.50658.28252c-2.21443-32.286,3.40667-63.46133,11.85548-94.51969,3.73163-13.71778,8.22158-27.80212,6.2054-42.56933.29932-17.01188,6.72717-32.39959,12.70307-47.91018,6.62214-3.082,6.17751-8.82654,5.52986-14.64784,0,0-.76649.55575-.75889.55181,6.893-2.91473,6.23637-8.53951,5.16013-14.31534,0,0-.86279.10065-.85181.09966,20.19984-33.76658,30.579-70.25054,30.41281-109.65725.78789-10.36414-5.54309-15.72273-13.85111-19.6911-41.63444-37.41232-89.80767-65.88253-134.83048-98.66191-14.1603-10.30938-27.745-21.40889-41.59558-32.15057q-2.7113-3.1396-5.41751-6.27133s.61246.94159.60655.93807q-2.781-2.56992-5.5507-5.13322c0,.00014.72059.81828.71637.81392-1.07455-4.7875-4.67664-5.90083-8.8881-6.13155l.38888.29392q-2.60486-2.46434-5.20519-4.92714l.52995.50831q-2.65594-2.51692-5.30515-5.03285l.59951.57939q-2.60569-2.61109-5.20462-5.21881l.59133.608q-2.5512-2.64087-5.09649-5.2778l.54882.52577q-2.45828-2.61659-4.91064-5.23232l.28778.39654c-.21767-4.16953-1.01513-7.95463-5.95337-9.00208,0,0,.83041.52169.82591.52028q-2.49292-2.73694-4.97794-5.47079l.47053.54027c-.14305-8.0495-1.98211-15.14151-10.41994-18.522,0,0,.33593.3327.34269.32749,1.972-9.96577.04027-18.356-9.53237-23.667l1.11847.05032a405.73965,405.73965,0,0,1,9.0945-102.73529s-.70031.2688-.69271.26858c14.06231-12.42159,21.38533-28.24793,23.61242-46.65151,0,0-.54938.62465-.54262.6224,5.1514-1.38423,5.67882-5.32213,5.38484-9.71464,0,0-.4894.6956-.48546.692,4.73268-1.62684,5.304-5.52237,5.3181-9.72259l-.46828.5965c4.6023-1.74425,5.12943-5.61148,5.10212-9.7682l-.43928.57511c4.53247-1.79043,5.13394-5.604,5.04327-9.77447l-.497.50324c4.80927-1.59025,5.253-5.49246,5.14323-9.68846l-.4083.51324c4.577-1.65725,5.09536-5.49112,5.14633-9.57612l-.35565.3548q2.21541-2.82709,4.42941-5.64963l-.79127.47509c5.24123-1.47038,5.92887-5.18629,4.83855-9.78115,0,0-.41844.46812-.41112.46524,5.39273-1.24889,6.0936-5.03117,5.23616-9.657,0,0-.46575.44447-.45758.4444,10.33857-2.53867,11.25035-10.06093,9.93871-18.75979,0,0-.43055.696-.42605.692,5.01568-1.5849,5.58984-5.47648,5.15647-9.89278,0,0-.56571.63346-.55952.63113,5.03652-1.41731,5.63349-5.30348,5.38991-9.65819l-.49729.61558c4.82645-1.62544,5.38146-5.50274,5.17337-9.78327l-.47729.594c4.68874-1.60046,5.26882-5.44481,5.26319-9.6097l-.3793.48107c4.553-1.73425,4.94978-5.626,5.03313-9.68057l-.35227.48431c4.4356-1.83033,4.8242-5.72072,4.965-9.73744l-.354.47051q2.03928-3.03825,4.07686-6.07073c-.00028-.00008-.8138.73318-.80648.72847,5.14831-1.47743,6.20117-5.07875,5.1086-9.79727,0,0-.339.73529-.33368.72917,4.99681-1.68463,5.92774-5.3562,4.90586-9.98632,0,0-.50067.57475-.49.57229,5.3029-1.45061,6.1395-5.12393,4.91824-9.825,0,0-.46856-.3244-.46152-.31694.97965-.32679,1.95226-.66111,2.92487-.99537q-.66525-.66406-1.33079-1.32828c-1.2221-12.58531-11.18531-8.09377-17.50193-7.93133-25.75053.662-51.4667,3.063-77.21245,3.35505-16.21139.18392-19.27565,15.243-29.23829,22.30312q-1.97887,2.9349-3.95859,5.86719c0-.00007.47448-.64725.47476-.64239-4.84869,1.46567-5.71571,5.1537-5.33444,9.53987,0,0,.53474-.2374.5308-.23677-10.09414.03442-10.66521,6.54287-9.6284,14.145,0,0,.48293-.22719.47814-.22691-10.32533-.14626-10.58552,6.59284-9.6788,14.1303,0,0,.412-.55856.4069-.556q-2.53136,2.64341-5.05256,5.28145l.72087-.42019c-5.29164,1.18357-5.72528,5.11992-5.391,9.49216,0,0,.45815-.57285.45364-.56962q-2.44856,2.79237-4.88867,5.57833s.499-.821.5001-.815c-4.6972,1.512-5.55351,5.23211-5.46847,9.49441l.37367-.585q-2.39407,2.88073-4.78365,5.75464c-.00028-.00007.7755-.90351.77381-.89753-4.72536,1.74235-5.49438,5.71086-5.65742,10.02144-7.59194,14.54705-16.06469,28.49548-27.48653,40.43734q-1.981,2.88928-3.96112,5.78526s.80985-.13739.802-.13781c-5.54141.8634-6.34422,4.55636-5.52423,9.21963,0,0,.40605-.33348.39592-.33348-3.1707.24719-4.95711,1.8366-5.01061,5.11852,0,0,.7586-.19208.75072-.196-5.549.6899-6.44024,4.33324-5.71965,8.9987l.17627-.47692q-2.62975,2.3744-5.25446,4.745c0-.00007.2661-.29314.27089-.28913q-2.40294,2.52229-4.8149,5.03666l.38747-.05434c-4.70171-.77619-8.23735.31307-9.10943,5.674,0,0-.22865-.936-.23259-.94152q-16.73656-.01056-33.46553-.01014s-.44632.974-.44181.96468c-.44266-7.80794-5.61631-9.87476-12.27956-10.13518q-5.16324-7.50684-10.32449-15.00721,2.16135-20.83671,4.31818-41.68644s-.92953-.24613-.9208-.24606c12.11568-5.7298,11.11632-16.6221,10.75194-27.26426l-.4207.36642c4.87883-1.80189,4.97513-5.834,4.69185-10.04319,0,0-.56346.60368-.55811.6015,9.85254-6.99593,13.72609-16.91412,14.00712-28.59092,0,0-.58515.7353-.57895.73,5.00807-1.72053,5.69825-5.55391,4.96133-10.08831,0,0-.55727.70441-.54854.70046,4.96724-1.56026,6.095-5.16862,5.27051-9.82275,0,0-.48039.67738-.47476.67287,5.14971-1.56315,5.93929-5.31918,5.0199-9.93747,0,0-.4711.67279-.46406.66892,5.16576-1.4599,6.0998-5.1373,5.16041-9.79973,0,0-.446.59981-.43984.59622,5.31838-1.39662,5.8993-5.23986,5.08438-9.80565,0,0-.62372.34263-.6133.34383,10.49091-2.1719,11.4959-9.65714,10.3135-18.36881l-.33227.48691c4.854-1.403,5.533-5.141,5.27108-9.40579l-.37339.25324c2.96485-.777,4.27791-2.74631,4.16077-5.75049,0,0-.6716.43293-.66484.4311,5.39723-1.19744,6.25467-4.81024,5.07735-9.50786,0,0-.2019.49192-.196.49044,8.65578-3.45859,10.28591-10.62787,9.966-18.82835,0,0-.432.79837-.4283.79365,4.93374-1.97426,5.30318-6.30363,5.54056-10.70135,7.25769-16.71177,16.50735-32.07815,30.08589-44.52776q3.52184-2.56728,7.035-5.12689l-.66005.20911c4.45053.28689,8.14189-.70609,9.51633-5.62,0,0-.59388.59164-.588.59347,4.31283.45433,8.359.34756,10.10006-4.7029l-.30891.59777c45.70876-3.66108,91.46877-6.792,137.11-11.16292,32.18486-3.08211,64.07235-2.38418,96.31831-.1868,30.54657,2.08145,60.46434,7.92,90.80478,10.81333,0,0-.52572-.68146-.52094-.67548,2.79365,6.74987,8.47078,6.23333,14.17748,5.642l-.51418-.51936c1.71262,4.88329,5.59828,5.39182,9.95391,4.956,0,0-.5322-.61846-.52967-.612,1.3215,5.21171,5.2829,5.67448,9.66275,5.38654l-.54431-.45257q2.786,2.40818,5.56562,4.80918c0-.00007-.48772-.81188-.48518-.80639,1.07145,5.26949,4.92359,5.94771,9.35159,5.67722,0,0-.7862-.21741-.78169-.219q3.524,2.58987,7.038,5.1832c49.16837,43.2348,53.77546,97.52936,35.22152,155.22408-17.9184,55.71764-52.14168,103.66491-80.081,154.55895-11.75777,21.41811-24.36314,42.37113-36.58356,63.53551-19.01012,17.3127-16.54706,30.85544,1.74078,49.69026,41.33,42.56623,79.42406,88.27334,118.83816,132.70629q2.582,3.5467,5.15676,7.08652s.00084-.825,0-.82c-.58008,4.62956.46152,8.22744,5.77512,9.11864l-.89377-.04786q2.0718,2.81844,4.14275,5.63323l-.21345-.345c10.04769,35.60571,13.997,70.94227-.73889,106.63385-5.424,13.13782-9.43269,27.23807-8.30267,42.00162l.4328-.59911c-6.19609,3.62546-4.77716,9.71914-4.967,15.29044-.10644,4.398-.4266,8.72-4.203,11.81939-4.524,3.07675-4.83518,7.79035-4.91346,12.59474l.66005.99143-.85547.825c-4.20808,2.20441-4.47643,6.07918-4.29453,10.14426,0,0,.57811-.79111.5736-.786-6.29522,3.09111-5.4986,8.86328-5.44566,14.35377l.52319-.50056c-4.69917,1.91443-5.277,5.68292-4.53275,10.04741,0,0,.49476-.49072.48884-.48776-15.39282,18.85073-23.19876,40.51582-24.08042,64.75442,0,0,.58993-.49382.58514-.49058-5.12831,1.72933-5.28628,5.75063-4.68368,10.12343,0,0,.46125-.754.457-.74874-7.27374,3.0959-5.478,9.56768-5.70557,15.28481-3.2425,14.509-9.92462,27.54719-17.2423,40.30888-4.61976,1.72032-5.663,5.37-5.27051,9.79221,0,0,.71721-.67639.709-.67217-5.03764,1.69766-5.912,5.39618-4.84841,10.0301,0,0,.61528-.424.60345-.42244-5.42652,1.18906-6.40082,4.7875-5.20547,9.56388,0,0,.31369-.53562.30637-.53281-7.27909,2.25158-6.23749,8.16085-6.0401,13.69864l.46519-.46087c-4.81462,1.62586-5.28656,5.50246-5.061,9.74125l.42858-.536c-4.65609,1.68541-5.1117,5.58087-5.12155,9.71141l.40689-.45806q-2.36407,2.74707-4.72535,5.4888c0-.00014.68848-.51422.68736-.51028-4.91346,1.52521-5.65292,5.23838-5.06862,9.64693C1188.99019,1649.74253,1164.44909,1648.35062,1138.97508,1643.94023Z" transform="translate(-252.3461 -267.0886)"/><path class="cls-5" d="M1336.73466,769.03483c2.11361-2.99173,5.68248-5.79364,6.10176-9.00651,2.49883-19.14071,10.94483-25.71,28.73933-14.97674.00422.0038-.59923.32693-.60007.33186-.557,4.57945.43956,8.22272,5.61321,9.36012,0,0-1.29785-.15731-1.29081-.16231q2.849,2.53191,5.68361,5.07375c9.36313,14.62644,18.95154,29.11464,28.03929,43.91,15.934,25.94,15.80562,26.01875,42.36713,11.39752,4.51107-.05539,8.70169-.7182,10.688-5.592,0,0-.93234.58567-.927.58285q2.85658-2.39837,5.70275-4.791c0,.00007-.577.49332-.57219.4936,4.39618.252,8.12189-.65745,9.59348-5.49732l-.68229.75578q2.854-2.33785,5.70247-4.6689l-.50883.4247c4.33225.07122,8.09119-.78148,9.31048-5.74683l-.62569.84995q2.83461-2.37133,5.66361-4.73556l-.4987.393c4.39421.19672,7.99462-.89064,9.28739-5.72171,0,0-.60091.84137-.59922.83665q2.73663-2.51649,5.47072-5.0237s-.57416.49726-.56993.497c4.40209.1958,8.116-.75522,9.48112-5.64661,0,0-.383,1.11354-.38606,1.107q2.6264-2.91684,5.25869-5.82038c14.32869-11.60311,28.90856-22.84275,45.359-31.37164,7.5038,1.17386,12.45471-1.86122,14.8868-9.04149l-.34551.29815c4.20357.23642,8.07458-.152,9.53969-5.06826l-.20584.43328q25.70251-2.27853,51.40532-4.557l-.24639-.19229q2.46165,2.4257,4.92078,4.852c0-.00007-.16248-.27393-.1591-.27809q2.40548,2.45675,4.8042,4.92179l-.15206-.19334c-.3044,4.22556.18557,8.02388,5.08326,9.45317l-.48321-.19222q-2.07264,21.27885-4.14472,42.55786c.00028,0,.52432-.34805.51925-.34538-5.07875,1.22334-5.81173,5.00267-5.53352,9.37793l.105-.53773q-2.48363,3.61426-4.97175,7.22474c-14.52975,18.30413-31.50369,34.11717-49.66453,48.71482q-2.83209,2.35814-5.67094,4.72232l.695-.26929c-7.34245-.07819-13.0224,1.85032-12.97,10.714,0,0-.22528-.89077-.23147-.892-3.07609.25451-4.73972,1.95406-5.11648,4.97451,0,0,.60485-.07137.59781-.07806-6.36336-.25148-9.36455,3.19169-10.07753,9.15052l.28722-.78049q-2.63864,2.4825-5.27643,4.95713l.38409-.53816q-2.55795,2.54575-5.12127,5.08382l.47927-.383c-4.40773-.13957-8.13231.73129-8.90133,5.9912,0,0,.24385-.97967.24273-.97524q-2.601,2.60435-5.20068,5.19974s.10728-1.10376.11629-1.09637q-2.54909,3.18142-5.11535,6.34833a493.71574,493.71574,0,0,1-94.62483,67.443q-22.32894-1.9692-44.64548-3.94346s-.2157.76619-.21683.75993c-1.10017-5.36718-4.59835-6.38429-9.335-5.15976l.35874.1495c-1.09172-5.10782-4.71832-5.988-9.16462-5.50316l.3044.22733q-2.49038-2.46846-4.97625-4.93776l.26976.37465q-2.47559-2.45326-4.94471-4.911l.27567.32285q-2.56683-2.35941-5.12605-4.72381l.36916.29949c-.44041-3.006-2.24286-4.5123-5.21054-4.73824l.553.26472a5.18913,5.18913,0,0,0-5.46735-4.59381l.64174.25831a5.32434,5.32434,0,0,0-5.33274-4.87414s.59753.42526.59556.41942q-.66525-4.64111-5.33725-4.9049s.80507.264.79972.26154q-2.67878-2.51712-5.34739-5.02919s.50855.6124.50742.60508a5.292,5.292,0,0,0-5.12183-5.13815s.54741.45525.546.449a5.21933,5.21933,0,0,0-5.19589-4.99865s.559.41569.55811.40914a5.18244,5.18244,0,0,0-5.1683-4.99246s.50517.39359.50517.38683a5.1065,5.1065,0,0,0-5.11366-5.00421s.49081.39176.49109.38486q-.48405-4.61787-5.10269-4.99091s.50151.37465.50179.36776q-.49545-4.61936-5.119-4.96614s.50094.36994.50123.36283q-.50433-4.64469-5.15873-4.91489s.50968.27062.50968.26478q-2.43927-2.645-4.87939-5.27807l.41535.42188q-2.08236-2.83777-4.16415-5.66871c0,.00007-.34917.30744-.341.30491q2.62131-10.60707,5.2263-21.20922C1313.55757,823.40913,1327.7021,797.35287,1336.73466,769.03483Z" transform="translate(-252.3461 -267.0886)"/><path class="cls-4" d="M1223.50773,593.19269c-30.34044-2.89334-60.25821-8.73188-90.80478-10.81333-32.246-2.19738-64.13345-2.89531-96.31831.1868-45.64118,4.37089-91.40119,7.50184-137.11,11.16292,30.517-13.58,63.47144-12.91794,95.6577-15.134,67.88085-4.67348,135.8963-8.01671,203.35927,5.38456C1207.1302,585.73546,1216.41815,586.53263,1223.50773,593.19269Z" transform="translate(-252.3461 -267.0886)"/><path class="cls-4" d="M755.83151,833.33168q-2.158,20.84641-4.31818,41.68644C745.31667,860.32728,745.36764,846.29,755.83151,833.33168Z" transform="translate(-252.3461 -267.0886)"/><path class="cls-4" d="M1642.81643,718.35216q-25.703,2.27853-51.40532,4.557C1607.66418,711.44167,1624.60377,707.72077,1642.81643,718.35216Z" transform="translate(-252.3461 -267.0886)"/><path class="cls-4" d="M1652.43919,779.281q2.07222-21.279,4.14472-42.55786C1665.47736,751.90949,1663.06272,765.99482,1652.43919,779.281Z" transform="translate(-252.3461 -267.0886)"/><path class="cls-4" d="M1392.74425,959.34392q22.31964,1.973,44.64548,3.94346C1421.72264,970.915,1406.66182,971.60258,1392.74425,959.34392Z" transform="translate(-252.3461 -267.0886)"/><path class="cls-4" d="M783.38281,768.15517c-.281,11.6768-4.15458,21.595-14.00712,28.59092C772.0415,786.23773,776.22226,776.46657,783.38281,768.15517Z" transform="translate(-252.3461 -267.0886)"/><path class="cls-4" d="M765.66265,805.82136c.36438,10.64216,1.36374,21.53446-10.75194,27.26426C755.254,822.72127,759.21425,813.78049,765.66265,805.82136Z" transform="translate(-252.3461 -267.0886)"/><path class="cls-4" d="M816.07339,704.04477c1.1824,8.71167.17741,16.19691-10.3135,18.36881C807.20247,715.17271,809.95079,708.66081,816.07339,704.04477Z" transform="translate(-252.3461 -267.0886)"/><path class="cls-4" d="M1300.85084,850.10151q-2.60907,10.60338-5.2263,21.20922C1285.09393,861.21665,1296.197,856.45456,1300.85084,850.10151Z" transform="translate(-252.3461 -267.0886)"/><path class="cls-4" d="M761.83782,890.0254c6.66325.26035,11.8369,2.32717,12.27956,10.13511q-5.58266-1.68023-11.15658-3.37891Q762.39944,893.40351,761.83782,890.0254Z" transform="translate(-252.3461 -267.0886)"/><path class="cls-4" d="M838.98212,662.214c.31989,8.20048-1.31024,15.36976-9.966,18.82835C829.401,673.21445,833.57363,667.38718,838.98212,662.214Z" transform="translate(-252.3461 -267.0886)"/><path class="cls-4" d="M1574.94769,858.88244c-.05238-8.8637,5.62757-10.79221,12.97-10.714C1584.74278,853.127,1581.31415,857.78277,1574.94769,858.88244Z" transform="translate(-252.3461 -267.0886)"/><path class="cls-4" d="M1582.42277,727.246c-2.43209,7.18027-7.383,10.21535-14.8868,9.04149A23.92349,23.92349,0,0,1,1582.42277,727.246Z" transform="translate(-252.3461 -267.0886)"/><path class="cls-4" d="M1560.12,872.03744c.713-5.95883,3.71417-9.402,10.07753-9.15052C1569.12131,868.45308,1565.20919,870.89427,1560.12,872.03744Z" transform="translate(-252.3461 -267.0886)"/><path class="cls-4" d="M1237.16427,598.15924c-5.7067.5913-11.38383,1.10784-14.17748-5.642C1228.29166,592.93227,1233.65538,593.21824,1237.16427,598.15924Z" transform="translate(-252.3461 -267.0886)"/><path class="cls-4" d="M899.5836,593.13131c-1.74107,5.05046-5.78723,5.15723-10.10006,4.7029C891.61968,593.62949,895.62923,593.43966,899.5836,593.13131Z" transform="translate(-252.3461 -267.0886)"/><path class="cls-4" d="M890.0715,597.24074c-1.37444,4.9139-5.0658,5.90688-9.51633,5.62C882.4238,598.78418,886.10362,597.7684,890.0715,597.24074Z" transform="translate(-252.3461 -267.0886)"/><path class="cls-4" d="M1246.604,602.59588c-4.35563.43582-8.24129-.07271-9.95391-4.956C1240.5808,598.05543,1244.51123,598.48153,1246.604,602.59588Z" transform="translate(-252.3461 -267.0886)"/><path class="cls-4" d="M1255.73708,607.37043c-4.37985.28794-8.34125-.17483-9.66275-5.38654C1249.97294,602.558,1253.75666,603.3487,1255.73708,607.37043Z" transform="translate(-252.3461 -267.0886)"/><path class="cls-4" d="M1269.6248,616.59787c-4.428.27049-8.28014-.40773-9.35159-5.67722C1264.59533,610.824,1267.65508,612.814,1269.6248,616.59787Z" transform="translate(-252.3461 -267.0886)"/><path class="cls-4" d="M844.09438,652.30627c-.23738,4.39772-.60682,8.72709-5.54056,10.70135Q841.32045,657.6617,844.09438,652.30627Z" transform="translate(-252.3461 -267.0886)"/><path class="cls-4" d="M829.21209,680.55188c1.17732,4.69762.31988,8.31042-5.07735,9.50786C823.66561,685.739,825.173,682.46885,829.21209,680.55188Z" transform="translate(-252.3461 -267.0886)"/><path class="cls-4" d="M821.0122,695.12589c.26187,4.26483-.417,8.00276-5.27108,9.40579C816.021,700.57154,816.70275,696.83255,821.0122,695.12589Z" transform="translate(-252.3461 -267.0886)"/><path class="cls-4" d="M806.37319,722.06975c.81492,4.56579.234,8.409-5.08438,9.80565C801.64474,727.91688,802.233,724.072,806.37319,722.06975Z" transform="translate(-252.3461 -267.0886)"/><path class="cls-4" d="M1591.617,722.47587c-1.46511,4.91623-5.33612,5.30468-9.53969,5.06826C1583.97235,723.43843,1587.54207,722.48213,1591.617,722.47587Z" transform="translate(-252.3461 -267.0886)"/><path class="cls-4" d="M1657.06712,736.91537c-4.89769-1.42929-5.38766-5.22761-5.08326-9.45317C1656.70274,728.98713,1657.12766,732.82079,1657.06712,736.91537Z" transform="translate(-252.3461 -267.0886)"/><path class="cls-4" d="M801.72865,731.27918c.93939,4.66243.00535,8.33983-5.16041,9.79973C797.0461,737.16283,797.48566,733.219,801.72865,731.27918Z" transform="translate(-252.3461 -267.0886)"/><path class="cls-4" d="M797.0323,740.41c.91939,4.61829.12981,8.37432-5.0199,9.93747C792.28611,746.33263,792.99712,742.53156,797.0323,740.41Z" transform="translate(-252.3461 -267.0886)"/><path class="cls-4" d="M1376.58889,754.74356c-5.17365-1.1374-6.1702-4.78067-5.61321-9.36012C1375.1998,747.091,1376.42134,750.60155,1376.58889,754.74356Z" transform="translate(-252.3461 -267.0886)"/><path class="cls-4" d="M792.48716,749.67459c.8245,4.65413-.30327,8.26249-5.27051,9.82275C787.90739,755.65636,788.23544,751.61183,792.48716,749.67459Z" transform="translate(-252.3461 -267.0886)"/><path class="cls-4" d="M787.76519,758.79688c.73692,4.5344.04674,8.36778-4.96133,10.08831C783.3186,764.96757,783.93247,761.09048,787.76519,758.79688Z" transform="translate(-252.3461 -267.0886)"/><path class="cls-4" d="M1517.30431,772.37249c-1.36515,4.89139-5.079,5.84241-9.48112,5.64661A10.24307,10.24307,0,0,1,1517.30431,772.37249Z" transform="translate(-252.3461 -267.0886)"/><path class="cls-4" d="M1647.42492,788.31356c-.27821-4.37526.45477-8.15459,5.53352-9.37793C1652.67376,782.9784,1651.47,786.48443,1647.42492,788.31356Z" transform="translate(-252.3461 -267.0886)"/><path class="cls-4" d="M1503.52162,781.7091c-1.29277,4.83107-4.89318,5.91843-9.28739,5.72171C1496.15693,783.62305,1499.34114,781.85754,1503.52162,781.7091Z" transform="translate(-252.3461 -267.0886)"/><path class="cls-4" d="M1489.695,790.92339c-1.21929,4.96535-4.97823,5.818-9.31048,5.74683C1482.32919,792.88062,1485.68264,791.36821,1489.695,790.92339Z" transform="translate(-252.3461 -267.0886)"/><path class="cls-4" d="M769.9338,796.14459c.28328,4.20916.187,8.2413-4.69185,10.04319C765.48046,802.22328,765.96564,798.37069,769.9338,796.14459Z" transform="translate(-252.3461 -267.0886)"/><path class="cls-4" d="M1475.87318,800.15864c-1.47159,4.83987-5.1973,5.74937-9.59348,5.49732C1468.39134,801.93309,1471.67411,800.24627,1475.87318,800.15864Z" transform="translate(-252.3461 -267.0886)"/><path class="cls-4" d="M1462.07613,809.37053c-1.98633,4.87379-6.177,5.5366-10.688,5.592C1454.11784,811.5102,1457.4406,809.18606,1462.07613,809.37053Z" transform="translate(-252.3461 -267.0886)"/><path class="cls-4" d="M1541.97157,886.36791c.769-5.25991,4.4936-6.13077,8.90133-5.9912C1549.11606,884.16863,1546.392,886.528,1541.97157,886.36791Z" transform="translate(-252.3461 -267.0886)"/><path class="cls-4" d="M1374.38657,949.59043c4.4463-.48481,8.0729.39534,9.16462,5.50316C1379.17839,955.45712,1375.97615,953.86553,1374.38657,949.59043Z" transform="translate(-252.3461 -267.0886)"/><path class="cls-4" d="M1383.19245,954.94409c4.73662-1.22453,8.2348-.20742,9.335,5.15976C1388.15969,960.65868,1384.87635,959.24608,1383.19245,954.94409Z" transform="translate(-252.3461 -267.0886)"/><path class="cls-4" d="M1647.49082,723.01184q-2.46-2.42613-4.92078-4.852C1645.61853,718.34821,1647.82056,719.39623,1647.49082,723.01184Z" transform="translate(-252.3461 -267.0886)"/><path class="cls-4" d="M1369.71472,944.88q2.487,2.46909,4.97625,4.93776C1371.69289,949.52265,1369.61813,948.29544,1369.71472,944.88Z" transform="translate(-252.3461 -267.0886)"/><path class="cls-4" d="M1365.03977,940.34363q2.47053,2.45662,4.94471,4.911C1366.73128,945.23522,1364.645,944.03926,1365.03977,940.34363Z" transform="translate(-252.3461 -267.0886)"/><path class="cls-4" d="M1360.18939,935.94267q2.56091,2.3632,5.12605,4.72381C1361.79557,941.06006,1359.92554,939.66,1360.18939,935.94267Z" transform="translate(-252.3461 -267.0886)"/><path class="cls-4" d="M1355.348,931.50392c2.96768.22594,4.77013,1.73222,5.21054,4.73824C1356.95617,936.71668,1355.20609,935.15065,1355.348,931.50392Z" transform="translate(-252.3461 -267.0886)"/><path class="cls-4" d="M1350.43371,927.17483a5.18913,5.18913,0,0,1,5.46735,4.59381C1352.26123,932.40385,1350.68179,930.582,1350.43371,927.17483Z" transform="translate(-252.3461 -267.0886)"/><path class="cls-4" d="M1345.74271,922.559a5.32434,5.32434,0,0,1,5.33274,4.87414C1347.55446,927.71946,1345.91589,925.94052,1345.74271,922.559Z" transform="translate(-252.3461 -267.0886)"/><path class="cls-4" d="M1341.001,918.07352q4.68.25908,5.33725,4.9049C1342.92428,923.12559,1341.26684,921.35565,1341.001,918.07352Z" transform="translate(-252.3461 -267.0886)"/><path class="cls-4" d="M1336.45335,913.30587q2.67116,2.51332,5.34739,5.02919C1338.26284,918.53073,1336.6192,916.70413,1336.45335,913.30587Z" transform="translate(-252.3461 -267.0886)"/><path class="cls-4" d="M1331.83894,908.7728a5.292,5.292,0,0,1,5.12183,5.13815C1333.65294,913.79679,1331.81134,912.21506,1331.83894,908.7728Z" transform="translate(-252.3461 -267.0886)"/><path class="cls-4" d="M1327.18905,904.22313a5.21933,5.21933,0,0,1,5.19589,4.99865C1328.8952,909.38535,1327.24368,907.63315,1327.18905,904.22313Z" transform="translate(-252.3461 -267.0886)"/><path class="cls-4" d="M1322.57886,899.63981a5.18244,5.18244,0,0,1,5.1683,4.99246C1324.27065,904.78585,1322.55662,903.11,1322.57886,899.63981Z" transform="translate(-252.3461 -267.0886)"/><path class="cls-4" d="M1317.97037,895.02243a5.1065,5.1065,0,0,1,5.11366,5.00421C1319.55825,900.22076,1317.90222,898.50122,1317.97037,895.02243Z" transform="translate(-252.3461 -267.0886)"/><path class="cls-4" d="M1532.01456,895.84437q2.56176-3.17053,5.11535-6.34833C1537.40474,893.20217,1534.6339,894.46253,1532.01456,895.84437Z" transform="translate(-252.3461 -267.0886)"/><path class="cls-4" d="M1313.35877,890.41638q4.6192.37565,5.10269,4.99091C1314.91765,895.62872,1313.28331,893.89517,1313.35877,890.41638Z" transform="translate(-252.3461 -267.0886)"/><path class="cls-4" d="M1537.01362,890.59241q2.59977-2.59758,5.20068-5.19974C1542.52911,889.16883,1540.099,890.20805,1537.01362,890.59241Z" transform="translate(-252.3461 -267.0886)"/><path class="cls-4" d="M1308.74155,885.818q4.626.34757,5.119,4.96614C1310.29677,891.04427,1308.68467,889.28961,1308.74155,885.818Z" transform="translate(-252.3461 -267.0886)"/><path class="cls-4" d="M1304.08405,881.26594q4.65891.26868,5.15873,4.91489C1305.69052,886.46715,1304.12348,884.66681,1304.08405,881.26594Z" transform="translate(-252.3461 -267.0886)"/><path class="cls-4" d="M1550.39363,880.75974q2.56176-2.54,5.12127-5.08382C1555.35665,878.92765,1553.25261,880.22327,1550.39363,880.75974Z" transform="translate(-252.3461 -267.0886)"/><path class="cls-4" d="M1299.71434,876.25265q2.44012,2.636,4.87939,5.27807C1300.99924,881.59188,1299.41473,879.79182,1299.71434,876.25265Z" transform="translate(-252.3461 -267.0886)"/><path class="cls-4" d="M1555.13081,876.21408q2.63821-2.47659,5.27643-4.95713C1560.25575,874.61552,1558.21281,875.96717,1555.13081,876.21408Z" transform="translate(-252.3461 -267.0886)"/><path class="cls-4" d="M1295.96554,871.00582q2.08194,2.8326,4.16415,5.66871C1296.4893,876.44036,1294.67276,874.86419,1295.96554,871.00582Z" transform="translate(-252.3461 -267.0886)"/><path class="cls-4" d="M1569.59974,862.965c.37676-3.02045,2.04039-4.72,5.11648-4.97451C1575.033,861.72742,1573.1365,863.19063,1569.59974,862.965Z" transform="translate(-252.3461 -267.0886)"/><path class="cls-4" d="M1587.22274,848.43771q2.83716-2.36268,5.67094-4.72232Q1590.05526,846.07954,1587.22274,848.43771Z" transform="translate(-252.3461 -267.0886)"/><path class="cls-4" d="M1466.85189,805.16236q-2.849,2.394-5.70275,4.791Q1463.99516,807.56071,1466.85189,805.16236Z" transform="translate(-252.3461 -267.0886)"/><path class="cls-4" d="M1480.89336,796.24552q-2.84984,2.33269-5.70247,4.6689C1475.57835,797.51545,1478.07774,796.68753,1480.89336,796.24552Z" transform="translate(-252.3461 -267.0886)"/><path class="cls-4" d="M1642.55821,795.00057q2.487-3.61142,4.97175-7.22474Q1645.04169,791.3862,1642.55821,795.00057Z" transform="translate(-252.3461 -267.0886)"/><path class="cls-4" d="M1494.73293,787.03778q-2.83039,2.36605-5.66361,4.73556C1489.50268,788.461,1491.87648,787.46114,1494.73293,787.03778Z" transform="translate(-252.3461 -267.0886)"/><path class="cls-4" d="M1508.39312,777.52205q-2.73451,2.50953-5.47072,5.0237C1503.13021,779.11786,1505.62369,778.16993,1508.39312,777.52205Z" transform="translate(-252.3461 -267.0886)"/><path class="cls-4" d="M1522.17694,767.65911q-2.631,2.9068-5.25869,5.82038C1516.75606,769.81524,1519.50606,768.77279,1522.17694,767.65911Z" transform="translate(-252.3461 -267.0886)"/><path class="cls-4" d="M1380.98169,759.655q-2.838-2.53941-5.68361-5.07375C1379.01929,754.22068,1379.94881,756.99577,1380.98169,759.655Z" transform="translate(-252.3461 -267.0886)"/><path class="cls-4" d="M1652.13592,727.65554q-2.4004-2.463-4.8042-4.92179C1650.90143,722.4513,1652.14465,724.44182,1652.13592,727.65554Z" transform="translate(-252.3461 -267.0886)"/><path class="cls-4" d="M824.79958,689.62864c.11714,3.00418-1.19592,4.97352-4.16077,5.75049C820.75032,692.5421,821.21635,689.95867,824.79958,689.62864Z" transform="translate(-252.3461 -267.0886)"/><path class="cls-4" d="M1275.88116,621.56211q-3.51678-2.59263-7.038-5.1832Q1272.35734,618.97226,1275.88116,621.56211Z" transform="translate(-252.3461 -267.0886)"/><path class="cls-4" d="M1260.75839,611.727q-2.781-2.40279-5.56562-4.80918C1258.03316,607.3762,1260.56719,608.19673,1260.75839,611.727Z" transform="translate(-252.3461 -267.0886)"/><path class="cls-4" d="M881.21522,602.65162q-3.51551,2.56148-7.035,5.12689Q877.69324,605.21873,881.21522,602.65162Z" transform="translate(-252.3461 -267.0886)"/><path class="cls-5" d="M497.1317,1231.80128c-1.01147-8.18408-3.7871-14.74229-13.6326-14.78987l.72707.07841c-2.50193-17.04694-5.71852-34.03236-4.42406-51.406l-.1912.3919q2.24034-2.76989,4.4801-5.53723s-.87152.238-.86561.238q8.72139-1.15944,9.52055-9.91031s-.55755.17272-.55079.17976c23.83825-13.14993,49.76984-14.34969,76.08806-13.34869,0,0-.44351-.59756-.44238-.59263,22.92337,13.46989,47.34649,22.27025,74.09835,23.83178,0,0-.43055-.63261-.42689-.62825,1.885,5.17208,5.86861,5.23486,10.28872,4.23837,0,0-.5705-.54491-.56627-.5352,2.63,7.25318,8.32407,6.551,14.16255,5.47459,0,0-.54713-.61642-.54094-.61009,2.96768,6.8192,8.707,6.08,14.45457,5.31848,0,0-.68652-.61262-.68145-.6053,3.02934,6.62409,8.707,6.05553,14.4402,5.33663,0,0-.71214-.62149-.70595-.61586,3.15972,6.536,8.82249,5.99022,14.58184,5.17194,0,0-.53868-.69553-.53614-.68681,2.48136,6.78922,8.30689,6.04146,13.76325,6.12437a123.28058,123.28058,0,0,0,35.50424,11.91554c10.10259,11.68454,22.76427,14.87644,37.46466,11.32277q2.468-.35241,4.9281-.69849c6.27213-.30209,9.21558-3.4664,8.41812-9.83317,0,0-.51531.78647-.50827.7838,4.96583-1.17246,5.83144-4.93475,5.85425-9.23083l-.33059.45764c6.86263-2.542,10.39658-7.12945,9.05452-14.71583l-.4069.65668c4.95176-1.52014,5.59209-5.3462,5.21392-9.7183,0,0-.51278.55983-.50884.55674,5.02413-1.48848,5.4651-5.42476,5.21279-9.7321l-.42745.60952c4.61835-1.629,5.18012-5.48049,5.2691-9.59189l-.363.422q2.21879-2.87693,4.43644-5.74837s-.751.66386-.749.65851c4.96781-1.663,5.90944-5.30595,4.89262-9.915,0,0-.51587.39809-.50573.3988,10.28422-2.1964,11.56038-9.53488,10.43965-18.24318,0,0-.54487.03-.54065.02956,10.38137-.21945,10.677-6.64239,8.85121-14.3708a2.14975,2.14975,0,0,0-.16192.16259c14.89891-7.59708,19.02167-21.02108,19.66679-36.32588,0,0-.77325-.1932-.77437-.1887q10.35138,2.15513,20.70754,4.30207c.00253.00084-.53164.02175-.53221.02632-.2171,4.2245.07744,8.19478,4.86785,9.96943l-.50827-.524c.09686,4.11252.60654,7.99362,5.30289,9.55072l-.54459-.51831c.1132,4.51779,1.34177,8.293,6.33886,9.57275,23.9492,35.49,59.80965,58.76026,90.92728,86.70667,10.9085,9.79685,9.98826,16.92067,6.58638,27.38517a22.5497,22.5497,0,0,0-2.77366.5017c-9.099-1.34222-8.4032,5.35324-9.01622,10.974l.29032-.529q-2.4325,2.753-4.86446,5.50035s.84308-.53928.838-.5359q-2.56429,2.73018-5.11846,5.45332s.74875-.57362.74284-.5701q-2.5398,2.65015-5.06749,5.29313s.75016-.42.74452-.41878c-5.24066.80857-6.13612,4.50442-5.94576,8.92311l.31763-.49213q-2.53515,2.511-5.06833,5.01681l.62907-.20664q-2.49926,2.57667-4.99653,5.14758s.61894-.27182.61443-.27225c-5.94379.83518-9.23642,3.9498-8.83262,10.24787,0,0,.23231-.64542.22724-.64471-5.14239.70876-6.068,4.40376-6.16709,8.68506l.3058-.43272q-2.50263,2.57563-5.00525,5.14674l.51587-.43792q-2.45574,2.064-4.909,4.12335a389.88193,389.88193,0,0,1-71.28584,73.705c-33.76823,26.72667-69.51463,12.75438-104.62182,1.79183-2.87728-6.32735-8.49443-5.773-13.97558-5.56031l.44351.49944c-3.1127-6.35156-8.92724-5.174-14.32813-5.14716l.40971.461c-4.49248-11.4116-14.09975-10.26336-23.51724-9.58077,0,0,.33143.57939.33.575-3.32951-9.59485-10.33068-11.1865-19.15936-8.79824,0,0,.31313.184.31.1799-2.50361-7.25023-8.31281-6.22615-13.96713-5.589,0,0,.52123.53449.51869.52942-4.15908-7.79992-10.81529-10.32669-19.23849-9.13031,0,0,.39113.40442.38832.39837-2.27919-7.249-8.19116-6.13929-13.69652-5.96417l.46546.36163c-1.85426-4.599-5.77456-4.92841-9.91533-4.80327l.56459.54351c-4.3745-7.52247-11.25317-9.75476-19.444-9.22055,0,0,.65807.66118.653.65414-1.7-5.06776-5.44-5.88267-10.0688-4.85309,0,0,.72312.28125.7189.27478-4.63694-9.59471-13.40451-10.53039-22.51084-10.75717l-.11433-.061c-3.72233-8.20238-10.83078-9.48392-18.7274-9.15354l.43478.25859c-2.057-3.95106-5.72754-4.69305-9.68162-4.87182l.48208.30392c-1.92016-4.22626-5.78357-4.62506-9.69654-4.92658l.40014.2728c-2.88235-6.74332-7.60714-10.09879-15.16417-8.25361,0,0,.63921.40569.63611.39654-1.24772-5.072-4.84-6.19095-9.43691-5.62155,0,0,.45927.62628.45674.6191-1.23477-5.49542-5.23588-5.83059-9.73681-5.235,0,0,.5843.5352.58177.52844-1.21535-5.37309-5.32881-5.56862-9.64051-5.41082,0,0,.586.57265.58346.56786-1.38345-5.01991-5.406-5.35507-9.5856-5.4118l.49194.41934q-2.8473-2.27853-5.68924-4.55326s.49926.84629.4956.84151c-1.26969-5.21093-4.96893-6.123-9.57884-5.42729Z" transform="translate(-252.3461 -267.0886)"/><path class="cls-4" d="M931.34578,948.45408a405.73965,405.73965,0,0,0-9.0945,102.73529C909.86415,1015.579,914.08068,981.43933,931.34578,948.45408Z" transform="translate(-252.3461 -267.0886)"/><path class="cls-4" d="M954.26549,902.07115c-2.22709,18.40358-9.55011,34.22992-23.61242,46.65151C935.84,931.8165,944.05843,916.44069,954.26549,902.07115Z" transform="translate(-252.3461 -267.0886)"/><path class="cls-4" d="M774.55919,899.19583q16.73066.00232,33.46553.01014C796.86813,907.6777,785.71155,907.84824,774.55919,899.19583Z" transform="translate(-252.3461 -267.0886)"/><path class="cls-4" d="M921.13281,1051.13905c9.57264,5.311,11.50434,13.70124,9.53237,23.667C923.36919,1068.57534,921.96378,1059.97277,921.13281,1051.13905Z" transform="translate(-252.3461 -267.0886)"/><path class="cls-4" d="M1004.98965,805.22113c1.31164,8.69886.39986,16.22112-9.93871,18.75979C996.23193,816.60063,999.24071,810.18473,1004.98965,805.22113Z" transform="translate(-252.3461 -267.0886)"/><path class="cls-4" d="M900.36782,774.84092c-.90672-7.53746-.64653-14.27656,9.6788-14.1303C908.34413,766.46209,905.57442,771.48622,900.36782,774.84092Z" transform="translate(-252.3461 -267.0886)"/><path class="cls-4" d="M930.32249,1074.47857c8.43783,3.38045,10.27689,10.47246,10.41994,18.522C934.8389,1088.19529,931.09235,1082.17369,930.32249,1074.47857Z" transform="translate(-252.3461 -267.0886)"/><path class="cls-4" d="M909.56848,760.93753c-1.03681-7.60214-.46574-14.11059,9.6284-14.145C917.41723,752.47861,914.8528,757.63372,909.56848,760.93753Z" transform="translate(-252.3461 -267.0886)"/><path class="cls-4" d="M1050.30446,717.17837c1.22126,4.70107.38466,8.37439-4.91824,9.825Q1047.83477,722.09336,1050.30446,717.17837Z" transform="translate(-252.3461 -267.0886)"/><path class="cls-4" d="M1045.87619,726.43108c1.02188,4.63012.091,8.30169-4.90586,9.98632C1041.14661,732.37773,1042.3566,728.83694,1045.87619,726.43108Z" transform="translate(-252.3461 -267.0886)"/><path class="cls-4" d="M918.66608,747.02929c-.38127-4.38617.48575-8.0742,5.33444-9.53987A9.18857,9.18857,0,0,1,918.66608,747.02929Z" transform="translate(-252.3461 -267.0886)"/><path class="cls-4" d="M1041.304,735.68823c1.09257,4.71852.03971,8.31984-5.1086,9.79727C1036.40886,741.44836,1037.50959,737.86562,1041.304,735.68823Z" transform="translate(-252.3461 -267.0886)"/><path class="cls-4" d="M1033.279,750.35732c-.14079,4.01665-.52939,7.907-4.965,9.73744Q1030.79593,755.22869,1033.279,750.35732Z" transform="translate(-252.3461 -267.0886)"/><path class="cls-4" d="M1028.66627,759.61038c-.08335,4.05459-.48011,7.94632-5.03313,9.68057C1023.92712,765.347,1024.99772,761.80368,1028.66627,759.61038Z" transform="translate(-252.3461 -267.0886)"/><path class="cls-4" d="M1024.01244,768.80988c.00563,4.16489-.57445,8.00924-5.26319,9.6097C1019.25977,774.53841,1020.05751,770.80962,1024.01244,768.80988Z" transform="translate(-252.3461 -267.0886)"/><path class="cls-4" d="M891.052,788.63838c-.33424-4.37224.0994-8.30859,5.391-9.49216C896.786,783.5224,894.87823,786.62505,891.052,788.63838Z" transform="translate(-252.3461 -267.0886)"/><path class="cls-4" d="M1019.22654,777.82561c.20809,4.28053-.34692,8.15783-5.17337,9.78327C1014.52033,783.68639,1015.27753,779.91221,1019.22654,777.82561Z" transform="translate(-252.3461 -267.0886)"/><path class="cls-4" d="M1014.55046,786.9933c.24358,4.35471-.35339,8.24088-5.38991,9.65819C1009.88565,792.83768,1010.47558,788.94258,1014.55046,786.9933Z" transform="translate(-252.3461 -267.0886)"/><path class="cls-4" d="M881.64859,802.32653c-.085-4.2623.77127-7.98236,5.46847-9.49441C887.29587,797.14481,885.18648,800.14654,881.64859,802.32653Z" transform="translate(-252.3461 -267.0886)"/><path class="cls-4" d="M1009.72007,796.02036c.43337,4.4163-.14079,8.30788-5.15647,9.89278C1005.06173,801.98348,1005.78035,798.16242,1009.72007,796.02036Z" transform="translate(-252.3461 -267.0886)"/><path class="cls-4" d="M872.355,816.62005c.163-4.31058.93206-8.27909,5.65742-10.02144Q875.1854,811.60332,872.355,816.62005Z" transform="translate(-252.3461 -267.0886)"/><path class="cls-4" d="M995.50852,823.53652c.85744,4.62583.15657,8.40811-5.23616,9.657C990.45427,829.13069,991.27708,825.40887,995.50852,823.53652Z" transform="translate(-252.3461 -267.0886)"/><path class="cls-4" d="M990.68348,832.72828c1.09032,4.59486.40268,8.31077-4.83855,9.78115C985.40565,838.23763,986.68379,834.80988,990.68348,832.72828Z" transform="translate(-252.3461 -267.0886)"/><path class="cls-4" d="M982.56244,847.32917c-.051,4.085-.56938,7.91887-5.14633,9.57612C977.77344,852.98619,978.83475,849.44152,982.56244,847.32917Z" transform="translate(-252.3461 -267.0886)"/><path class="cls-4" d="M977.82441,856.39205c.10982,4.196-.334,8.09821-5.14323,9.68846C973.10891,862.17105,973.88413,858.44156,977.82441,856.39205Z" transform="translate(-252.3461 -267.0886)"/><path class="cls-4" d="M836.18509,871.92447c-.82-4.66327-.01718-8.35623,5.52423-9.21963A8.83836,8.83836,0,0,1,836.18509,871.92447Z" transform="translate(-252.3461 -267.0886)"/><path class="cls-4" d="M973.17818,865.57727c.09067,4.17051-.5108,7.984-5.04327,9.77447C968.5435,871.44,969.1399,867.62093,973.17818,865.57727Z" transform="translate(-252.3461 -267.0886)"/><path class="cls-4" d="M826.60147,885.51219c-.72059-4.66546.17064-8.3088,5.71965-8.9987C833.16279,881.26164,830.51923,883.79243,826.60147,885.51219Z" transform="translate(-252.3461 -267.0886)"/><path class="cls-4" d="M968.57419,874.77663c.02731,4.15672-.49982,8.024-5.10212,9.7682Q966.02032,879.66365,968.57419,874.77663Z" transform="translate(-252.3461 -267.0886)"/><path class="cls-4" d="M963.94035,883.94833c-.01408,4.20022-.58542,8.09575-5.3181,9.72259C959.26878,889.81791,960.0868,886.05287,963.94035,883.94833Z" transform="translate(-252.3461 -267.0886)"/><path class="cls-4" d="M808.25731,900.14749c.87208-5.361,4.40772-6.45024,9.10943-5.674C816.00046,899.044,812.45074,900.11258,808.25731,900.14749Z" transform="translate(-252.3461 -267.0886)"/><path class="cls-4" d="M959.10771,892.97891c.294,4.39251-.23344,8.33041-5.38484,9.71464C954.50344,898.8967,955.1708,895.03109,959.10771,892.97891Z" transform="translate(-252.3461 -267.0886)"/><path class="cls-4" d="M905.14556,1082.87879c-4.79041-1.77465-5.085-5.74493-4.86785-9.96943C904.1752,1075.1199,904.70205,1078.97911,905.14556,1082.87879Z" transform="translate(-252.3461 -267.0886)"/><path class="cls-4" d="M915.73445,1100.9598c-4.99709-1.27958-6.22566-5.05482-6.33886-9.57261Q912.56431,1096.16957,915.73445,1100.9598Z" transform="translate(-252.3461 -267.0886)"/><path class="cls-4" d="M944.42393,1097.41077c4.93824,1.04745,5.7357,4.83255,5.95337,9.00208A10.514,10.514,0,0,1,944.42393,1097.41077Z" transform="translate(-252.3461 -267.0886)"/><path class="cls-4" d="M973.15312,1129.18986c4.21146.23072,7.81355,1.34405,8.8881,6.13155C977.84187,1135.07577,975.06821,1132.75494,973.15312,1129.18986Z" transform="translate(-252.3461 -267.0886)"/><path class="cls-4" d="M909.94018,1091.9055c-4.69635-1.5571-5.206-5.4382-5.30289-9.55072Q907.28733,1087.12817,909.94018,1091.9055Z" transform="translate(-252.3461 -267.0886)"/><path class="cls-4" d="M986.269,1138.70264q2.70748,3.13369,5.41751,6.27133Q988.98028,1141.84218,986.269,1138.70264Z" transform="translate(-252.3461 -267.0886)"/><path class="cls-4" d="M981.32485,1134.50749q2.77254,2.56506,5.5507,5.13322C983.82931,1139.22967,981.63488,1137.88731,981.32485,1134.50749Z" transform="translate(-252.3461 -267.0886)"/><path class="cls-4" d="M968.33681,1124.55664q2.60146,2.46329,5.20519,4.92714Q970.94138,1127.02092,968.33681,1124.55664Z" transform="translate(-252.3461 -267.0886)"/><path class="cls-4" d="M963.56161,1120.0321q2.65089,2.51628,5.30515,5.03285Q966.21757,1122.54909,963.56161,1120.0321Z" transform="translate(-252.3461 -267.0886)"/><path class="cls-4" d="M958.9565,1115.39268q2.60061,2.60856,5.20462,5.21881Q961.56219,1118.004,958.9565,1115.39268Z" transform="translate(-252.3461 -267.0886)"/><path class="cls-4" d="M954.45134,1110.72286q2.547,2.63791,5.09649,5.2778Q957.003,1113.36359,954.45134,1110.72286Z" transform="translate(-252.3461 -267.0886)"/><path class="cls-4" d="M950.08952,1106.01631q2.45363,2.61594,4.91064,5.23232Q952.5478,1108.63289,950.08952,1106.01631Z" transform="translate(-252.3461 -267.0886)"/><path class="cls-4" d="M940.2719,1092.46026q2.487,2.73462,4.97794,5.47079C941.8319,1097.71173,940.828,1095.28983,940.2719,1092.46026Z" transform="translate(-252.3461 -267.0886)"/><path class="cls-4" d="M816.97927,894.52778q2.4097-2.5163,4.8149-5.03666C822.05858,892.9535,820.21164,894.4013,816.97927,894.52778Z" transform="translate(-252.3461 -267.0886)"/><path class="cls-4" d="M821.52328,889.78025q2.626-2.37155,5.25446-4.745C826.37451,888.10646,824.9674,890.07087,821.52328,889.78025Z" transform="translate(-252.3461 -267.0886)"/><path class="cls-4" d="M831.5704,876.70951c.0535-3.28192,1.83991-4.87133,5.01061-5.11852C836.06232,874.41957,835.49069,877.20621,831.5704,876.70951Z" transform="translate(-252.3461 -267.0886)"/><path class="cls-4" d="M840.90735,862.84265q1.98056-2.89425,3.96112-5.78526C845.1678,860.09719,844.62039,862.55394,840.90735,862.84265Z" transform="translate(-252.3461 -267.0886)"/><path class="cls-4" d="M986.6362,842.03434q-2.21415,2.82372-4.42941,5.64963C982.4912,844.86862,982.93583,842.17617,986.6362,842.03434Z" transform="translate(-252.3461 -267.0886)"/><path class="cls-4" d="M877.23861,807.49614q2.3907-2.87556,4.78365-5.75464Q879.6324,804.61538,877.23861,807.49614Z" transform="translate(-252.3461 -267.0886)"/><path class="cls-4" d="M886.617,793.64709q2.44223-2.78751,4.88867-5.57833C890.96583,790.87841,889.95858,793.28567,886.617,793.64709Z" transform="translate(-252.3461 -267.0886)"/><path class="cls-4" d="M895.72216,779.56641q2.52375-2.63949,5.05256-5.28145C900.15832,777.062,899.38367,779.69528,895.72216,779.56641Z" transform="translate(-252.3461 -267.0886)"/><path class="cls-4" d="M1037.00161,744.757q-2.03759,3.03414-4.07658,6.07074Q1034.96178,747.79514,1037.00161,744.757Z" transform="translate(-252.3461 -267.0886)"/><path class="cls-4" d="M923.52576,738.13181q1.97971-2.93289,3.95859-5.86719C927.9622,735.43147,927.049,737.6615,923.52576,738.13181Z" transform="translate(-252.3461 -267.0886)"/><path class="cls-4" d="M1051.437,714.53778q.66525.66418,1.33079,1.32828c-.97261.33426-1.94522.66858-2.92487.99537A2.23382,2.23382,0,0,1,1051.437,714.53778Z" transform="translate(-252.3461 -267.0886)"/><path class="cls-4" d="M1319.9429,1346.53812c-1.13-14.76355,2.87869-28.8638,8.30267-42.00162,14.73587-35.69158,10.78658-71.02814.73889-106.63385,20.06439,22.27166,16.86666,49.09616,13.09364,75.12081C1338.39575,1298.42044,1331.53229,1323.30277,1319.9429,1346.53812Z" transform="translate(-252.3461 -267.0886)"/><path class="cls-4" d="M1269.32913,1484.98554c.88166-24.2386,8.6876-45.90369,24.08042-64.75442C1288.19676,1442.85878,1281.01426,1464.75923,1269.32913,1484.98554Z" transform="translate(-252.3461 -267.0886)"/><path class="cls-4" d="M1222.99411,1590.92075c-.19739-5.53779-1.239-11.44706,6.0401-13.69864C1228.92552,1582.62463,1227.48772,1587.44675,1222.99411,1590.92075Z" transform="translate(-252.3461 -267.0886)"/><path class="cls-4" d="M1259.982,1509.15446c.22753-5.71713-1.56817-12.18891,5.70557-15.28481C1265.46178,1499.58579,1264.0558,1504.868,1259.982,1509.15446Z" transform="translate(-252.3461 -267.0886)"/><path class="cls-4" d="M1296.93027,1411.172c-.05294-5.49049-.84956-11.26266,5.44566-14.35377C1301.76967,1402.05706,1301.45063,1407.41157,1296.93027,1411.172Z" transform="translate(-252.3461 -267.0886)"/><path class="cls-4" d="M1315.40874,1361.22945c.1898-5.5713-1.22913-11.665,4.967-15.29044C1319.98063,1351.44245,1319.45519,1356.90775,1315.40874,1361.22945Z" transform="translate(-252.3461 -267.0886)"/><path class="cls-4" d="M1325.94893,1192.66231c-5.3136-.8912-6.3552-4.48908-5.77512-9.11864C1323.94007,1185.41532,1326.4144,1188.1089,1325.94893,1192.66231Z" transform="translate(-252.3461 -267.0886)"/><path class="cls-4" d="M1306.29228,1385.64358c.07828-4.80439.38944-9.518,4.91346-12.59474C1310.63129,1377.65785,1310.297,1382.36652,1306.29228,1385.64358Z" transform="translate(-252.3461 -267.0886)"/><path class="cls-4" d="M1301.80233,1397.60431c-.1819-4.06508.08645-7.93985,4.29453-10.14426C1305.82343,1391.33382,1305.7046,1395.26968,1301.80233,1397.60431Z" transform="translate(-252.3461 -267.0886)"/><path class="cls-4" d="M1292.92071,1420.71888c-.74424-4.36449-.16642-8.133,4.53275-10.04741C1297.00038,1414.49555,1297.3366,1418.6793,1292.92071,1420.71888Z" transform="translate(-252.3461 -267.0886)"/><path class="cls-4" d="M1265.23059,1494.61839c-.6026-4.3728-.44463-8.3941,4.68368-10.12343C1269.42994,1488.36424,1269.46176,1492.47774,1265.23059,1494.61839Z" transform="translate(-252.3461 -267.0886)"/><path class="cls-4" d="M1237.46923,1559.25555c-.39254-4.42221.65075-8.07189,5.27051-9.79221Q1240.10238,1554.36332,1237.46923,1559.25555Z" transform="translate(-252.3461 -267.0886)"/><path class="cls-4" d="M1233.32986,1568.61348c-1.06356-4.63392-.18923-8.33244,4.84841-10.0301C1237.65367,1562.44942,1237.1668,1566.34178,1233.32986,1568.61348Z" transform="translate(-252.3461 -267.0886)"/><path class="cls-4" d="M1228.72784,1577.75492c-1.19535-4.77638-.22105-8.37482,5.20547-9.56388C1233.35155,1572.0026,1232.807,1575.84231,1228.72784,1577.75492Z" transform="translate(-252.3461 -267.0886)"/><path class="cls-4" d="M1218.39829,1600.20113c-.22555-4.23879.24639-8.11539,5.061-9.74125C1223.11548,1594.40193,1222.26283,1598.08384,1218.39829,1600.20113Z" transform="translate(-252.3461 -267.0886)"/><path class="cls-4" d="M1213.70532,1609.37649c.00985-4.13054.46546-8.026,5.12155-9.71141C1218.509,1603.63177,1217.58309,1607.28229,1213.70532,1609.37649Z" transform="translate(-252.3461 -267.0886)"/><path class="cls-4" d="M1205.0056,1623.54388c-.5843-4.40855.15516-8.12172,5.06862-9.64693C1210.68583,1618.318,1208.58742,1621.32046,1205.0056,1623.54388Z" transform="translate(-252.3461 -267.0886)"/><path class="cls-4" d="M1209.38686,1614.40723q2.362-2.74306,4.72535-5.4888C1213.69968,1611.74532,1213.09962,1614.4154,1209.38686,1614.40723Z" transform="translate(-252.3461 -267.0886)"/><path class="cls-4" d="M1329.19791,1198.24768q-2.071-2.81571-4.14275-5.63323C1329.01488,1192.59516,1328.59221,1195.79931,1329.19791,1198.24768Z" transform="translate(-252.3461 -267.0886)"/><path class="cls-4" d="M1320.17381,1184.36365q-2.57655-3.54165-5.15676-7.08652Q1317.59148,1180.81688,1320.17381,1184.36365Z" transform="translate(-252.3461 -267.0886)"/><path class="cls-4" d="M723.83363,1341.69361c9.41749-.68259,19.02476-1.83083,23.51724,9.58077C738.78182,1349.876,730.44705,1347.896,723.83363,1341.69361Z" transform="translate(-252.3461 -267.0886)"/><path class="cls-4" d="M599.78212,1286.09456c9.10633.22678,17.8739,1.16246,22.51084,10.75717A46.06283,46.06283,0,0,1,599.78212,1286.09456Z" transform="translate(-252.3461 -267.0886)"/><path class="cls-4" d="M705.00429,1333.4704c8.82868-2.38826,15.82985-.79661,19.15936,8.79824C716.92426,1341.1967,709.82229,1339.81816,705.00429,1333.4704Z" transform="translate(-252.3461 -267.0886)"/><path class="cls-4" d="M672.62739,1319.46038c8.4232-1.19638,15.07941,1.33039,19.23849,9.13031C684.54877,1327.45836,677.58872,1325.56335,672.62739,1319.46038Z" transform="translate(-252.3461 -267.0886)"/><path class="cls-4" d="M630.98986,1300.7759c8.19088-.53421,15.06955,1.69808,19.444,9.22055C642.97431,1308.99137,636.21222,1306.50626,630.98986,1300.7759Z" transform="translate(-252.3461 -267.0886)"/><path class="cls-4" d="M580.94039,1276.88007c7.89662-.33038,15.00507.95116,18.7274,9.15354C592.72182,1284.418,586.22921,1281.88013,580.94039,1276.88007Z" transform="translate(-252.3461 -267.0886)"/><path class="cls-4" d="M1001.45823,1226.52743c.613-5.62071-.08279-12.31617,9.01622-10.974Q1005.9693,1221.036,1001.45823,1226.52743Z" transform="translate(-252.3461 -267.0886)"/><path class="cls-4" d="M547.71506,1259.66337c7.557-1.84518,12.28182,1.51029,15.16417,8.25361C556.96247,1266.75073,551.74715,1264.29363,547.71506,1259.66337Z" transform="translate(-252.3461 -267.0886)"/><path class="cls-4" d="M760.82578,1355.46108c5.48115-.2127,11.0983-.767,13.97558,5.56031C769.824,1359.96733,764.15333,1360.65793,760.82578,1355.46108Z" transform="translate(-252.3461 -267.0886)"/><path class="cls-4" d="M746.94116,1350.81336c5.40089-.02688,11.21543-1.2044,14.32813,5.14716C755.91965,1355.84833,750.63393,1355.54765,746.94116,1350.81336Z" transform="translate(-252.3461 -267.0886)"/><path class="cls-4" d="M691.34719,1328.06127c5.65432-.63712,11.46352-1.6612,13.96713,5.589C699.73857,1334.09231,694.86115,1332.77923,691.34719,1328.06127Z" transform="translate(-252.3461 -267.0886)"/><path class="cls-4" d="M659.31919,1313.89458c5.50536-.17512,11.41733-1.28479,13.69652,5.96417C667.60074,1319.82764,662.7405,1318.51132,659.31919,1313.89458Z" transform="translate(-252.3461 -267.0886)"/><path class="cls-4" d="M965.7414,1269.08479c-.4038-6.29807,2.88883-9.41269,8.83262-10.24787C973.87174,1264.18313,971.04289,1267.69964,965.7414,1269.08479Z" transform="translate(-252.3461 -267.0886)"/><path class="cls-4" d="M497.29277,1231.37644c4.60991-.69567,8.30915.21636,9.57884,5.42729C502.61,1236.88664,499.20111,1235.45461,497.29277,1231.37644Z" transform="translate(-252.3461 -267.0886)"/><path class="cls-4" d="M511.57331,1240.09614c4.17964.05673,8.20215.39189,9.5856,5.4118C517.30563,1244.87477,513.57964,1244.00694,511.57331,1240.09614Z" transform="translate(-252.3461 -267.0886)"/><path class="cls-4" d="M983.07775,1249.64355c-.19036-4.41869.7051-8.11454,5.94576-8.92311C989.23837,1245.15574,986.74517,1247.79105,983.07775,1249.64355Z" transform="translate(-252.3461 -267.0886)"/><path class="cls-4" d="M520.57545,1244.94008c4.3117-.1578,8.42516.03773,9.64051,5.41082C526.38605,1249.65129,522.53447,1248.9794,520.57545,1244.94008Z" transform="translate(-252.3461 -267.0886)"/><path class="cls-4" d="M529.63419,1249.82246c4.50093-.59559,8.502-.26042,9.73681,5.235C535.43438,1254.60377,531.61658,1253.91738,529.63419,1249.82246Z" transform="translate(-252.3461 -267.0886)"/><path class="cls-4" d="M538.91426,1254.43836c4.59695-.5694,8.18919.54956,9.43691,5.62155C544.58942,1259.22812,540.6604,1258.66251,538.91426,1254.43836Z" transform="translate(-252.3461 -267.0886)"/><path class="cls-4" d="M562.47909,1267.64418c3.913.30152,7.77638.70032,9.69654,4.92658Q567.32961,1270.10767,562.47909,1267.64418Z" transform="translate(-252.3461 -267.0886)"/><path class="cls-4" d="M959.80155,1277.12514c.09912-4.2813,1.0247-7.9763,6.16709-8.68506C966.29078,1273.02121,963.47629,1275.37878,959.80155,1277.12514Z" transform="translate(-252.3461 -267.0886)"/><path class="cls-4" d="M571.69355,1272.2667c3.95408.17891,7.6246.9209,9.68162,4.872Q576.53632,1274.70324,571.69355,1272.2667Z" transform="translate(-252.3461 -267.0886)"/><path class="cls-4" d="M621.57406,1296.57695c4.62877-1.02958,8.36885-.21467,10.0688,4.85309C627.67752,1301.08615,623.88873,1300.35866,621.57406,1296.57695Z" transform="translate(-252.3461 -267.0886)"/><path class="cls-4" d="M649.86932,1309.45294c4.14077-.12514,8.06107.20426,9.91533,4.80327C655.8776,1313.902,652.04178,1313.39373,649.86932,1309.45294Z" transform="translate(-252.3461 -267.0886)"/><path class="cls-4" d="M950.709,1285.52445q2.454-2.0604,4.909-4.12336Q953.16477,1283.46067,950.709,1285.52445Z" transform="translate(-252.3461 -267.0886)"/><path class="cls-4" d="M955.1021,1281.83916q2.50263-2.57224,5.00525-5.14674Q957.60472,1279.26341,955.1021,1281.83916Z" transform="translate(-252.3461 -267.0886)"/><path class="cls-4" d="M973.95959,1259.10917q2.498-2.57224,4.99653-5.14758C978.63652,1256.9802,977.40259,1259.11607,973.95959,1259.10917Z" transform="translate(-252.3461 -267.0886)"/><path class="cls-4" d="M978.32705,1254.16823q2.53389-2.507,5.06833-5.01681C982.92625,1252.05334,981.58589,1254.07927,978.32705,1254.16823Z" transform="translate(-252.3461 -267.0886)"/><path class="cls-4" d="M988.279,1241.13922q2.53093-2.64487,5.06749-5.29313C992.99365,1238.88385,991.90277,1241.224,988.279,1241.13922Z" transform="translate(-252.3461 -267.0886)"/><path class="cls-4" d="M506.376,1235.96222q2.84307,2.27558,5.68924,4.55326C509.32144,1240.06024,506.65338,1239.50449,506.376,1235.96222Z" transform="translate(-252.3461 -267.0886)"/><path class="cls-4" d="M992.60364,1236.41605q2.5567-2.72469,5.11846-5.45333Q995.16794,1233.68615,992.60364,1236.41605Z" transform="translate(-252.3461 -267.0886)"/><path class="cls-4" d="M996.88409,1231.49877q2.43209-2.74877,4.86446-5.50035Q999.31647,1228.74572,996.88409,1231.49877Z" transform="translate(-252.3461 -267.0886)"/><path class="cls-4" d="M568.28322,1137.69728c-26.31822-1.001-52.24981.19876-76.08806,13.34869-.44294-5.88408,5.62024-6.82651,8.00812-10.55939C522.47675,1129.31711,545.08023,1126.1918,568.28322,1137.69728Z" transform="translate(-252.3461 -267.0886)"/><path class="cls-4" d="M641.93919,1160.93643c-26.75186-1.56153-51.175-10.36189-74.09835-23.83178C593.65529,1141.57781,618.61737,1148.70881,641.93919,1160.93643Z" transform="translate(-252.3461 -267.0886)"/><path class="cls-4" d="M880.87675,1068.76967c-.64512,15.3048-4.76788,28.7288-19.66679,36.32588C865.42,1091.71807,870.84822,1078.99847,880.87675,1068.76967Z" transform="translate(-252.3461 -267.0886)"/><path class="cls-4" d="M793.14158,1212.15761c-14.70039,3.55367-27.36207.36177-37.46466-11.32277C769.02962,1201.7342,781.00619,1207.20808,793.14158,1212.15761Z" transform="translate(-252.3461 -267.0886)"/><path class="cls-4" d="M853.06132,1119.2742c1.12073,8.7083-.15543,16.04678-10.43965,18.24318C844.09044,1130.28813,846.80862,1123.76933,853.06132,1119.2742Z" transform="translate(-252.3461 -267.0886)"/><path class="cls-4" d="M861.37188,1104.933c1.82583,7.72841,1.53016,14.15135-8.85121,14.3708C853.63436,1113.38407,855.67335,1108.03153,861.37188,1104.933Z" transform="translate(-252.3461 -267.0886)"/><path class="cls-4" d="M820.55771,1178.92073c1.34206,7.58638-2.19189,12.17385-9.05452,14.71583C813.15359,1187.89142,815.39392,1182.50706,820.55771,1178.92073Z" transform="translate(-252.3461 -267.0886)"/><path class="cls-4" d="M806.4878,1201.626c.79746,6.36677-2.146,9.53108-8.41812,9.83317Q802.28677,1206.53635,806.4878,1201.626Z" transform="translate(-252.3461 -267.0886)"/><path class="cls-4" d="M720.17268,1188.9193c-5.45636-.08291-11.28189.66485-13.76325-6.12437C711.38314,1183.96077,717.29,1183.04733,720.17268,1188.9193Z" transform="translate(-252.3461 -267.0886)"/><path class="cls-4" d="M706.94557,1183.48174c-5.75935.81828-11.42212,1.364-14.58184-5.17194C697.65255,1178.81248,703.10976,1178.86358,706.94557,1183.48174Z" transform="translate(-252.3461 -267.0886)"/><path class="cls-4" d="M693.06968,1178.92566c-5.73317.7189-11.41086,1.28746-14.4402-5.33663C683.80144,1174.38493,689.32623,1174.24838,693.06968,1178.92566Z" transform="translate(-252.3461 -267.0886)"/><path class="cls-4" d="M679.31093,1174.19433c-5.74753.76155-11.48689,1.50072-14.45457-5.31848C670.21079,1169.17738,675.4906,1169.705,679.31093,1174.19433Z" transform="translate(-252.3461 -267.0886)"/><path class="cls-4" d="M665.3973,1169.48594c-5.83848,1.07645-11.53251,1.77859-14.16255-5.47459C656.48217,1164.46265,661.80787,1164.73264,665.3973,1169.48594Z" transform="translate(-252.3461 -267.0886)"/><path class="cls-4" d="M843.1274,1137.11858c1.01682,4.609.07519,8.25193-4.89262,9.915C837.891,1142.75885,839.1736,1139.28007,843.1274,1137.11858Z" transform="translate(-252.3461 -267.0886)"/><path class="cls-4" d="M834.91033,1151.70138c-.089,4.1114-.65075,7.96293-5.2691,9.59189C830.06784,1157.36882,831.152,1153.80093,834.91033,1151.70138Z" transform="translate(-252.3461 -267.0886)"/><path class="cls-4" d="M651.801,1164.54655c-4.42011.99649-8.40376.93371-10.28872-4.23837C645.41682,1160.56016,649.42666,1160.57057,651.801,1164.54655Z" transform="translate(-252.3461 -267.0886)"/><path class="cls-4" d="M830.06868,1160.68375c.25231,4.30734-.18866,8.24362-5.21279,9.7321C825.30982,1166.48773,826.0611,1162.71362,830.06868,1160.68375Z" transform="translate(-252.3461 -267.0886)"/><path class="cls-4" d="M825.36473,1169.85911c.37817,4.3721-.26216,8.19816-5.21392,9.7183C820.60276,1175.65183,821.23409,1171.81676,825.36473,1169.85911Z" transform="translate(-252.3461 -267.0886)"/><path class="cls-4" d="M811.83378,1193.17892c-.02281,4.29608-.88842,8.05837-5.85425,9.23083Q808.89948,1197.79694,811.83378,1193.17892Z" transform="translate(-252.3461 -267.0886)"/><path class="cls-4" d="M838.98381,1146.375q-2.21794,2.87271-4.43644,5.74837C834.88218,1149.32706,835.47267,1146.72483,838.98381,1146.375Z" transform="translate(-252.3461 -267.0886)"/><path class="cls-4" d="M1129.76851,1481.35669c2.01618,14.76721-2.47377,28.85155-6.2054,42.56933-8.44881,31.05836-14.06991,62.2337-11.85548,94.51969-8.12246-9.33232-9.31358-21.08992-7.56069-31.99855C1109.87645,1550.78839,1116.07339,1515.12342,1129.76851,1481.35669Z" transform="translate(-252.3461 -267.0886)"/><path class="cls-4" d="M1181.96368,1295.47755c.16614,39.40671-10.213,75.89067-30.41281,109.65725Q1166.74658,1350.3071,1181.96368,1295.47755Z" transform="translate(-252.3461 -267.0886)"/><path class="cls-4" d="M1148.00144,1418.79867c.64765,5.8213,1.09228,11.56587-5.52986,14.64784C1143.90374,1428.411,1143.09474,1422.52605,1148.00144,1418.79867Z" transform="translate(-252.3461 -267.0886)"/><path class="cls-4" d="M1152.40268,1405.03514c1.07624,5.77583,1.73291,11.40061-5.16013,14.31534C1148.131,1414.28313,1146.90211,1408.44523,1152.40268,1405.03514Z" transform="translate(-252.3461 -267.0886)"/><path class="cls-4" d="M479.80211,1165.68381c-1.29446,17.37365,1.92213,34.35907,4.42406,51.406C472.26283,1200.8568,471.24939,1183.68177,479.80211,1165.68381Z" transform="translate(-252.3461 -267.0886)"/><path class="cls-4" d="M492.746,1150.86621q-.80506,8.74819-9.52055,9.91031C484.41371,1155.56939,486.22968,1150.95954,492.746,1150.86621Z" transform="translate(-252.3461 -267.0886)"/><path class="cls-4" d="M484.091,1160.53848q-2.23991,2.768-4.4801,5.53723C479.81338,1163.1873,480.6176,1160.78384,484.091,1160.53848Z" transform="translate(-252.3461 -267.0886)"/></svg>